<svg width="20" height="21" viewBox="0 0 20 21" fill="none" xmlns="http://www.w3.org/2000/svg">
<path fill-rule="evenodd" clip-rule="evenodd" d="M10.0024 2.86242L8.45052 6.48186C7.97302 7.58965 7.08965 8.4778 5.98186 8.95052L2.35765 10.5072L5.97708 12.059C7.08488 12.5365 7.97302 13.4199 8.44574 14.5277L9.99761 18.1471L11.5495 14.5277C12.027 13.4199 12.9103 12.5318 14.0181 12.059L17.6376 10.5072L14.0181 8.95529C12.9103 8.4778 12.0222 7.59443 11.5495 6.48663L10.0024 2.86242ZM8.56034 1.44903C9.10469 0.183658 10.9001 0.183658 11.4397 1.44903L13.278 5.74173C13.5645 6.40546 14.0945 6.94025 14.7583 7.22198L19.051 9.06034C20.3163 9.60469 20.3163 11.4001 19.051 11.9397L14.7583 13.778C14.0945 14.0645 13.5597 14.5945 13.278 15.2583L11.4397 19.551C10.8953 20.8163 9.09992 20.8163 8.56034 19.551L6.72198 15.2583C6.43548 14.5945 5.90546 14.0597 5.24173 13.778L0.949027 11.9397C-0.316342 11.3953 -0.316342 9.59992 0.949027 9.06034L5.24173 7.22198C5.90546 6.93548 6.44025 6.40546 6.72198 5.74173L8.56034 1.44903Z" fill="#FAFAFA"/>
</svg>
