<svg width="65" height="65" viewBox="0 0 65 65" fill="none" xmlns="http://www.w3.org/2000/svg">
<g clip-path="url(#clip0_61_2319)">
<path d="M40.1215 34.4062C40.1215 39.6596 35.8475 43.9336 30.5941 43.9336C25.3406 43.9336 21.0666 39.6596 21.0666 34.4062C21.0666 29.1526 25.3406 24.8785 30.5941 24.8785C32.5335 24.8785 34.3386 25.4625 35.8454 26.4617L41.3706 20.9364C41.2458 20.8448 41.12 20.7544 40.9932 20.6654C37.2462 18.047 33.4927 16.7236 29.8211 16.7236C29.4848 16.7236 29.1494 16.7347 28.8145 16.7569C24.3843 17.0584 20.2571 19.0306 17.1958 22.3099C14.127 25.5922 12.4375 29.8875 12.4375 34.4062C12.4375 39.2543 14.3266 43.8134 17.7566 47.2434C21.1869 50.6737 25.7459 52.5626 30.594 52.5626C35.442 52.5626 40.0012 50.6736 43.4313 47.2434C46.8613 43.8133 48.7503 39.2543 48.7503 34.4062C48.7503 30.4155 47.1387 26.5843 44.2292 23.4637L38.538 29.1548C39.5377 30.6616 40.1215 32.4667 40.1215 34.4062Z" fill="url(#paint0_linear_61_2319)"/>
<path d="M29.2473 33.059L33.0599 29.2464C32.2904 28.8769 31.4475 28.6856 30.5939 28.6865C27.4405 28.6865 24.875 31.2521 24.875 34.4056C24.875 37.559 27.4405 40.1245 30.5939 40.1245C33.7472 40.1245 36.3127 37.559 36.3127 34.4056C36.3136 33.552 36.1223 32.7091 35.753 31.9394L31.9404 35.752L29.2473 33.059Z" fill="url(#paint1_linear_61_2319)"/>
<path d="M49.2939 18.3989L46.9244 20.7684C50.548 24.605 52.5592 29.3866 52.5592 34.4057C52.5592 40.2712 50.2741 45.7865 46.1246 49.936C41.975 54.0856 36.4595 56.3709 30.5942 56.3709C24.7288 56.3709 19.2133 54.0856 15.0637 49.936C10.9142 45.7865 8.629 40.2711 8.629 34.4057C8.629 28.9178 10.6832 23.6986 14.413 19.7095C18.1344 15.7226 23.1588 13.3239 28.5592 12.9563C33.4407 12.6337 38.3563 14.1758 43.1749 17.5432C43.4851 17.7607 43.7904 17.9851 44.0906 18.2163L46.6009 15.7059L47.003 8.57227C42.144 5.47258 36.497 3.81152 30.5943 3.81152C22.4223 3.81152 14.7394 6.99386 8.96099 12.7723C3.18233 18.5507 0 26.2336 0 34.4056C0 42.5775 3.18233 50.2605 8.96086 56.0389C14.7394 61.8173 22.4222 64.9998 30.5942 64.9998C38.7662 64.9998 46.4491 61.8174 52.2275 56.0389C58.0059 50.2604 61.1882 42.5775 61.1882 34.4056C61.1882 28.5029 59.5271 22.8559 56.4275 17.9969L49.2939 18.3989Z" fill="url(#paint2_linear_61_2319)"/>
<path d="M50.4824 14.5176L58.2644 14.079L65 7.34322L57.6569 0L50.9212 6.73562L50.4824 14.5176Z" fill="url(#paint3_linear_61_2319)"/>
</g>
<defs>
<linearGradient id="paint0_linear_61_2319" x1="30.5939" y1="16.7236" x2="30.5939" y2="52.5626" gradientUnits="userSpaceOnUse">
<stop stop-color="#376890"/>
<stop offset="1" stop-color="#3A7BA3"/>
</linearGradient>
<linearGradient id="paint1_linear_61_2319" x1="30.5939" y1="28.6865" x2="30.5939" y2="40.1245" gradientUnits="userSpaceOnUse">
<stop stop-color="#376890"/>
<stop offset="1" stop-color="#3A7BA3"/>
</linearGradient>
<linearGradient id="paint2_linear_61_2319" x1="30.5941" y1="3.81152" x2="30.5941" y2="64.9998" gradientUnits="userSpaceOnUse">
<stop stop-color="#376890"/>
<stop offset="1" stop-color="#3A7BA3"/>
</linearGradient>
<linearGradient id="paint3_linear_61_2319" x1="57.7412" y1="0" x2="57.7412" y2="14.5176" gradientUnits="userSpaceOnUse">
<stop stop-color="#376890"/>
<stop offset="1" stop-color="#3A7BA3"/>
</linearGradient>
<clipPath id="clip0_61_2319">
<rect width="65" height="65" fill="white"/>
</clipPath>
</defs>
</svg>
