<svg width="112" height="111" viewBox="0 0 112 111" fill="none" xmlns="http://www.w3.org/2000/svg">
<ellipse cx="55.7638" cy="54.9018" rx="6.86276" ry="6.86274" fill="#F4D2A8"/>
<path d="M47.097 97.4579L44.0925 107.735L37.1675 105.71L37.6912 103.919L42.4434 105.308L43.1593 102.859L38.7634 101.574L39.2872 99.7828L43.683 101.068L44.4004 98.6141L39.6282 97.219L40.1519 95.4275L47.097 97.4579Z" fill="#FAFAFA"/>
<path d="M31.8007 103.308L31.6732 99.0697L31.6 99.0293L27.9373 101.176L25.6989 99.9411L31.1463 96.8323L30.8076 90.531L33.0872 91.7888L33.2443 96.0493L33.3175 96.0897L37.0056 93.9509L39.2761 95.2037L33.7554 98.272L34.0483 104.548L31.8007 103.308Z" fill="#FAFAFA"/>
<path d="M25.3558 90.6412L23.9144 89.3669L24.014 87.794L24.0353 86.3334L24.181 83.4614L25.7634 84.8605L25.6834 86.8136L25.5617 87.9063L25.3558 90.6412ZM19.9317 88.0228C20.7051 87.1481 21.5288 86.5505 22.403 86.2301C23.2745 85.9073 24.1381 85.8357 24.9936 86.0152C25.8442 86.195 26.6233 86.5978 27.3309 87.2234C28.0438 87.8537 28.5404 88.5812 28.8207 89.4059C29.1011 90.2307 29.1345 91.0954 28.921 91.9999C28.7074 92.9044 28.2151 93.7927 27.444 94.6648C26.6706 95.5396 25.8481 96.1383 24.9766 96.461C24.105 96.7838 23.244 96.8552 22.3934 96.6754C21.5405 96.4982 20.7576 96.0945 20.0448 95.4642C19.3371 94.8386 18.8431 94.1134 18.5628 93.2886C18.2775 92.4642 18.2416 91.5997 18.4552 90.6952C18.6661 89.7883 19.1583 88.8976 19.9317 88.0228ZM21.6511 89.5431C21.1501 90.1097 20.8125 90.6626 20.6383 91.2017C20.4614 91.7385 20.4368 92.2425 20.5645 92.7137C20.6923 93.1849 20.9611 93.6017 21.3711 93.9641C21.781 94.3266 22.2277 94.5423 22.7109 94.6114C23.1942 94.6805 23.6927 94.5955 24.2064 94.3565C24.7175 94.1152 25.2236 93.7112 25.7246 93.1446C26.2255 92.578 26.5645 92.0262 26.7413 91.4894C26.9156 90.9503 26.9389 90.4451 26.8111 89.974C26.6834 89.5028 26.4145 89.086 26.0046 88.7235C25.5946 88.3611 25.148 88.1453 24.6647 88.0762C24.1815 88.0072 23.6843 88.0933 23.1732 88.3346C22.6595 88.5736 22.1521 88.9764 21.6511 89.5431Z" fill="#FAFAFA"/>
<path d="M11.0492 84.9029L9.72092 83.0698L15.3516 78.99C15.9839 78.5319 16.6465 78.2821 17.3394 78.2405C18.0304 78.1961 18.7038 78.3473 19.3597 78.6942C20.0128 79.0431 20.5991 79.576 21.1185 80.2929C21.64 81.0126 21.9648 81.7371 22.0929 82.4663C22.2182 83.1976 22.1522 83.8847 21.8948 84.5274C21.6374 85.1701 21.1926 85.7206 20.5603 86.1786L14.9296 90.2585L13.6014 88.4253L19.0754 84.459C19.4057 84.2197 19.6471 83.9351 19.7996 83.605C19.9501 83.2722 20.0026 82.9199 19.9571 82.5483C19.9117 82.1766 19.7611 81.8144 19.5055 81.4616C19.2478 81.106 18.9505 80.8501 18.6136 80.6939C18.2746 80.535 17.9245 80.4766 17.5633 80.5187C17.2002 80.5581 16.8535 80.6974 16.5232 80.9366L11.0492 84.9029Z" fill="#FAFAFA"/>
<path d="M6.23144 75.6507L16.063 71.4098L16.9596 73.4884L7.12808 77.7293L6.23144 75.6507Z" fill="#FAFAFA"/>
<path d="M5.92521 63.0579C5.51865 63.1776 5.23022 63.415 5.05989 63.7701C4.88957 64.1253 4.85508 64.5699 4.95641 65.1041C5.02526 65.4671 5.13476 65.7639 5.28491 65.9944C5.43164 66.2255 5.6067 66.391 5.8101 66.4907C6.01285 66.5871 6.22723 66.6138 6.45324 66.5709C6.64288 66.5421 6.79977 66.4715 6.92393 66.3593C7.04744 66.2436 7.14595 66.099 7.21945 65.9254C7.28953 65.7525 7.34307 65.5578 7.38008 65.3415C7.41367 65.1258 7.43438 64.8984 7.44223 64.6592L7.48896 63.6712C7.50465 63.1929 7.56172 62.7457 7.66019 62.3297C7.75866 61.9137 7.90625 61.5416 8.10296 61.2134C8.29968 60.8851 8.55292 60.6118 8.8627 60.3934C9.17184 60.1716 9.54524 60.0174 9.9829 59.9308C10.6273 59.8122 11.2167 59.8706 11.751 60.1063C12.2811 60.3392 12.7342 60.7358 13.1101 61.2959C13.4819 61.8533 13.749 62.5601 13.9113 63.4161C14.0724 64.2654 14.0826 65.0297 13.9419 65.7092C13.8005 66.3852 13.5081 66.948 13.0648 67.3975C12.6174 67.8442 12.017 68.1479 11.2634 68.3085L10.8552 66.1563C11.2033 66.0655 11.4787 65.9086 11.6812 65.6857C11.8796 65.46 12.0102 65.1852 12.0729 64.8611C12.1315 64.5342 12.1244 64.179 12.0517 63.7955C11.9802 63.4188 11.8634 63.1022 11.7012 62.8456C11.5383 62.5856 11.3447 62.3971 11.1203 62.28C10.8959 62.1629 10.657 62.1284 10.4036 62.1765C10.1673 62.2213 9.98198 62.3292 9.84767 62.5001C9.7127 62.6676 9.61405 62.8956 9.55172 63.1842C9.48873 63.4693 9.44738 63.8124 9.42768 64.2134L9.35731 65.4134C9.30981 66.3413 9.10535 67.1055 8.74392 67.7062C8.38249 68.3069 7.81278 68.6793 7.03481 68.8233C6.39852 68.9476 5.80991 68.8836 5.26897 68.6315C4.72738 68.3759 4.26587 67.9721 3.88445 67.4201C3.50303 66.868 3.23956 66.2085 3.09406 65.4414C2.94596 64.6607 2.95025 63.9539 3.10692 63.3211C3.26295 62.6849 3.5481 62.159 3.96237 61.7434C4.37665 61.3278 4.89614 61.0554 5.52085 60.9262L5.92521 63.0579Z" fill="#FAFAFA"/>
<path d="M2.38734 52.7298L13.089 53.0758L13.0158 55.3384L2.31419 54.9924L2.38734 52.7298Z" fill="#FAFAFA"/>
<path d="M4.71756 47.0107L2.91012 46.5451L5.10364 38.0294L6.91108 38.4949L6.0934 41.6694L14.6547 43.8746L14.0966 46.0415L5.53524 43.8363L4.71756 47.0107Z" fill="#FAFAFA"/>
<path d="M16.0568 39.4118L6.51972 34.5446L9.79934 28.1183L11.4618 28.9667L9.21123 33.3767L11.4837 34.5364L13.5656 30.4571L15.228 31.3055L13.1462 35.3848L15.4234 36.547L17.6834 32.1184L19.3459 32.9668L16.0568 39.4118Z" fill="#FAFAFA"/>
<path d="M29.0892 13.4589L27.2793 14.8617C27.0647 14.6532 26.836 14.4975 26.5932 14.3947C26.3482 14.2891 26.0957 14.2335 25.8355 14.2278C25.5754 14.2222 25.3139 14.2661 25.0512 14.3595C24.7912 14.4508 24.54 14.5903 24.2976 14.7782C23.8595 15.1177 23.5623 15.5223 23.4059 15.9918C23.2474 16.4587 23.2387 16.9681 23.38 17.5201C23.519 18.0694 23.816 18.6374 24.2708 19.2242C24.7384 19.8275 25.2208 20.265 25.718 20.5367C26.2179 20.8062 26.7116 20.9197 27.1989 20.8771C27.6863 20.8345 28.1435 20.6478 28.5705 20.3168C28.8101 20.1311 29.0073 19.9275 29.1621 19.7061C29.3196 19.4826 29.4313 19.2484 29.4971 19.0033C29.5608 18.7555 29.5767 18.5029 29.5447 18.2454C29.5155 17.9858 29.434 17.7271 29.3002 17.4692L31.1166 16.0746C31.3708 16.4994 31.5441 16.9648 31.6365 17.4708C31.7295 17.972 31.7289 18.4862 31.6348 19.0134C31.5413 19.5356 31.3423 20.047 31.0379 20.5475C30.7341 21.0431 30.3109 21.5013 29.7682 21.9219C29.0134 22.5069 28.206 22.8592 27.3462 22.9788C26.4892 23.0963 25.6376 22.9648 24.7915 22.5843C23.9481 22.2017 23.1698 21.5503 22.4567 20.6302C21.7414 19.7073 21.3064 18.7877 21.1518 17.8712C20.9971 16.9548 21.086 16.0966 21.4184 15.2965C21.7487 14.4937 22.2858 13.8041 23.0296 13.2276C23.5199 12.8475 24.0279 12.5641 24.5534 12.3773C25.0816 12.1884 25.6108 12.1002 26.1408 12.1127C26.6687 12.1224 27.1819 12.2384 27.6805 12.4606C28.1817 12.6806 28.6513 13.0134 29.0892 13.4589Z" fill="#FAFAFA"/>
<path d="M35.2273 18.1121L33.032 19.1444L31.8205 7.88211L34.4605 6.64067L42.3571 14.7593L40.1618 15.7916L34.2196 9.45776L34.1439 9.49335L35.2273 18.1121ZM33.2991 14.368L38.4844 11.9297L39.2364 13.5288L34.0511 15.9672L33.2991 14.368Z" fill="#FAFAFA"/>
<path d="M40.1121 6.35434L39.7052 4.53279L48.2874 2.61562L48.6943 4.43717L45.4951 5.15183L47.4225 13.7799L45.2387 14.2678L43.3113 5.63967L40.1121 6.35434Z" fill="#FAFAFA"/>
<path d="M52.0349 13V2.29279L59.2498 2.29279V4.15923L54.2987 4.15923V6.71056L58.8786 6.71056V8.577L54.2987 8.577V11.1336L59.2707 11.1336V13L52.0349 13Z" fill="#FAFAFA"/>
<path d="M61.0886 13.1739L63.423 2.72426L67.5457 3.64524C68.3349 3.82153 68.9769 4.11315 69.4716 4.5201C69.9706 4.92441 70.309 5.41606 70.4868 5.99505C70.6687 6.57139 70.6826 7.20483 70.5283 7.89535C70.3733 8.58927 70.0903 9.15281 69.6792 9.58597C69.2689 10.0157 68.7501 10.2998 68.1228 10.4382C67.4989 10.5774 66.7855 10.5574 65.9827 10.378L63.2224 9.76139L63.619 7.98576L66.0222 8.52262C66.444 8.61684 66.8073 8.63728 67.1121 8.58394C67.4168 8.5306 67.6631 8.40347 67.8508 8.20256C68.042 8.0024 68.1759 7.73055 68.2527 7.38699C68.3302 7.04003 68.3258 6.73191 68.2395 6.46265C68.1566 6.19414 67.9877 5.96713 67.7327 5.7816C67.4819 5.59343 67.1439 5.45186 66.7187 5.35687L65.2288 5.02404L63.298 13.6675L61.0886 13.1739ZM67.7942 9.67914L69.329 15.0147L66.89 14.4699L65.4114 9.14685L67.7942 9.67914Z" fill="#FAFAFA"/>
<path d="M79.3137 7.84009L74.7573 17.5294L72.7088 16.5661L77.2652 6.87675L79.3137 7.84009Z" fill="#FAFAFA"/>
<path d="M91.9744 16.3436L85.4151 24.8065L83.8697 23.6087L84.3162 15.4285L84.2542 15.3805L80.1258 20.707L78.3365 19.3202L84.8958 10.8573L86.4661 12.0744L85.9938 20.228L86.0682 20.2856L90.1934 14.9632L91.9744 16.3436Z" fill="#FAFAFA"/>
<path d="M95.6852 25.8494C95.8344 25.6307 95.942 25.4082 96.0079 25.1817C96.0764 24.9529 96.1019 24.7214 96.0843 24.4871C96.0716 24.2532 96.0157 24.0189 95.9164 23.7843C95.8194 23.5524 95.6775 23.3237 95.4908 23.0982C95.1418 22.6768 94.7303 22.393 94.2564 22.247C93.7846 22.1036 93.2754 22.109 92.7287 22.2631C92.1847 22.4149 91.6255 22.7287 91.051 23.2044C90.4765 23.6802 90.0602 24.172 89.8021 24.68C89.5439 25.1879 89.4411 25.6894 89.4935 26.1845C89.5487 26.6773 89.7564 27.1412 90.1165 27.5761C90.4433 27.9707 90.7921 28.2498 91.1629 28.4133C91.5386 28.5774 91.9164 28.6265 92.2964 28.5607C92.6786 28.4977 93.0455 28.3205 93.3972 28.0293L93.6383 28.427L91.8776 26.3009L93.1903 25.2138L96.048 28.6646L95.0092 29.525C94.2844 30.1252 93.5349 30.4879 92.7607 30.6132C91.9891 30.7362 91.2401 30.646 90.5137 30.3426C89.7899 30.0369 89.1412 29.5377 88.5676 28.8452C87.9274 28.0721 87.5354 27.2517 87.3917 26.3842C87.2507 25.5144 87.36 24.6546 87.7196 23.8047C88.0841 22.9552 88.7013 22.1704 89.571 21.4501C90.2394 20.8965 90.9154 20.4997 91.5989 20.2594C92.2874 20.0197 92.9597 19.9245 93.616 19.9738C94.2723 20.0231 94.8892 20.2024 95.4666 20.5116C96.044 20.8209 96.5584 21.248 97.0096 21.7929C97.3965 22.26 97.6881 22.7516 97.8847 23.2676C98.0839 23.7814 98.189 24.2963 98.1999 24.8122C98.2131 25.3308 98.1314 25.8306 97.955 26.3115C97.7813 26.7903 97.5137 27.2268 97.1524 27.6211L95.6852 25.8494Z" fill="#FAFAFA"/>
<path d="M104.714 44.9129C105.112 44.7672 105.384 44.5116 105.531 44.1462C105.678 43.7808 105.684 43.3349 105.548 42.8083C105.456 42.4505 105.328 42.1615 105.163 41.9412C105.002 41.72 104.816 41.5662 104.607 41.4798C104.398 41.3967 104.182 41.3839 103.96 41.4413C103.772 41.4823 103.62 41.5629 103.504 41.6829C103.388 41.8063 103.299 41.957 103.237 42.135C103.178 42.3121 103.137 42.5097 103.114 42.728C103.095 42.9454 103.089 43.1737 103.096 43.4129L103.113 44.4018C103.129 44.8802 103.101 45.3301 103.029 45.7516C102.958 46.1731 102.835 46.554 102.66 46.8942C102.484 47.2345 102.249 47.5236 101.954 47.7615C101.66 48.0028 101.298 48.1808 100.866 48.2955C100.231 48.4556 99.639 48.4353 99.0907 48.2346C98.5465 48.0364 98.0688 47.67 97.6576 47.1353C97.2505 46.6031 96.9383 45.9151 96.721 45.0712C96.5054 44.2342 96.4458 43.4721 96.5424 42.785C96.6398 42.1012 96.8952 41.5208 97.3086 41.0436C97.7262 40.5689 98.3058 40.227 99.0473 40.018L99.5938 42.1394C99.2522 42.2525 98.9876 42.4269 98.7999 42.6624C98.6165 42.9004 98.5039 43.1831 98.4623 43.5106C98.4249 43.8405 98.4549 44.1945 98.5523 44.5725C98.6479 44.9438 98.785 45.2522 98.9634 45.4978C99.1427 45.7468 99.3481 45.9224 99.5796 46.0247C99.8111 46.1271 100.052 46.1461 100.302 46.0817C100.534 46.0217 100.712 45.9021 100.835 45.7229C100.959 45.547 101.043 45.3131 101.086 45.0211C101.131 44.7325 101.15 44.3875 101.144 43.986L101.136 42.7839C101.124 41.855 101.279 41.0791 101.6 40.4563C101.922 39.8335 102.467 39.4252 103.234 39.2312C103.861 39.0661 104.452 39.0919 105.008 39.3086C105.565 39.5286 106.052 39.9018 106.468 40.428C106.885 40.9542 107.19 41.5954 107.385 42.3514C107.583 43.121 107.624 43.8266 107.509 44.4682C107.394 45.1131 107.144 45.6564 106.757 46.0979C106.371 46.5394 105.87 46.8447 105.255 47.014L104.714 44.9129Z" fill="#FAFAFA"/>
<path d="M98.0573 50.6316L108.759 50.2856L108.992 57.4967L107.127 57.557L106.967 52.6086L104.417 52.691L104.565 57.2684L102.699 57.3288L102.551 52.7513L99.996 52.8339L100.157 57.8033L98.2912 57.8636L98.0573 50.6316Z" fill="#FAFAFA"/>
<path d="M98.1761 59.6865L108.696 61.6819L107.908 65.8323C107.758 66.6267 107.487 67.2778 107.096 67.7855C106.708 68.2972 106.228 68.6513 105.655 68.8477C105.085 69.0482 104.452 69.0825 103.757 68.9507C103.058 68.8181 102.486 68.5535 102.04 68.1566C101.597 67.7605 101.296 67.2511 101.138 66.6286C100.978 66.0095 100.975 65.2958 101.129 64.4877L101.656 61.7088L103.443 62.0479L102.984 64.4672C102.904 64.8918 102.895 65.2556 102.958 65.5585C103.021 65.8613 103.156 66.1034 103.363 66.2845C103.57 66.4691 103.846 66.5942 104.191 66.6598C104.541 66.726 104.849 66.7117 105.115 66.6167C105.381 66.5252 105.602 66.3491 105.779 66.0882C105.959 65.8315 106.09 65.4891 106.171 65.061L106.455 63.5612L97.7542 61.9106L98.1761 59.6865ZM101.886 66.2756L96.6025 67.982L97.0683 65.5267L102.341 63.8768L101.886 66.2756Z" fill="#FAFAFA"/>
<path d="M105.498 74.4748L97.0038 73.629L96.9644 73.7202L103.407 79.3234L102.413 81.6277L94.0434 73.9976L95.1989 71.3189L106.494 72.1658L105.498 74.4748Z" fill="#FAFAFA"/>
<path d="M98.1021 87.7655L89.4316 81.4832L90.7599 79.65L99.4303 85.9323L98.1021 87.7655Z" fill="#FAFAFA"/>
<path d="M84.8005 95.9048L86.516 94.388C86.7436 94.5822 86.9819 94.7228 87.2308 94.8097C87.4821 94.8993 87.7378 94.9384 87.9977 94.9273C88.2577 94.9161 88.5157 94.8554 88.7719 94.7452C89.0255 94.6374 89.2671 94.4818 89.4969 94.2787C89.9121 93.9116 90.1825 93.4887 90.3083 93.01C90.4363 92.5339 90.4121 92.025 90.2355 91.4833C90.0612 90.9441 89.7282 90.3965 89.2365 89.8403C88.7309 89.2685 88.2212 88.863 87.7075 88.624C87.1912 88.3873 86.6912 88.306 86.2076 88.38C85.724 88.4539 85.2799 88.6698 84.8752 89.0277C84.648 89.2285 84.4643 89.4444 84.3242 89.6753C84.1815 89.9085 84.0852 90.1495 84.0353 90.3983C83.9877 90.6497 83.9882 90.9028 84.0368 91.1577C84.0827 91.4148 84.1807 91.6678 84.3309 91.9165L82.6084 93.4255C82.3273 93.0181 82.1242 92.5648 81.9994 92.0658C81.8742 91.5716 81.8415 91.0585 81.9014 90.5264C81.961 89.9992 82.1265 89.476 82.3979 88.9568C82.6691 88.4426 83.0618 87.9581 83.5762 87.5033C84.2917 86.8708 85.0746 86.467 85.9249 86.2921C86.7725 86.1196 87.6309 86.1958 88.4998 86.5208C89.3661 86.8482 90.1848 87.4479 90.9559 88.3201C91.7293 89.1948 92.2228 90.0844 92.4363 90.9889C92.6498 91.8935 92.6166 92.7556 92.3365 93.5755C92.0588 94.3979 91.5674 95.1208 90.8624 95.7442C90.3976 96.1551 89.9091 96.4708 89.3967 96.6911C88.8818 96.9138 88.3594 97.036 87.8297 97.0577C87.3022 97.0821 86.7826 96.9995 86.2708 96.81C85.7563 96.6228 85.2662 96.3211 84.8005 95.9048Z" fill="#FAFAFA"/>
<path d="M79.3162 91.1381L84.489 100.513L78.172 103.998L77.2703 102.364L81.6052 99.9723L80.3726 97.7385L76.3627 99.9511L75.461 98.3169L79.4709 96.1043L78.2358 93.8659L73.8826 96.2679L72.9809 94.6338L79.3162 91.1381Z" fill="#FAFAFA"/>
</svg>
