<svg width="65" height="65" viewBox="0 0 65 65" fill="none" xmlns="http://www.w3.org/2000/svg">
<g clip-path="url(#clip0_61_2311)">
<path d="M62.2938 61.5194H57.9083C57.9083 61.4498 57.9779 61.3802 57.9779 61.3106C57.9083 56.7858 54.2884 53.166 49.7637 53.2356C46.4919 53.2356 43.5682 55.2544 42.3152 58.2477C40.1573 58.5261 38.1385 59.7095 36.8855 61.5194H30.0635C28.9498 59.5007 26.8614 58.3173 24.6338 58.3173H24.5642C23.3112 54.6975 19.3433 52.7483 15.7235 54.071C14.5401 54.4886 13.4263 55.2544 12.591 56.2289L11.2684 56.0897C7.99661 56.0897 5.07292 58.3173 4.23757 61.5194H2.70611C1.73155 61.5194 0.96582 62.2851 0.96582 63.2597C0.96582 64.2343 1.73155 65 2.70611 65H62.2938C63.2684 65 64.0341 64.2343 64.0341 63.2597C64.0341 62.2851 63.2684 61.5194 62.2938 61.5194ZM48.3714 25.8782C47.188 24.6948 45.7262 23.7898 44.1251 23.2329C43.9163 17.7336 42.3152 12.3735 39.3915 7.63989C39.1827 7.15261 35.5629 2.27979 33.753 0.46988C33.0568 -0.156627 31.9431 -0.156627 31.2469 0.46988C24.7034 7.083 21.1532 14.8099 20.8748 23.2329C19.2737 23.7898 17.8119 24.6948 16.6285 25.8782C12.2429 29.9157 11.8949 36.7376 15.9324 41.1928C16.2108 41.5408 16.6285 41.7497 17.1158 41.7497H17.1854C17.603 41.7497 18.0903 41.6104 18.3688 41.2624L23.1024 36.9465C24.0769 39.4525 25.2603 41.8889 26.7918 44.1165C28.184 46.2048 31.7342 46.4137 32.7784 46.4137H32.848C34.3099 46.4137 36.8159 46.1352 37.9993 44.4645C39.6004 42.1673 40.923 39.5917 41.8975 36.9465L46.6311 41.2624C46.9096 41.6104 47.3969 41.7497 47.8145 41.7497H47.8842C48.3714 41.7497 48.7891 41.5408 49.0676 41.1928C53.105 36.7376 52.757 29.9157 48.3714 25.8782ZM32.5 26.9224C29.2282 26.8527 26.583 24.2075 26.583 20.9357C26.583 17.664 29.2282 15.0187 32.5 15.0187C35.7717 15.0187 38.417 17.664 38.417 20.9357C38.417 24.2075 35.7717 26.8527 32.5 26.9224Z" fill="url(#paint0_linear_61_2311)"/>
<path d="M30.7599 48.9193H34.2405V57.0639H30.7599V48.9193ZM36.4681 47.5967H39.9487V55.0451H36.4681V47.5967ZM25.0518 47.5967H28.5323V54.4186H25.0518V47.5967Z" fill="url(#paint1_linear_61_2311)"/>
</g>
<defs>
<linearGradient id="paint0_linear_61_2311" x1="32.5" y1="0" x2="32.5" y2="65" gradientUnits="userSpaceOnUse">
<stop stop-color="#376890"/>
<stop offset="1" stop-color="#3A7BA3"/>
</linearGradient>
<linearGradient id="paint1_linear_61_2311" x1="32.5002" y1="47.5967" x2="32.5002" y2="57.0639" gradientUnits="userSpaceOnUse">
<stop stop-color="#376890"/>
<stop offset="1" stop-color="#3A7BA3"/>
</linearGradient>
<clipPath id="clip0_61_2311">
<rect width="65" height="65" fill="white"/>
</clipPath>
</defs>
</svg>
