<svg width="68" height="57" viewBox="0 0 68 57" fill="none" xmlns="http://www.w3.org/2000/svg">
<mask id="path-1-outside-1_61_2233" maskUnits="userSpaceOnUse" x="-1" y="-1" width="71" height="59" fill="black">
<rect fill="white" x="-1" y="-1" width="71" height="59"/>
<path d="M23.5197 28C23.5197 12.46 21.2097 1.68 16.5897 1.68C12.0397 1.68 9.72969 12.46 9.72969 28C9.72969 45.29 12.0397 55.37 16.5897 55.37C21.2097 55.37 23.5197 45.29 23.5197 28ZM0.279688 28C0.279688 7.42 6.99969 0.349999 16.5897 0.349999C26.2497 0.349999 32.9697 7.42 32.9697 28C32.9697 49.63 26.2497 56.7 16.5897 56.7C6.99969 56.7 0.279688 49.63 0.279688 28ZM36.4938 56V54.67C43.9838 45.36 57.1438 25.48 57.1438 11.41C57.1438 5.32 54.8338 1.68 50.9138 1.68C43.9838 1.68 41.8138 10.99 41.0438 20.79H40.2038C40.2038 15.12 38.4538 9.94 36.7738 5.04C40.0638 2.87 45.0338 0.349999 51.2638 0.349999C57.9838 0.349999 66.3838 3.99 66.3838 15.12C66.3838 30.38 45.5238 46.34 40.3438 52.36H46.6438C60.2938 52.36 62.2538 47.67 65.7538 35.49H66.5238C65.7538 41.23 65.7538 50.75 67.7138 56H36.4938Z"/>
</mask>
<path d="M24.5197 28C24.5197 20.197 23.9413 13.5236 22.7575 8.77082C22.1674 6.40131 21.4093 4.43508 20.4442 3.03865C19.4735 1.634 18.1952 0.679998 16.5897 0.679998V2.68C17.2942 2.68 18.0372 3.07349 18.7989 4.17572C19.5663 5.28617 20.252 6.98618 20.8168 9.25417C21.9431 13.7764 22.5197 20.263 22.5197 28H24.5197ZM16.5897 0.679998C14.9953 0.679998 13.7303 1.64137 12.7726 3.04304C11.819 4.43869 11.0681 6.40375 10.4827 8.77255C9.30819 13.5242 8.72969 20.1967 8.72969 28H10.7297C10.7297 20.2633 11.3062 13.7758 12.4242 9.25245C12.985 6.98375 13.6647 5.28256 14.424 4.17133C15.1791 3.06613 15.9091 2.68 16.5897 2.68V0.679998ZM8.72969 28C8.72969 36.6712 9.30725 43.6084 10.4821 48.4066C11.068 50.7993 11.8204 52.7381 12.7809 54.1009C13.7532 55.4805 15.0201 56.37 16.5897 56.37V54.37C15.8842 54.37 15.1562 53.9995 14.4157 52.9488C13.6633 51.8812 12.9851 50.2195 12.4247 47.9309C11.3071 43.3666 10.7297 36.6188 10.7297 28H8.72969ZM16.5897 56.37C18.1705 56.37 19.4506 55.4874 20.4358 54.1053C21.4079 52.7418 22.1675 50.8017 22.7581 48.4083C23.9422 43.609 24.5197 36.6709 24.5197 28H22.5197C22.5197 36.6191 21.9422 43.366 20.8163 47.9292C20.2518 50.217 19.5678 51.8776 18.8073 52.9444C18.06 53.9926 17.3189 54.37 16.5897 54.37V56.37ZM1.27969 28C1.27969 17.7858 2.95337 11.1085 5.67178 7.01026C8.34015 2.98742 12.0818 1.35 16.5897 1.35V-0.650001C11.5076 -0.650001 7.09422 1.24758 4.0051 5.90474C0.966006 10.4865 -0.720312 17.6342 -0.720312 28H1.27969ZM16.5897 1.35C21.1351 1.35 24.8937 2.98938 27.5696 7.01142C30.2959 11.1091 31.9697 17.7856 31.9697 28H33.9697C33.9697 17.6344 32.2835 10.4859 29.2348 5.90357C26.1357 1.24562 21.7042 -0.650001 16.5897 -0.650001V1.35ZM31.9697 28C31.9697 38.7468 30.2937 45.6889 27.5621 49.9187C24.8847 54.0647 21.1308 55.7 16.5897 55.7V57.7C21.7086 57.7 26.1447 55.8003 29.2422 51.0038C32.2857 46.2911 33.9697 38.8832 33.9697 28H31.9697ZM16.5897 55.7C12.0861 55.7 8.34909 54.0667 5.67924 49.9199C2.95556 45.6895 1.27969 38.7466 1.27969 28H-0.720312C-0.720312 38.8834 0.963815 46.2905 3.99763 51.0026C7.08529 55.7983 11.5032 57.7 16.5897 57.7V55.7ZM36.4938 56H35.4938V57H36.4938V56ZM36.4938 54.67L35.7146 54.0432L35.4938 54.3177V54.67H36.4938ZM41.0438 20.79V21.79H41.9683L42.0407 20.8683L41.0438 20.79ZM40.2038 20.79H39.2038V21.79H40.2038V20.79ZM36.7738 5.04L36.2232 4.20522L35.5766 4.63167L35.8278 5.36432L36.7738 5.04ZM40.3438 52.36L39.5857 51.7078L38.164 53.36H40.3438V52.36ZM65.7538 35.49V34.49H65.0006L64.7926 35.2138L65.7538 35.49ZM66.5238 35.49L67.5149 35.623L67.6669 34.49H66.5238V35.49ZM67.7138 56V57H69.1545L68.6506 55.6502L67.7138 56ZM37.4938 56V54.67H35.4938V56H37.4938ZM37.2729 55.2968C41.0492 50.6029 46.2484 43.2539 50.5091 35.2971C54.7523 27.3729 58.1438 18.7028 58.1438 11.41H56.1438C56.1438 18.1872 52.9552 26.4921 48.7459 34.3529C44.5541 42.1811 39.4283 49.4271 35.7146 54.0432L37.2729 55.2968ZM58.1438 11.41C58.1438 8.2599 57.5497 5.61446 56.3415 3.72295C55.1033 1.78441 53.2385 0.679998 50.9138 0.679998V2.68C52.509 2.68 53.7592 3.39559 54.656 4.79955C55.5828 6.25054 56.1438 8.4701 56.1438 11.41H58.1438ZM50.9138 0.679998C46.8648 0.679998 44.3234 3.45116 42.748 7.16991C41.1769 10.8784 40.4334 15.7911 40.0468 20.7117L42.0407 20.8683C42.4241 15.9889 43.1506 11.3466 44.5895 7.95008C46.0241 4.56383 48.0327 2.68 50.9138 2.68V0.679998ZM41.0438 19.79H40.2038V21.79H41.0438V19.79ZM41.2038 20.79C41.2038 14.9294 39.3937 9.59809 37.7197 4.71567L35.8278 5.36432C37.5138 10.2819 39.2038 15.3106 39.2038 20.79H41.2038ZM37.3243 5.87477C40.5322 3.75896 45.3082 1.35 51.2638 1.35V-0.650001C44.7593 -0.650001 39.5953 1.98103 36.2232 4.20522L37.3243 5.87477ZM51.2638 1.35C54.4648 1.35 58.0081 2.22024 60.7274 4.3487C63.4074 6.44649 65.3838 9.83918 65.3838 15.12H67.3838C67.3838 9.27082 65.1601 5.27851 61.9601 2.77379C58.7994 0.299756 54.7827 -0.650001 51.2638 -0.650001V1.35ZM65.3838 15.12C65.3838 22.3465 60.4107 29.9027 54.5561 36.5437C51.6534 39.8363 48.5849 42.8491 45.9046 45.4267C43.2508 47.9789 40.9212 50.1558 39.5857 51.7078L41.1018 53.0122C42.3563 51.5542 44.5767 49.4786 47.291 46.8683C49.9788 44.2834 53.0966 41.2237 56.0564 37.8663C61.9268 31.2073 67.3838 23.1535 67.3838 15.12H65.3838ZM40.3438 53.36H46.6438V51.36H40.3438V53.36ZM46.6438 53.36C53.5504 53.36 57.7986 52.181 60.7202 49.1914C63.5644 46.2811 64.984 41.7895 66.7149 35.7662L64.7926 35.2138C63.0235 41.3705 61.7131 45.3139 59.2898 47.7936C56.9439 50.194 53.3871 51.36 46.6438 51.36V53.36ZM65.7538 36.49H66.5238V34.49H65.7538V36.49ZM65.5326 35.357C65.1394 38.2885 64.9449 42.1615 65.0958 45.9683C65.2459 49.7564 65.741 53.5751 66.7769 56.3498L68.6506 55.6502C67.7265 53.1749 67.2416 49.6086 67.0942 45.8892C66.9476 42.1885 67.1381 38.4315 67.5149 35.623L65.5326 35.357ZM67.7138 55H36.4938V57H67.7138V55Z" fill="#F3D699" mask="url(#path-1-outside-1_61_2233)"/>
</svg>
