<svg width="66" height="65" viewBox="0 0 66 65" fill="none" xmlns="http://www.w3.org/2000/svg">
<path d="M23.2906 42.1687C21.6746 43.4325 20.3676 45.0478 19.4689 46.892C18.5703 48.7363 18.1036 50.761 18.1042 52.8125V56.875H9.97919C7.73127 56.875 5.91669 55.0604 5.91669 52.8125V50.1042C5.91669 44.8635 10.1552 40.625 15.3959 40.625H18.1042C20.0271 40.625 21.8011 41.1937 23.2906 42.1687Z" fill="#38769D"/>
<path d="M49.25 40.625C52.6155 40.625 55.3438 37.8967 55.3438 34.5312C55.3438 31.1658 52.6155 28.4375 49.25 28.4375C45.8845 28.4375 43.1562 31.1658 43.1562 34.5312C43.1562 37.8967 45.8845 40.625 49.25 40.625Z" fill="#38769D"/>
<path d="M16.75 40.625C20.1155 40.625 22.8438 37.8967 22.8438 34.5312C22.8438 31.1658 20.1155 28.4375 16.75 28.4375C13.3845 28.4375 10.6562 31.1658 10.6562 34.5312C10.6562 37.8967 13.3845 40.625 16.75 40.625Z" fill="#38769D"/>
<path d="M60.0834 50.1042V52.8125C60.0834 55.0604 58.2688 56.875 56.0209 56.875H47.8959V52.8125C47.8959 48.4927 45.8646 44.6469 42.7094 42.1687C44.199 41.1937 45.973 40.625 47.8959 40.625H50.6042C55.8448 40.625 60.0834 44.8635 60.0834 50.1042Z" fill="#38769D"/>
<path d="M33 41.9791C37.1134 41.9791 40.448 38.6445 40.448 34.5312C40.448 30.4178 37.1134 27.0833 33 27.0833C28.8867 27.0833 25.5521 30.4178 25.5521 34.5312C25.5521 38.6445 28.8867 41.9791 33 41.9791Z" fill="#38769D"/>
<path d="M34.3542 41.9791H31.6459C25.6727 41.9791 20.8126 46.8392 20.8126 52.8124V56.8749C20.8126 59.1147 22.6353 60.9374 24.8751 60.9374H41.1251C43.3648 60.9374 45.1876 59.1147 45.1876 56.8749V52.8124C45.1876 46.8392 40.3274 41.9791 34.3542 41.9791ZM52.6355 22.5929L49.3679 23.7547C49.1535 23.831 48.9238 23.8538 48.6986 23.8213C48.4735 23.7887 48.2596 23.7018 48.0756 23.5681C47.8915 23.4343 47.7429 23.2577 47.6424 23.0536C47.542 22.8495 47.4928 22.6239 47.4991 22.3965L47.5939 18.9298L45.4787 16.1809C45.3401 16.0005 45.2475 15.7891 45.2089 15.5649C45.1703 15.3407 45.1868 15.1105 45.2571 14.8941C45.3273 14.6778 45.4492 14.4818 45.6121 14.323C45.7751 14.1643 45.9742 14.0476 46.1923 13.9831L49.5195 13.0027L51.4804 10.1413C51.609 9.95361 51.7813 9.80009 51.9826 9.69401C52.1839 9.58793 52.408 9.53249 52.6355 9.53249C52.863 9.53249 53.0871 9.58793 53.2883 9.69401C53.4896 9.80009 53.662 9.95361 53.7906 10.1413L55.7514 13.0027L59.0786 13.9831C60.0224 14.2607 60.3921 15.4009 59.7922 16.1809L57.677 18.9298L57.7718 22.3965C57.7778 22.6238 57.7284 22.8492 57.6279 23.0531C57.5274 23.2571 57.3787 23.4336 57.1948 23.5672C57.0108 23.7009 56.7971 23.7879 56.5721 23.8205C56.347 23.8532 56.1174 23.8306 55.9031 23.7547L52.6355 22.5929ZM13.3646 22.5929L10.097 23.7547C9.88267 23.831 9.65296 23.8538 9.42779 23.8213C9.20262 23.7887 8.98876 23.7018 8.80473 23.5681C8.62069 23.4343 8.47202 23.2577 8.37158 23.0536C8.27114 22.8495 8.22195 22.6239 8.22828 22.3965L8.32307 18.9298L6.20786 16.1809C6.06927 16.0005 5.97668 15.7891 5.93806 15.5649C5.89945 15.3407 5.91599 15.1105 5.98624 14.8941C6.05649 14.6778 6.17835 14.4818 6.3413 14.323C6.50425 14.1643 6.70338 14.0476 6.92151 13.9831L10.2487 13.0027L12.2095 10.1413C12.3381 9.95361 12.5105 9.80009 12.7118 9.69401C12.913 9.58793 13.1371 9.53249 13.3646 9.53249C13.5921 9.53249 13.8162 9.58793 14.0175 9.69401C14.2188 9.80009 14.3911 9.95361 14.5197 10.1413L16.4806 13.0027L19.8078 13.9831C20.7516 14.2607 21.1213 15.4009 20.5214 16.1809L18.4062 18.9298L18.501 22.3965C18.507 22.6238 18.4576 22.8492 18.3571 23.0531C18.2565 23.2571 18.1079 23.4336 17.9239 23.5672C17.74 23.7009 17.5263 23.7879 17.3012 23.8205C17.0762 23.8532 16.8466 23.8306 16.6322 23.7547L13.3646 22.5929ZM33.0001 19.546L29.1258 20.9232C28.8717 21.0135 28.5994 21.0405 28.3325 21.0019C28.0655 20.9633 27.8121 20.8603 27.5939 20.7018C27.3757 20.5432 27.1995 20.3339 27.0804 20.0919C26.9613 19.85 26.9029 19.5827 26.9104 19.3131L27.0228 15.2032L24.5148 11.9437C24.3506 11.7298 24.2408 11.4792 24.1951 11.2134C24.1493 10.9476 24.169 10.6747 24.2523 10.4182C24.3356 10.1617 24.4801 9.92939 24.6733 9.74124C24.8665 9.55308 25.1026 9.41478 25.3612 9.33828L29.3059 8.17505L31.631 4.78286C31.7834 4.56026 31.9879 4.37818 32.2265 4.25236C32.4652 4.12654 32.7309 4.06079 33.0007 4.06079C33.2705 4.06079 33.5363 4.12654 33.7749 4.25236C34.0136 4.37818 34.218 4.56026 34.3705 4.78286L36.6956 8.17505L40.6403 9.33828C40.8989 9.41478 41.135 9.55308 41.3282 9.74124C41.5213 9.92939 41.6658 10.1617 41.7492 10.4182C41.8325 10.6747 41.8521 10.9476 41.8064 11.2134C41.7606 11.4792 41.6509 11.7298 41.4866 11.9437L38.9787 15.2032L39.0911 19.3131C39.0985 19.5827 39.0402 19.85 38.9211 20.0919C38.802 20.3339 38.6257 20.5432 38.4076 20.7018C38.1894 20.8603 37.9359 20.9633 37.669 21.0019C37.4021 21.0405 37.1298 21.0135 36.8757 20.9232L33.0001 19.546Z" fill="#38769D"/>
</svg>
