<svg width="26" height="26" viewBox="0 0 26 26" fill="none" xmlns="http://www.w3.org/2000/svg">
<g clip-path="url(#clip0_69_5037)">
<path d="M16.6987 14.0371L14.6049 16.138C13.7559 16.99 12.2619 17.0084 11.3945 16.138L9.30059 14.0371L1.78027 21.5818C2.06021 21.7113 2.36885 21.7885 2.69697 21.7885H23.3024C23.6306 21.7885 23.9391 21.7114 24.2189 21.5819L16.6987 14.0371Z" fill="#F3D699"/>
<path d="M23.3027 4.21094H2.69727C2.36914 4.21094 2.0605 4.28818 1.78066 4.41763L9.81665 12.4803C9.81719 12.4808 9.81782 12.4809 9.81836 12.4814C9.81869 12.4818 9.81891 12.4822 9.81899 12.4827L12.4319 15.1043C12.7095 15.3818 13.2906 15.3818 13.5682 15.1043L16.1806 12.4832C16.1806 12.4832 16.1812 12.482 16.1817 12.4814C16.1817 12.4814 16.1829 12.4808 16.1834 12.4803L24.2192 4.41758C23.9394 4.28809 23.6309 4.21094 23.3027 4.21094ZM0.733691 5.44199C0.588867 5.73486 0.5 6.05996 0.5 6.4082V19.5918C0.5 19.94 0.58877 20.2651 0.733643 20.558L8.26699 13.0002L0.733691 5.44199ZM25.2663 5.44189L17.7331 13.0002L25.2663 20.5581C25.4111 20.2652 25.5 19.9401 25.5 19.5918V6.4082C25.5 6.05986 25.4111 5.73477 25.2663 5.44189Z" fill="#F3D699"/>
</g>
<defs>
<clipPath id="clip0_69_5037">
<rect width="25" height="25" fill="white" transform="translate(0.5 0.5)"/>
</clipPath>
</defs>
</svg>
