<svg width="58" height="58" viewBox="0 0 58 58" fill="none" xmlns="http://www.w3.org/2000/svg">
<path d="M57.4838 26.7691C57.4664 26.2529 57.0817 25.7773 56.6235 25.584L27.8826 13.1198C32.0102 3.15732 19.8708 2.62179 15.5247 8.74659C11.0529 5.38452 5.17363 8.79492 7.26549 14.3726C5.27868 15.8285 3.63951 17.7069 2.46608 19.8726C1.29265 22.0383 0.614157 24.4373 0.479492 26.8967V37.416C0.479492 38.2164 1.12909 38.866 1.92949 38.866C3.28863 38.866 4.58396 39.4421 5.49456 40.4494C6.20658 41.1724 7.05528 41.7465 7.99127 42.1384C8.92726 42.5303 9.93184 42.7321 10.9466 42.7321C11.9613 42.7321 12.9659 42.5303 13.9019 42.1384C14.8378 41.7465 15.6865 41.1724 16.3986 40.4494C18.2778 38.3421 21.6437 38.344 23.5248 40.4494C24.9505 41.8961 26.8923 42.7173 28.9233 42.7325C30.9543 42.7477 32.9082 41.9557 34.3554 40.5306C34.7762 40.0463 35.2893 39.6507 35.8647 39.367C36.4402 39.0832 37.0664 38.9169 37.7068 38.8779C38.3472 38.8388 38.9889 38.9277 39.5946 39.1395C40.2002 39.3512 40.7576 39.6815 41.2342 40.1111C44.1574 43.4035 49.2807 43.6433 52.4204 40.5209C53.041 39.8965 53.7931 39.4112 54.6167 39.098V48.1151C54.6157 48.7075 54.3799 49.2754 53.961 49.6943C53.5421 50.1132 52.9742 50.349 52.3818 50.35H5.61443C5.022 50.349 4.45413 50.1132 4.03522 49.6943C3.61631 49.2754 3.38051 48.7075 3.37949 48.1151V44.7375C3.38336 42.8467 0.481426 42.8409 0.479492 44.7375V48.1151C0.482562 49.4753 1.02479 50.7788 1.98734 51.7399C2.94988 52.701 4.25421 53.2412 5.61443 53.2423H52.3779C53.738 53.2407 55.042 52.7003 56.0044 51.7393C56.9669 50.7783 57.5093 49.4751 57.5128 48.1151C57.4838 47.9759 57.567 26.889 57.4838 26.7691ZM22.9796 7.61752V7.61365C26.0227 7.22699 26.3842 9.62045 25.143 12.1744C24.0082 14.5331 21.9318 16.5051 19.3682 17.1798C19.6872 14.9004 19.111 12.5108 17.663 10.7089C18.2993 9.86621 19.0972 9.15878 20.0101 8.62799C20.923 8.0972 21.9325 7.75368 22.9796 7.61752ZM9.97023 11.1343C10.5058 10.0961 11.8359 10.2275 12.7678 10.5871C15.5286 11.4919 17.2666 14.6993 16.3232 17.4853C13.282 18.2567 8.72903 14.2044 9.97023 11.1343ZM8.66523 16.9304C13.0442 22.5661 22.4982 21.1973 26.3746 15.6447L49.0526 25.4583H3.54383C4.12035 22.0737 5.94845 19.0297 8.66523 16.9304ZM54.6032 36.1052C53.0932 36.4276 51.7059 37.1725 50.6031 38.2531C48.7162 40.3701 45.3367 40.3663 43.4498 38.2531C42.0232 36.8063 40.0804 35.9853 38.0486 35.9708C36.0168 35.9563 34.0624 36.7494 32.6154 38.1758C30.74 40.3431 27.32 40.3933 25.404 38.2531C23.9804 36.8076 22.041 35.9866 20.0122 35.9706C17.9834 35.9547 16.0313 36.7451 14.5851 38.1681C12.8142 40.1981 9.72083 40.4146 7.71789 38.5992C6.56072 37.3397 5.0417 36.4698 3.36983 36.1091V28.3564H54.6032V36.1052Z" fill="#41444B"/>
</svg>
