<svg width="58" height="58" viewBox="0 0 58 58" fill="none" xmlns="http://www.w3.org/2000/svg">
<path d="M47.6196 17.9902H10.3812M29.0004 48.0171L39.4592 56.8674H18.5416L29.0004 48.0171ZM29.0004 48.0171V36.3018M29.0004 36.1722L3.66211 11.5786H54.3387L29.0004 36.1722Z" stroke="#41444B" stroke-width="2.26562" stroke-miterlimit="10" stroke-linecap="round" stroke-linejoin="round"/>
<path d="M28.4056 25.4773C30.4828 25.4773 32.1666 23.8042 32.1666 21.7403C32.1666 19.6765 30.4828 18.0034 28.4056 18.0034C26.3284 18.0034 24.6445 19.6765 24.6445 21.7403C24.6445 23.8042 26.3284 25.4773 28.4056 25.4773Z" stroke="#41444B" stroke-width="2.26562" stroke-miterlimit="10" stroke-linecap="round" stroke-linejoin="round"/>
<path d="M10.031 5.83444C11.3377 5.83444 12.397 4.78194 12.397 3.48363C12.397 2.18531 11.3377 1.13281 10.031 1.13281C8.72433 1.13281 7.66504 2.18531 7.66504 3.48363C7.66504 4.78194 8.72433 5.83444 10.031 5.83444Z" stroke="#41444B" stroke-width="2.26562" stroke-miterlimit="10" stroke-linecap="round" stroke-linejoin="round"/>
<path d="M25.6871 19.0393L11.7998 5.24121M31.2978 24.6139L32.4512 25.76" stroke="#41444B" stroke-width="2.26562" stroke-miterlimit="10" stroke-linecap="round" stroke-linejoin="round"/>
</svg>
