<svg width="22" height="22" viewBox="0 0 22 22" fill="none" xmlns="http://www.w3.org/2000/svg">
<path d="M21.5625 20.678L16.6794 15.7955C18.181 14.093 19.008 11.9 19.0044 9.62988C19.0044 7.12551 18.0294 4.77113 16.2588 3.00051C14.4881 1.22988 12.1338 0.254883 9.63002 0.254883C7.12627 0.254883 4.77127 1.22988 3.00002 2.99988C1.22877 4.76988 0.254395 7.12488 0.254395 9.62926C0.254395 12.1336 1.22939 14.4874 3.00002 16.258C4.77064 18.0286 7.12502 19.0043 9.62939 19.0043C11.9231 19.0043 14.0856 18.1774 15.795 16.6786L20.6775 21.5611C20.7354 21.6194 20.8043 21.6656 20.8801 21.6971C20.9559 21.7287 21.0373 21.7449 21.1194 21.7449C21.2015 21.7449 21.2828 21.7287 21.3587 21.6971C21.4345 21.6656 21.5034 21.6194 21.5613 21.5611C21.6784 21.4439 21.7443 21.285 21.7443 21.1193C21.7443 20.9535 21.6784 20.7946 21.5613 20.6774L21.5625 20.678ZM3.88377 15.3749C2.34939 13.8399 1.50439 11.7999 1.50439 9.62988C1.50439 7.45988 2.34939 5.41926 3.88377 3.88426C5.41877 2.34988 7.45877 1.50488 9.62939 1.50488C11.8 1.50488 13.84 2.34988 15.375 3.88426C16.9094 5.41926 17.755 7.45926 17.755 9.62988C17.755 11.8005 16.9094 13.8399 15.375 15.3749C13.84 16.9093 11.8 17.7549 9.63002 17.7549C7.46002 17.7549 5.41815 16.9093 3.88377 15.3749Z" fill="#41444B"/>
</svg>
