<svg width="57" height="57" viewBox="0 0 57 57" fill="none" xmlns="http://www.w3.org/2000/svg">
<mask id="path-1-outside-1_61_2226" maskUnits="userSpaceOnUse" x="-1" y="-1" width="59" height="59" fill="black">
<rect fill="white" x="-1" y="-1" width="59" height="59"/>
<path d="M24.0353 28C24.0353 12.46 21.7253 1.68 17.1053 1.68C12.5553 1.68 10.2453 12.46 10.2453 28C10.2453 45.29 12.5553 55.37 17.1053 55.37C21.7253 55.37 24.0353 45.29 24.0353 28ZM0.795313 28C0.795313 7.42 7.51531 0.349999 17.1053 0.349999C26.7653 0.349999 33.4853 7.42 33.4853 28C33.4853 49.63 26.7653 56.7 17.1053 56.7C7.51531 56.7 0.795313 49.63 0.795313 28ZM37.5694 9.52C43.7294 7.49 47.1594 5.46 51.0794 1.05H51.4994V52.08C51.4994 54.74 52.7594 54.95 54.0894 54.95H56.8894V56H37.5694V54.95H40.3694C41.6994 54.95 42.9594 54.74 42.9594 52.08V11.34C42.9594 10.43 42.6794 10.01 41.5594 10.01H37.5694V9.52Z"/>
</mask>
<path d="M25.0353 28C25.0353 20.197 24.4569 13.5236 23.2732 8.77082C22.683 6.40131 21.9249 4.43508 20.9598 3.03865C19.9891 1.634 18.7108 0.679998 17.1053 0.679998V2.68C17.8098 2.68 18.5528 3.07349 19.3145 4.17572C20.082 5.28617 20.7676 6.98618 21.3325 9.25417C22.4588 13.7764 23.0353 20.263 23.0353 28H25.0353ZM17.1053 0.679998C15.5109 0.679998 14.2459 1.64137 13.2882 3.04304C12.3347 4.43869 11.5838 6.40375 10.9983 8.77255C9.82381 13.5242 9.24531 20.1967 9.24531 28H11.2453C11.2453 20.2633 11.8218 13.7758 12.9398 9.25245C13.5006 6.98375 14.1803 5.28256 14.9396 4.17133C15.6947 3.06613 16.4247 2.68 17.1053 2.68V0.679998ZM9.24531 28C9.24531 36.6712 9.82287 43.6084 10.9978 48.4066C11.5836 50.7993 12.3361 52.7381 13.2965 54.1009C14.2688 55.4805 15.5358 56.37 17.1053 56.37V54.37C16.3999 54.37 15.6718 53.9995 14.9313 52.9488C14.1789 51.8812 13.5007 50.2195 12.9404 47.9309C11.8228 43.3666 11.2453 36.6188 11.2453 28H9.24531ZM17.1053 56.37C18.6861 56.37 19.9662 55.4874 20.9515 54.1053C21.9235 52.7418 22.6832 50.8017 23.2737 48.4083C24.4578 43.609 25.0353 36.6709 25.0353 28H23.0353C23.0353 36.6191 22.4578 43.366 21.3319 47.9292C20.7675 50.217 20.0834 51.8776 19.3229 52.9444C18.5757 53.9926 17.8345 54.37 17.1053 54.37V56.37ZM1.79531 28C1.79531 17.7858 3.46899 11.1085 6.1874 7.01026C8.85578 2.98742 12.5974 1.35 17.1053 1.35V-0.650001C12.0232 -0.650001 7.60985 1.24758 4.52072 5.90474C1.48163 10.4865 -0.204687 17.6342 -0.204687 28H1.79531ZM17.1053 1.35C21.6508 1.35 25.4093 2.98938 28.0852 7.01142C30.8115 11.1091 32.4853 17.7856 32.4853 28H34.4853C34.4853 17.6344 32.7991 10.4859 29.7504 5.90357C26.6513 1.24562 22.2199 -0.650001 17.1053 -0.650001V1.35ZM32.4853 28C32.4853 38.7468 30.8093 45.6889 28.0778 49.9187C25.4003 54.0647 21.6464 55.7 17.1053 55.7V57.7C22.2242 57.7 26.6603 55.8003 29.7579 51.0038C32.8013 46.2911 34.4853 38.8832 34.4853 28H32.4853ZM17.1053 55.7C12.6018 55.7 8.86471 54.0667 6.19487 49.9199C3.47119 45.6895 1.79531 38.7466 1.79531 28H-0.204687C-0.204687 38.8834 1.47944 46.2905 4.51326 51.0026C7.60091 55.7983 12.0189 57.7 17.1053 57.7V55.7ZM37.5694 9.52L37.2564 8.57024L36.5694 8.79664V9.52H37.5694ZM51.0794 1.05V0.0499982H50.6303L50.332 0.385634L51.0794 1.05ZM51.4994 1.05H52.4994V0.0499982H51.4994V1.05ZM56.8894 54.95H57.8894V53.95H56.8894V54.95ZM56.8894 56V57H57.8894V56H56.8894ZM37.5694 56H36.5694V57H37.5694V56ZM37.5694 54.95V53.95H36.5694V54.95H37.5694ZM37.5694 10.01H36.5694V11.01H37.5694V10.01ZM37.8824 10.4698C44.1735 8.39653 47.7667 6.282 51.8268 1.71436L50.332 0.385634C46.5521 4.63799 43.2852 6.58347 37.2564 8.57024L37.8824 10.4698ZM51.0794 2.05H51.4994V0.0499982H51.0794V2.05ZM50.4994 1.05V52.08H52.4994V1.05H50.4994ZM50.4994 52.08C50.4994 53.5348 50.8412 54.6296 51.6709 55.2934C52.4522 55.9184 53.4325 55.95 54.0894 55.95V53.95C53.4163 53.95 53.1015 53.8766 52.9203 53.7316C52.7876 53.6254 52.4994 53.2852 52.4994 52.08H50.4994ZM54.0894 55.95H56.8894V53.95H54.0894V55.95ZM55.8894 54.95V56H57.8894V54.95H55.8894ZM56.8894 55H37.5694V57H56.8894V55ZM38.5694 56V54.95H36.5694V56H38.5694ZM37.5694 55.95H40.3694V53.95H37.5694V55.95ZM40.3694 55.95C41.0263 55.95 42.0065 55.9184 42.7878 55.2934C43.6176 54.6296 43.9594 53.5348 43.9594 52.08H41.9594C41.9594 53.2852 41.6712 53.6254 41.5384 53.7316C41.3572 53.8766 41.0425 53.95 40.3694 53.95V55.95ZM43.9594 52.08V11.34H41.9594V52.08H43.9594ZM43.9594 11.34C43.9594 10.8372 43.8955 10.1566 43.4008 9.64122C42.8996 9.11918 42.1954 9.01 41.5594 9.01V11.01C41.7843 11.01 41.9094 11.032 41.9706 11.0498C42.0223 11.0649 41.9977 11.0676 41.958 11.0263C41.919 10.9856 41.9195 10.9587 41.9306 11.0012C41.9442 11.0532 41.9594 11.1556 41.9594 11.34H43.9594ZM41.5594 9.01H37.5694V11.01H41.5594V9.01ZM38.5694 10.01V9.52H36.5694V10.01H38.5694Z" fill="#F3D699" mask="url(#path-1-outside-1_61_2226)"/>
</svg>
