<svg width="69" height="57" viewBox="0 0 69 57" fill="none" xmlns="http://www.w3.org/2000/svg">
<mask id="path-1-outside-1_61_2255" maskUnits="userSpaceOnUse" x="-1" y="-1" width="71" height="59" fill="black">
<rect fill="white" x="-1" y="-1" width="71" height="59"/>
<path d="M23.8146 28C23.8146 12.46 21.5046 1.68 16.8846 1.68C12.3346 1.68 10.0246 12.46 10.0246 28C10.0246 45.29 12.3346 55.37 16.8846 55.37C21.5046 55.37 23.8146 45.29 23.8146 28ZM0.574609 28C0.574609 7.42 7.29461 0.349999 16.8846 0.349999C26.5446 0.349999 33.2646 7.42 33.2646 28C33.2646 49.63 26.5446 56.7 16.8846 56.7C7.29461 56.7 0.574609 49.63 0.574609 28ZM52.4687 17.57C62.1987 17.57 68.4287 26.67 68.4287 37.1C68.4287 49.56 60.4487 56.7 51.6287 56.7C45.5387 56.7 40.7087 53.62 37.4887 51.31C38.6787 43.89 39.3087 39.9 40.0787 33.81H40.8487C40.8487 48.37 45.1887 55.37 51.0687 55.37C55.7587 55.37 58.9787 50.75 58.9787 37.1C58.9787 24.85 55.4087 19.25 51.4187 19.25C47.7087 19.25 43.6487 22.89 41.7587 25.2H40.4987L43.9987 1.05H66.1187C64.1587 6.3 65.2787 12.46 66.0487 18.2H65.2787C63.2487 8.96 60.9387 7.21 45.2587 7.21L42.8087 21.63C45.5387 19.6 48.0587 17.57 52.4687 17.57Z"/>
</mask>
<path d="M24.8146 28C24.8146 20.197 24.2362 13.5236 23.0525 8.77082C22.4623 6.40131 21.7042 4.43508 20.7391 3.03865C19.7684 1.634 18.4901 0.679998 16.8846 0.679998V2.68C17.5891 2.68 18.3321 3.07349 19.0938 4.17572C19.8613 5.28617 20.5469 6.98618 21.1118 9.25417C22.238 13.7764 22.8146 20.263 22.8146 28H24.8146ZM16.8846 0.679998C15.2902 0.679998 14.0252 1.64137 13.0675 3.04304C12.114 4.43869 11.3631 6.40375 10.7776 8.77255C9.60311 13.5242 9.02461 20.1967 9.02461 28H11.0246C11.0246 20.2633 11.6011 13.7758 12.7191 9.25245C13.2799 6.98375 13.9596 5.28256 14.7189 4.17133C15.474 3.06613 16.204 2.68 16.8846 2.68V0.679998ZM9.02461 28C9.02461 36.6712 9.60217 43.6084 10.7771 48.4066C11.3629 50.7993 12.1154 52.7381 13.0758 54.1009C14.0481 55.4805 15.3151 56.37 16.8846 56.37V54.37C16.1792 54.37 15.4511 53.9995 14.7106 52.9488C13.9582 51.8812 13.28 50.2195 12.7197 47.9309C11.602 43.3666 11.0246 36.6188 11.0246 28H9.02461ZM16.8846 56.37C18.4654 56.37 19.7455 55.4874 20.7308 54.1053C21.7028 52.7418 22.4625 50.8017 23.053 48.4083C24.2371 43.609 24.8146 36.6709 24.8146 28H22.8146C22.8146 36.6191 22.2371 43.366 21.1112 47.9292C20.5468 50.217 19.8627 51.8776 19.1022 52.9444C18.355 53.9926 17.6138 54.37 16.8846 54.37V56.37ZM1.57461 28C1.57461 17.7858 3.24829 11.1085 5.9667 7.01026C8.63507 2.98742 12.3767 1.35 16.8846 1.35V-0.650001C11.8025 -0.650001 7.38915 1.24758 4.30002 5.90474C1.26093 10.4865 -0.425391 17.6342 -0.425391 28H1.57461ZM16.8846 1.35C21.4301 1.35 25.1886 2.98938 27.8645 7.01142C30.5908 11.1091 32.2646 17.7856 32.2646 28H34.2646C34.2646 17.6344 32.5784 10.4859 29.5297 5.90357C26.4306 1.24562 21.9992 -0.650001 16.8846 -0.650001V1.35ZM32.2646 28C32.2646 38.7468 30.5886 45.6889 27.8571 49.9187C25.1796 54.0647 21.4257 55.7 16.8846 55.7V57.7C22.0035 57.7 26.4396 55.8003 29.5372 51.0038C32.5806 46.2911 34.2646 38.8832 34.2646 28H32.2646ZM16.8846 55.7C12.381 55.7 8.64401 54.0667 5.97416 49.9199C3.25048 45.6895 1.57461 38.7466 1.57461 28H-0.425391C-0.425391 38.8834 1.25874 46.2905 4.29256 51.0026C7.38021 55.7983 11.7982 57.7 16.8846 57.7V55.7ZM37.4887 51.31L36.5013 51.1516L36.4034 51.7621L36.9058 52.1225L37.4887 51.31ZM40.0787 33.81V32.81H39.1971L39.0866 33.6846L40.0787 33.81ZM40.8487 33.81H41.8487V32.81H40.8487V33.81ZM41.7587 25.2V26.2H42.2326L42.5326 25.8332L41.7587 25.2ZM40.4987 25.2L39.509 25.0566L39.3433 26.2H40.4987V25.2ZM43.9987 1.05V0.0499982H43.1332L43.009 0.906569L43.9987 1.05ZM66.1187 1.05L67.0555 1.39975L67.5594 0.0499982H66.1187V1.05ZM66.0487 18.2V19.2H67.1918L67.0398 18.067L66.0487 18.2ZM65.2787 18.2L64.302 18.4146L64.4745 19.2H65.2787V18.2ZM45.2587 7.21V6.21H44.4142L44.2728 7.0425L45.2587 7.21ZM42.8087 21.63L41.8228 21.4625L41.4053 23.9197L43.4054 22.4325L42.8087 21.63ZM52.4687 18.57C61.4243 18.57 67.4287 26.9703 67.4287 37.1H69.4287C69.4287 26.3697 62.9731 16.57 52.4687 16.57V18.57ZM67.4287 37.1C67.4287 49.0808 59.8261 55.7 51.6287 55.7V57.7C61.0713 57.7 69.4287 50.0392 69.4287 37.1H67.4287ZM51.6287 55.7C45.8741 55.7 41.2661 52.7892 38.0716 50.4975L36.9058 52.1225C40.1512 54.4508 45.2032 57.7 51.6287 57.7V55.7ZM38.4761 51.4684C39.6662 44.0473 40.2985 40.0432 41.0708 33.9354L39.0866 33.6846C38.3188 39.7568 37.6911 43.7327 36.5013 51.1516L38.4761 51.4684ZM40.0787 34.81H40.8487V32.81H40.0787V34.81ZM39.8487 33.81C39.8487 41.1667 40.9416 46.7357 42.8628 50.5042C44.7995 54.3031 47.6469 56.37 51.0687 56.37V54.37C48.6104 54.37 46.3479 52.9369 44.6446 49.5958C42.9258 46.2243 41.8487 41.0133 41.8487 33.81H39.8487ZM51.0687 56.37C52.4136 56.37 53.6942 56.0359 54.8412 55.2647C55.9816 54.4979 56.9282 53.3408 57.6817 51.791C59.174 48.7221 59.9787 43.9695 59.9787 37.1H57.9787C57.9787 43.8805 57.1734 48.2629 55.8831 50.9165C55.2454 52.2279 54.5076 53.0789 53.7252 53.605C52.9494 54.1266 52.0688 54.37 51.0687 54.37V56.37ZM59.9787 37.1C59.9787 30.8972 59.0777 26.2694 57.5983 23.1525C56.1228 20.0437 53.9589 18.25 51.4187 18.25V20.25C52.8684 20.25 54.4845 21.2563 55.7915 24.01C57.0946 26.7556 57.9787 31.0528 57.9787 37.1H59.9787ZM51.4187 18.25C49.2615 18.25 47.1134 19.2948 45.3333 20.5391C43.5325 21.7979 41.9791 23.3514 40.9847 24.5668L42.5326 25.8332C43.4282 24.7386 44.8499 23.3171 46.4791 22.1784C48.1289 21.0252 49.8658 20.25 51.4187 20.25V18.25ZM41.7587 24.2H40.4987V26.2H41.7587V24.2ZM41.4883 25.3434L44.9883 1.19343L43.009 0.906569L39.509 25.0566L41.4883 25.3434ZM43.9987 2.05H66.1187V0.0499982H43.9987V2.05ZM65.1818 0.700244C64.1362 3.50111 63.9266 6.50396 64.0609 9.48625C64.1948 12.4575 64.6772 15.4977 65.0576 18.333L67.0398 18.067C66.6501 15.1623 66.1876 12.2525 66.0589 9.39625C65.9307 6.55104 66.1412 3.84888 67.0555 1.39975L65.1818 0.700244ZM66.0487 17.2H65.2787V19.2H66.0487V17.2ZM66.2554 17.9854C65.2395 13.3616 64.0872 10.1995 60.883 8.37142C59.325 7.48252 57.3555 6.95175 54.8411 6.63562C52.3237 6.31912 49.1885 6.21 45.2587 6.21V8.21C49.1689 8.21 52.2024 8.31962 54.5916 8.62C56.9837 8.92074 58.6586 9.40497 59.8919 10.1086C62.2702 11.4655 63.2878 13.7984 64.302 18.4146L66.2554 17.9854ZM44.2728 7.0425L41.8228 21.4625L43.7945 21.7975L46.2445 7.3775L44.2728 7.0425ZM43.4054 22.4325C46.1598 20.3843 48.4312 18.57 52.4687 18.57V16.57C47.6861 16.57 44.9176 18.8157 42.212 20.8275L43.4054 22.4325Z" fill="#F3D699" mask="url(#path-1-outside-1_61_2255)"/>
</svg>
