<svg width="166" height="166" viewBox="0 0 166 166" fill="none" xmlns="http://www.w3.org/2000/svg">
<rect width="166" height="166" rx="83" fill="white"/>
<path fill-rule="evenodd" clip-rule="evenodd" d="M81.3938 34.4242C81.2024 34.6156 80.9878 35.0885 80.9171 35.4751C80.7324 36.4846 80.5093 36.7604 78.3737 38.619L76.4554 40.2884L75.4242 39.8361C74.8571 39.5872 73.8337 39.2017 73.1499 38.9794C71.9042 38.5745 71.7973 38.4982 70.9251 37.389C70.578 36.9478 70.3363 36.806 70.0002 36.8465C69.2827 36.9331 69.1354 37.3511 69.4138 38.511C69.729 39.8243 69.545 40.4584 68.1205 42.9645L67.0387 44.8683L64.565 44.8043C61.5685 44.7267 61.0133 44.5983 60.1484 43.7827C59.3781 43.0562 58.6829 42.8168 58.2901 43.1427C57.9292 43.442 57.9513 43.8516 58.379 44.7938C58.849 45.8292 58.833 47.1504 58.326 49.2219C57.8641 51.1077 57.7038 51.3605 56.7856 51.6515C56.4205 51.7671 55.4004 52.1821 54.5188 52.5739C52.6984 53.3824 52.3525 53.426 50.9658 53.0207C49.7512 52.6657 49.3238 52.6541 48.8988 52.9647C48.5983 53.1844 48.594 53.2471 48.8456 53.7338C48.9963 54.0251 49.2991 54.4261 49.5186 54.6245C50.0564 55.1111 50.3397 55.7043 50.5832 56.854C50.7223 57.5117 51.0096 58.0855 51.4879 58.6624C52.3924 59.7528 52.5193 60.0161 52.7555 61.2943C53.109 63.2055 52.6182 65.4377 50.9613 69.4539C49.0727 74.0321 48.4371 76.4688 48.4346 79.1423C48.4326 81.0922 48.8539 82.1778 49.9906 83.1518C50.3426 83.4535 50.3394 83.4104 49.916 82.1572C49.509 80.9527 49.482 80.6654 49.579 78.5867C49.7317 75.3213 50.2102 73.7018 52.5176 68.6401C53.3804 66.7479 53.3833 66.7349 53.3478 64.9505C53.3062 62.8682 53.4902 62.4322 54.538 62.1289C55.1902 61.9401 55.9794 62.0627 57.388 62.5711L57.7498 62.7016L57.388 62.4078C57.189 62.2459 56.5784 61.9915 56.0312 61.8423C53.7816 61.2283 53.4621 60.8679 52.7959 58.1922C52.5947 57.3844 52.2579 56.3857 52.0473 55.9729C51.8365 55.5602 51.6902 55.2016 51.722 55.1761C51.7539 55.1504 52.3091 55.0303 52.9558 54.9089C53.6025 54.7876 54.9765 54.2874 56.0093 53.7975C57.0419 53.3074 57.9634 52.9064 58.057 52.9064C58.1507 52.9064 58.6044 53.1708 59.0653 53.4942C59.5261 53.8175 59.97 54.1286 60.0518 54.1856C60.1334 54.2425 60.0762 54.5858 59.9248 54.9484C59.5512 55.8423 59.5784 57.1648 59.9954 58.3763C60.2984 59.2571 60.3094 59.4271 60.0842 59.7486C59.9427 59.9504 59.6493 60.1414 59.4322 60.1732C59.1561 60.2134 58.9901 60.4146 58.8795 60.8431C58.653 61.7218 58.8745 61.8379 60.148 61.5081C60.7483 61.3525 61.814 61.2254 62.5165 61.2254H63.7937L63.9147 60.581C63.9813 60.2266 63.9937 59.6245 63.9425 59.2429L63.8495 58.5494L64.87 58.4223C66.1306 58.2653 66.4457 58.1029 66.7932 57.4312C67.3231 56.4067 67.0778 55.0435 66.1955 54.1105C65.1796 53.0363 63.8217 52.669 62.3864 53.0806C61.6241 53.299 60.599 52.8276 59.9959 51.9809C59.6184 51.4508 59.6042 51.3407 59.8043 50.4847C59.9232 49.9765 60.158 48.7623 60.3261 47.7866C60.6097 46.1413 60.6586 46.0214 60.9999 46.1357C61.2024 46.2033 62.5219 46.3122 63.9324 46.3777C66.864 46.5137 67.0443 46.5961 67.5163 48.0165C67.7738 48.7911 67.7739 48.9708 67.5187 49.9393C66.9492 52.0995 67.9566 54.3532 69.4916 54.3532C70.0501 54.3532 70.187 54.1452 69.986 53.6023C69.7169 52.8744 70.0798 52.2366 70.9532 51.9033C71.9986 51.5041 72.6014 51.7832 73.2172 52.9515C73.5493 53.5819 73.7762 53.8098 74.0718 53.8101C74.523 53.8107 75.0262 53.0216 75.0262 52.3134C75.0262 51.3495 72.4402 48.2585 71.228 47.7736C70.8327 47.6156 70.1733 47.4325 69.7626 47.3669C69.1365 47.2667 68.9753 47.1504 68.7648 46.6466C68.399 45.7713 68.4404 45.5754 69.2127 44.5303C70.0461 43.4026 70.5257 42.4801 70.9456 41.1966C71.1165 40.6745 71.3106 40.2471 71.377 40.2471C71.6585 40.2471 75.4993 41.578 75.7178 41.7512C76.0916 42.0475 76.6334 43.2166 76.7581 43.9957C76.8566 44.6126 76.8141 44.7406 76.4263 44.9947C75.6129 45.5273 74.845 46.9075 74.8493 47.8284C74.8602 50.087 77.1512 52.1179 78.8754 51.3976C79.553 51.1148 80.5003 50.0159 80.9082 49.0399C81.2512 48.2194 81.253 46.8868 80.9122 46.2276C80.594 45.6125 79.6714 44.8063 79.1279 44.6685C78.8238 44.5913 78.6337 44.2538 78.2874 43.1765C78.0414 42.4108 77.8379 41.6925 77.8352 41.5802C77.8325 41.468 78.7771 40.5582 79.9344 39.5585L82.0383 37.7408L82.5575 38.29C82.843 38.592 83.6667 39.3237 84.3879 39.9162C85.109 40.5086 85.7684 41.1306 85.8531 41.2984C85.9499 41.4905 85.8799 42.0249 85.6637 42.7416C85.3607 43.7462 85.2045 43.9686 84.3306 44.6405C83.2142 45.4988 82.4423 46.8056 82.445 47.8329C82.447 48.5905 83.2945 50.1641 83.9986 50.7178C84.2647 50.9269 84.7912 51.1905 85.1685 51.3036C85.7865 51.4888 85.935 51.462 86.6626 51.0357C88.1732 50.1509 88.9115 48.8403 88.6987 47.4213C88.5554 46.4668 87.6328 44.832 87.1509 44.6792C86.6869 44.5319 86.691 44.4636 87.2355 43.2942C87.4834 42.7622 87.6869 42.2005 87.6878 42.046C87.6891 41.8493 88.3534 41.5384 89.9092 41.0062C91.1299 40.5888 92.2199 40.2471 92.3313 40.2471C92.4427 40.2471 92.584 40.5144 92.6453 40.841C92.7065 41.1678 93.2856 42.3475 93.9318 43.4628C95.1905 45.6353 95.3712 46.4003 94.7902 47.0973C94.549 47.3866 94.2076 47.4958 93.3572 47.5559C92.7434 47.5993 92.0435 47.764 91.802 47.9223C91.2444 48.2876 88.7199 51.5231 88.5777 52.0546C88.4344 52.5907 88.8089 54.0819 89.0869 54.0819C89.2087 54.0819 89.575 53.6361 89.901 53.0913C91.1129 51.0658 92.9359 51.5573 92.9359 53.9096C92.9359 54.6308 92.7669 54.5964 94.5807 54.2447C95.0373 54.1563 95.22 53.9649 95.574 53.2048C96.1793 51.9054 96.2712 51.2378 96.0124 50.0183C95.7992 49.0141 95.8117 48.9117 96.2645 47.9548C96.5267 47.4011 96.9229 46.8462 97.145 46.7218C97.3956 46.5815 98.3048 46.4911 99.5389 46.4835C100.633 46.4768 101.871 46.4039 102.289 46.3214C102.998 46.1816 103.054 46.2001 103.13 46.6003C103.501 48.5581 103.79 50.3979 103.79 50.8048C103.79 51.1365 103.524 51.5785 102.966 52.1754L102.141 53.0567L100.116 53.1171C98.2288 53.1735 98.039 53.2133 97.3156 53.704C96.8887 53.9933 96.6037 54.2782 96.6824 54.3369C96.761 54.3955 98.3404 54.4199 100.192 54.3908L103.559 54.3382L104.13 53.5428L104.702 52.7475L105.738 53.1019C106.309 53.2969 107.152 53.6895 107.613 53.9745C108.121 54.2888 109.046 54.6131 109.962 54.7986C110.793 54.967 111.797 55.2535 112.194 55.4356L112.916 55.7663L113.512 55.2435C114.336 54.5201 115.187 53.5307 115.187 53.2958C115.187 53.0249 114.58 52.7256 114.03 52.7256C113.778 52.7256 113.142 52.8963 112.616 53.105C111.367 53.6005 110.236 53.4806 109.003 52.7221C107.969 52.0861 106.469 51.4597 105.981 51.4597C105.71 51.4597 105.631 51.2598 105.538 50.3294C105.476 49.7078 105.305 48.8735 105.158 48.4757C104.771 47.4241 104.805 45.9775 105.237 45.13C105.67 44.2826 105.699 43.6284 105.323 43.2517C104.979 42.9085 104.612 43.0338 103.769 43.782C102.845 44.6014 102.16 44.7736 99.6088 44.8273C98.3764 44.8533 97.2353 44.937 97.073 45.0134C96.8366 45.1246 96.5855 44.8003 95.8067 43.3778C94.4048 40.817 94.3354 40.5817 94.4613 38.8222C94.5756 37.2239 94.4455 36.811 93.8272 36.811C93.6454 36.811 93.1915 37.176 92.8187 37.6218C92.2199 38.3379 91.9386 38.4994 90.4126 39.0033C89.4621 39.317 88.3704 39.7315 87.9865 39.9241L87.2882 40.2746L86.7202 39.6731C86.4075 39.3424 85.5298 38.5692 84.7696 37.9553C83.4573 36.8953 83.3649 36.7716 82.9465 35.5138C82.4618 34.0575 82.0499 33.7683 81.3938 34.4242ZM81.5902 41.1096C81.0243 41.2018 80.2725 42.1605 80.2725 42.79C80.2725 43.3512 81.0613 44.3657 81.5388 44.4191C82.1639 44.4891 82.4446 44.3777 82.9722 43.8502C83.6339 43.1886 83.6723 42.681 83.1218 41.8744C82.6843 41.2333 82.2283 41.0056 81.5902 41.1096ZM81.4786 42.1762C81.4122 42.2424 81.3579 42.4459 81.3579 42.6283C81.3579 42.8761 81.4951 42.9598 81.9007 42.9598C82.4696 42.9598 82.6123 42.6586 82.2263 42.2726C81.986 42.0325 81.6638 41.9909 81.4786 42.1762ZM71.9653 43.5753C71.1771 44.5247 71.4877 45.8923 72.6358 46.5276C73.7322 47.1343 74.4835 46.5639 74.4835 45.1246C74.4835 44.3327 73.5217 43.3215 72.7684 43.3215C72.4426 43.3215 72.0813 43.4357 71.9653 43.5753ZM90.1078 43.642C88.8534 44.6578 89.1135 46.7576 90.4938 46.7576C91.4116 46.7576 92.0451 46.125 92.1616 45.0926C92.2437 44.3634 92.1951 44.1921 91.7902 43.7874C91.2513 43.2487 90.657 43.1973 90.1078 43.642ZM72.618 44.5234C72.3861 44.7551 72.4919 45.2716 72.7951 45.3879C73.2244 45.5525 73.5312 45.2005 73.2906 44.8193C73.0692 44.4683 72.7941 44.3473 72.618 44.5234ZM90.4633 44.8728C90.3321 45.2143 90.828 45.7668 91.1095 45.5928C91.406 45.4096 91.3484 44.8226 91.0216 44.6972C90.6187 44.5426 90.5861 44.5529 90.4633 44.8728ZM84.8111 46.1456C84.0386 47.1273 83.9946 48.452 84.6987 49.5262C85.1653 50.238 85.8768 50.1805 86.5854 49.3736C87.065 48.8278 87.1469 48.592 87.1469 47.7599C87.1469 46.913 87.0742 46.7126 86.5903 46.229C85.9063 45.5452 85.3057 45.517 84.8111 46.1456ZM77.035 46.4927C76.3879 47.2293 76.2837 48.2172 76.7566 49.1312C77.0967 49.789 78.0329 50.2433 78.5157 49.9848C79.4259 49.498 79.8226 47.8112 79.2757 46.754C78.7203 45.6805 77.8386 45.5778 77.035 46.4927ZM63.1435 48.5605C62.6004 48.7887 62.3314 49.3607 62.3976 50.1472C62.4604 50.8922 63.0329 51.3398 64.1953 51.5524C64.7401 51.6521 64.9192 51.6007 65.2505 51.2497C65.5669 50.9142 65.6304 50.6807 65.5573 50.1208C65.4003 48.9166 64.1775 48.1261 63.1435 48.5605ZM98.856 48.5831C98.3851 48.8571 97.765 50.2773 97.913 50.743C98.0968 51.3222 99.1303 51.6955 99.9351 51.4732C100.714 51.2584 101.438 50.622 101.438 50.1532C101.438 49.6577 100.946 48.7864 100.544 48.5715C100.102 48.3352 99.2723 48.3408 98.856 48.5831ZM99.2073 49.591C98.9935 49.8047 99.0787 50.3238 99.3671 50.563C99.7582 50.8875 100.26 50.393 100.088 49.8523C99.9722 49.4873 99.4622 49.336 99.2073 49.591ZM63.5833 49.8772C63.463 50.2348 63.6491 50.7363 63.9024 50.7363C64.1426 50.7363 64.3528 50.3496 64.3528 49.9076C64.3528 49.5915 63.6884 49.5651 63.5833 49.8772ZM133.73 50.8925C132.174 51.6002 130.647 53.6795 129.861 56.1617C128.956 59.0178 128.519 61.8855 128.476 65.2628L128.434 68.4866L127.676 69.8939C126.946 71.2508 125.966 72.4529 125.3 72.809C125.07 72.9323 124.896 72.8944 124.674 72.6726C124.089 72.088 124.41 69.9133 125.657 66.0178L126.757 62.5817L126.379 62.2653C125.772 61.7565 125.311 61.8866 124.411 62.8206L123.57 63.6925L123.163 62.9847C121.934 60.8512 118.096 61.2731 115.819 63.7918C114.73 64.9966 113.78 66.9649 113.538 68.5153C113.389 69.4749 113.409 69.9265 113.641 70.8318C114.213 73.0631 115.09 73.8834 116.906 73.8834C118.073 73.8834 118.605 73.6465 119.999 72.5037C120.888 71.776 120.976 71.7617 120.976 72.3448C120.976 72.6764 120.703 73.0092 119.936 73.6138C118.781 74.5238 117.799 74.8714 116.774 74.7339C115.997 74.6298 115.861 74.8911 116.556 75.1551C118.047 75.7221 120.221 75.0624 120.9 73.8366L121.277 73.1555L121.624 73.5385C122.272 74.2552 122.852 74.4395 123.857 74.2489C125.729 73.8941 126.825 73.0794 128.002 71.1673C128.958 69.6143 128.948 69.616 129.578 70.8949C130.541 72.8526 132.632 74.1041 134.996 74.1379C136.519 74.1596 137.573 73.8004 139.282 72.6772C141.02 71.5351 143.178 68.9868 143.503 67.6934C143.629 67.1919 143.025 65.5657 142.713 65.5657C142.617 65.5657 142.233 66.0263 141.86 66.5891C140.806 68.1766 139.257 69.6158 137.915 70.2564C135.946 71.1955 133.683 71.1946 132.487 70.254C131.92 69.8075 131.889 69.6185 132.366 69.4939C133.406 69.2219 137.978 60.0123 138.968 56.1953C139.317 54.8489 139.329 53.0446 138.993 52.4001C138.854 52.1315 138.541 51.7266 138.299 51.5003L137.858 51.0889L138.139 52.168C138.495 53.5345 138.269 55.0408 137.328 57.575C136.007 61.1299 131.9 69.221 131.631 68.7969C131.304 68.2819 131.503 67.6594 132.624 65.6863C137.362 57.3424 138.568 52.62 136.396 50.9122C135.821 50.4597 134.7 50.4516 133.73 50.8925ZM81.3294 50.9224C81.1642 51.0186 80.6555 51.7884 80.1987 52.6332C79.2679 54.3537 79.1409 55.2113 79.7298 55.8C80.1658 56.2358 80.3564 56.2449 81.3804 55.8783C81.8599 55.7067 82.4367 55.6358 82.8435 55.6985C83.3875 55.7824 83.5507 55.7354 83.7028 55.4511C84.1725 54.574 83.6435 52.7505 82.564 51.5246C81.8165 50.6757 81.7813 50.6585 81.3294 50.9224ZM135.003 53.4748C134.334 54.2691 133.773 55.4303 133.033 57.5558C132.13 60.1503 131.135 65.0883 131.474 65.2975C131.729 65.455 134.406 59.2999 135.466 56.1217C136.04 54.3991 136.165 52.9064 135.736 52.9064C135.596 52.9064 135.266 53.1621 135.003 53.4748ZM62.0955 54.5113C61.3923 54.6619 61.1702 55.2723 61.4457 56.2957C61.6763 57.1516 61.9922 57.3111 63.4626 57.3144C65.1141 57.3182 65.9461 56.5706 65.4649 55.515C65.0309 54.5624 63.7034 54.1671 62.0955 54.5113ZM94.9258 55.6218C88.3125 56.087 83.8271 57.006 79.6846 58.7447L77.9207 59.4849V60.1455C77.9207 60.5089 77.7995 61.2057 77.6514 61.694C77.3145 62.804 77.3133 62.7868 77.7008 62.4362C78.3873 61.8151 82.0313 60.4742 84.6142 59.8922C86.5767 59.45 89.8245 58.8914 92.2123 58.5852C94.9875 58.2295 105.759 58.1747 109.217 58.4989C110.461 58.6154 112.333 58.7847 113.378 58.8747C114.423 58.9648 116.092 59.1263 117.087 59.2335C119.366 59.4793 126.296 59.7632 127.092 59.6435C127.748 59.5451 128.144 59.0818 128.318 58.2087L128.43 57.6522L127.371 58.0125C126.443 58.3284 125.99 58.3613 123.69 58.2798C121.963 58.2186 120.201 58.0229 118.534 57.7072C111.933 56.457 109.144 55.99 107.227 55.8139C104.247 55.5399 97.5727 55.4358 94.9258 55.6218ZM55.4416 55.9157C54.2442 56.4192 54.3609 57.7159 55.682 58.5901C56.5404 59.1579 57.3453 59.1883 57.8612 58.6726C58.6509 57.8832 57.8243 55.9911 56.5739 55.7256C56.3252 55.673 55.8157 55.7584 55.4416 55.9157ZM56.0312 57.1319C56.0312 57.4887 56.7537 58.3539 56.9502 58.2326C57.2257 58.0622 57.1381 57.503 56.7857 57.1844C56.3843 56.821 56.0312 56.7966 56.0312 57.1319ZM72.8693 57.3386C71.8374 57.803 70.5156 58.9073 69.7027 59.9841C68.7201 61.2858 67.3694 63.9025 66.9732 65.2718L66.6657 66.3343L65.7355 66.2242C63.7911 65.9941 60.6508 65.04 57.388 63.6878C56.791 63.4404 55.8845 63.1829 55.3734 63.1154C54.5722 63.0096 54.3915 63.0454 54.0618 63.3749C53.2923 64.1443 53.8229 65.8666 55.1183 66.8049C55.6674 67.2026 56.1774 67.3648 57.42 67.5371C58.2979 67.6588 59.6267 67.9182 60.3729 68.1135C61.1191 68.3086 62.5031 68.5557 63.4483 68.6624C66.0987 68.9613 66.0381 68.9405 65.9055 69.5075C65.8426 69.7764 65.717 71.0951 65.6264 72.4379C65.4413 75.1828 65.2706 75.9232 64.5164 77.2528C63.9036 78.3326 62.5242 79.6718 62.0244 79.6718C61.575 79.6718 61.4583 79.3352 61.4583 78.0395C61.4583 77.2542 61.7161 76.1691 62.453 73.8534C62.9998 72.1341 63.4946 70.4763 63.5521 70.1695C63.8295 68.6913 62.1107 69.0987 60.9847 70.7779L60.2962 71.8049L60.1629 70.9007C59.9132 69.2054 58.1973 68.2088 56.2257 68.6137C54.0541 69.0595 52.3029 70.6945 51.2247 73.2832C50.7623 74.3936 50.7099 74.7298 50.7026 76.6267C50.6947 78.6845 50.7077 78.7543 51.2372 79.5041C52.2647 80.9591 54.049 81.418 55.5789 80.6212C55.9769 80.4138 56.6649 79.8718 57.1079 79.4166L57.9131 78.5891L58.1548 79.5329C58.2876 80.0519 58.5765 80.6702 58.7967 80.907C59.1569 81.2943 59.3097 81.3287 60.3204 81.2495C61.0737 81.1904 61.7018 81.0104 62.2263 80.7032C63.3559 80.0413 64.668 78.5578 65.2422 77.2933L65.74 76.1968L65.9676 76.746C66.2111 77.3338 67.0955 77.8633 67.8334 77.8633C68.544 77.8633 69.5654 76.9699 69.7977 76.1453C70.1749 74.8063 70.3444 74.4771 70.968 73.8729C71.3846 73.4693 71.589 73.1043 71.589 72.7641C71.589 72.0015 70.9669 72.1073 70.0523 73.0257C69.3907 73.6899 69.2588 73.9559 69.0812 74.9846C68.9681 75.6393 68.8755 76.3512 68.8755 76.567C68.8755 77.1218 68.3649 77.0602 68.2213 76.488C68.0153 75.6673 68.2958 73.7217 68.7349 72.926C69.3997 71.721 70.9998 71.0248 71.9438 71.5299C73.3084 72.26 72.6965 77.2839 70.9671 79.5506C70.4114 80.2789 70.379 80.8131 70.8609 81.2949C71.4304 81.8642 71.9966 81.9101 73.0202 81.47C75.3662 80.461 76.8047 77.4412 76.2924 74.6008C75.8924 72.3829 74.5034 70.4994 73.0294 70.1759C72.1453 69.9816 70.5845 70.4186 69.4621 71.1745C68.8908 71.5594 68.4015 71.8142 68.3751 71.7406C68.3487 71.6671 68.6072 70.9598 68.9496 70.1688C69.5374 68.811 69.63 68.6991 70.6033 68.167C73.0667 66.821 75.3578 64.7042 76.3765 62.8328C76.7653 62.1188 76.9145 61.5619 76.9768 60.5922C77.0698 59.1431 76.8727 58.5901 75.9509 57.7141C75.2701 57.067 73.856 56.8946 72.8693 57.3386ZM26.2214 58.4318C23.0879 59.2751 20.467 61.4288 19.1956 64.2054C18.6056 65.4934 18.5051 67.4711 18.9837 68.3688C19.7651 69.8343 21.6058 70.6229 23.0042 70.0914C23.6934 69.8294 23.573 69.6082 22.5568 69.2707C22.0318 69.0964 21.526 68.7859 21.3636 68.5381C20.9981 67.9804 21.011 66.517 21.3923 65.3055C21.9576 63.5082 24.0019 61.2833 25.9104 60.3875C26.9747 59.888 27.2347 59.8663 27.7591 60.2334C28.6703 60.8717 28.4798 63.1335 27.0791 68.305C25.8945 72.6786 25.7518 73.5024 26.0112 74.4657C26.2628 75.3998 27.1348 76.2655 28.1218 76.561C29.4965 76.9728 29.537 76.9419 29.5517 75.4671C29.5613 74.5041 29.698 73.7957 30.0671 72.7996C31.519 68.8792 34.4559 64.2587 36.0048 63.4579C36.4769 63.214 36.5694 63.2131 36.8074 63.4511C37.2114 63.8551 37.2888 65.166 36.9748 66.2891C36.8219 66.8362 36.1207 68.9416 35.4168 70.968C33.42 76.7149 32.6387 80.2917 33.0479 81.811C33.4511 83.3084 34.9725 84.3738 36.7072 84.3738C37.2995 84.3738 37.2979 84.3818 36.9384 83.1983C36.7108 82.4492 36.6989 82.0628 36.8679 80.9459C37.6977 75.4665 42.4025 65.1955 45.6208 61.8377C46.9875 60.4119 48.0856 60.9107 47.7993 62.8272C47.7345 63.2605 47.3132 64.6846 46.8629 65.992C44.0912 74.0402 43.5963 75.9619 43.4328 79.3101C43.2584 82.8802 44.0656 85.3934 46.0036 87.3155C47.262 88.5635 48.7136 89.2869 51.2511 89.9309L53.2271 90.4322L59.8302 90.4221C66.7838 90.4114 66.4273 90.4367 76.2926 89.2565C78.7303 88.965 84.1846 88.3165 88.4133 87.8155C92.6419 87.3144 98.5847 86.5847 101.619 86.1937C113.738 84.6322 118.116 84.302 125.047 84.4264C129.218 84.5015 130.695 84.595 132.256 84.8834C134.55 85.307 136.422 86.1465 136.991 87.0071L137.356 87.5605L138.076 87.0411C139.999 85.6528 140.924 84.1577 140.948 82.3975C140.966 81.0806 140.412 80.1762 139.038 79.2779C137.86 78.5082 136.894 78.121 135.202 77.7396C133.389 77.3313 127.111 77.3409 123.147 77.7582C117.53 78.3496 103.257 80.5386 90.6762 82.738C84.0664 83.8937 81.7161 84.2347 75.7499 84.9044C65.9618 86.0029 65.1173 86.0667 60.192 86.0794C54.7795 86.0935 53.5767 85.9284 51.2766 84.8554C48.7839 83.6926 47.8738 82.3183 47.7435 79.5204C47.6077 76.6014 48.1189 74.405 50.0658 69.5444C51.6869 65.497 51.9583 64.4859 51.9597 62.4913C51.961 60.4515 51.6509 59.6533 50.5463 58.8534C48.4567 57.3401 45.1287 59.1435 42.8222 63.0389C42.2934 63.9318 41.8325 64.6336 41.7975 64.5987C41.7626 64.5638 41.6092 64.0551 41.4565 63.4681C40.9448 61.5015 39.5713 60.6317 37.6022 61.027C37.06 61.1359 36.2754 61.4247 35.8584 61.669C34.9468 62.2031 33.2326 64.0169 32.3792 65.3507C32.0384 65.8833 31.72 66.2797 31.6717 66.2314C31.6236 66.1831 31.671 65.6731 31.7774 65.098C32.7183 60.0105 30.4533 57.2931 26.2214 58.4318ZM31.95 59.5571C32.2555 60.1557 32.5911 61.5424 32.7374 62.8111C32.7818 63.1952 32.8172 63.1805 33.2935 62.5807L33.8022 61.9399L33.3677 60.995C32.914 60.0083 32.0598 58.8744 31.7701 58.8744C31.6773 58.8744 31.7584 59.1816 31.95 59.5571ZM74.1423 59.337C73.5374 59.8459 72.2124 61.6719 71.3861 63.1357C70.6867 64.3743 69.9424 66.2891 70.1604 66.2891C70.7136 66.2891 72.7175 65.0129 73.6738 64.0515C75.4058 62.3101 76.0983 60.5601 75.5398 59.335C75.2734 58.7501 74.8392 58.7507 74.1423 59.337ZM74.5731 60.0217C74.4741 60.1555 73.8773 60.9449 73.247 61.7762C72.0417 63.3657 70.9215 65.321 71.4832 64.855C71.9064 64.504 73.9582 62.0123 74.5438 61.1382C75.0067 60.4472 75.1768 59.7786 74.8897 59.7786C74.8146 59.7786 74.672 59.888 74.5731 60.0217ZM26.0121 61.1632C23.9319 62.1996 22.0506 64.7009 21.7471 66.8344C21.6067 67.8209 22.0528 68.5289 22.9246 68.7032C23.542 68.8268 24.3727 69.5614 24.3727 69.984C24.3727 70.6573 22.3014 71.2787 21.0204 70.9899C20.0375 70.7683 20.0097 70.9173 20.9538 71.3456C21.7661 71.714 22.9818 71.8058 24.2575 71.5952C24.8301 71.5006 25.0019 71.3711 25.2073 70.8795C25.3453 70.5495 25.4582 70.1659 25.4582 70.0274C25.4582 69.8889 24.9677 69.5143 24.3684 69.195C22.9922 68.4616 22.6652 67.9914 22.8189 66.9667C23.0592 65.365 24.8883 63.0357 26.6319 62.111C27.2969 61.7583 27.4481 61.586 27.4481 61.1805C27.4481 60.5579 27.2323 60.5554 26.0121 61.1632ZM92.8454 61.2154C92.3438 61.4207 91.9138 61.9338 91.586 62.7181C90.6324 64.9995 92.3235 67.1834 95.2831 67.4926C95.8827 67.5554 96.3731 67.6659 96.3731 67.7384C96.3731 67.8108 96.0149 68.6779 95.5769 69.6652C94.5165 72.0561 94.2022 73.177 94.2022 74.5683C94.2022 76.5211 94.8819 77.4984 96.3371 77.6382C98.0018 77.798 99.6451 76.7451 99.9264 75.3385L100.04 74.7725L99.3716 75.1665C98.8242 75.4893 98.6246 75.5248 98.267 75.3618C97.3033 74.9229 97.4513 73.2362 98.7021 70.4043C99.6068 68.3562 100.103 66.428 99.8763 65.8386C99.7493 65.5077 99.4494 65.5097 96.8818 65.8571C95.5402 66.0386 94.0984 65.788 93.4768 65.2652C93.0272 64.887 92.9359 64.676 92.9359 64.0153C92.9359 63.0445 93.7024 62.0186 94.2661 62.2349C94.561 62.3479 94.5863 62.4962 94.4799 63.4885C94.3813 64.4103 94.4097 64.6331 94.6377 64.7204C95.0357 64.8731 95.4686 64.1678 95.4686 63.3672C95.4686 61.5757 94.3024 60.6194 92.8454 61.2154ZM96.1115 61.994C96.2604 62.419 96.2971 63.9482 96.1735 64.5711C96.0666 65.1094 96.8253 65.1686 97.1063 64.6436C97.4241 64.0499 97.1942 62.528 96.7085 62.0112C96.2012 61.4712 95.9257 61.4634 96.1115 61.994ZM45.9367 62.5682C42.7475 66.1992 38.1548 76.2749 37.604 80.8487C37.416 82.4093 37.6984 84.0698 38.1668 84.1591C38.4468 84.2125 38.4834 84.0535 38.4834 82.7827C38.4834 79.1434 41.4144 71.7586 45.3333 65.5239C46.9233 62.9944 47.3327 61.9488 46.7334 61.9488C46.5944 61.9488 46.2359 62.2275 45.9367 62.5682ZM109.76 63.0198C109.76 63.1152 109.843 63.2444 109.944 63.3068C110.044 63.3692 110.308 63.7605 110.529 64.1765C110.88 64.8358 110.931 65.2109 110.933 67.1029C110.936 69.006 110.874 69.4512 110.437 70.7199C109.906 72.259 108.958 74.0655 108.682 74.0655C108.28 74.0655 108.32 73.6055 108.826 72.3867C109.124 71.6689 109.489 70.5933 109.638 69.9965C110.002 68.5359 110.208 66.1083 109.969 66.1083C109.867 66.1083 109.728 66.2855 109.659 66.5023C109.444 67.1814 107.08 71.1684 106.207 72.3261C105.747 72.9347 105.295 73.6498 105.202 73.9154C104.835 74.9538 103.884 74.6468 104.017 73.5331C104.059 73.1794 104.31 72.1688 104.575 71.2874C104.937 70.0815 105.057 69.2935 105.057 68.1044C105.057 66.6463 105.016 66.468 104.53 65.7974C104.002 65.0693 103.27 64.4653 102.639 64.2367C102.339 64.1282 102.315 64.1837 102.419 64.7362C102.591 65.6565 102.241 67.4966 101.439 69.8744C100.173 73.632 100.11 74.6536 101.084 75.672C102.338 76.9842 104.405 76.7173 105.716 75.0736L106.214 74.4504L106.766 75.0889C107.21 75.6022 107.483 75.746 108.158 75.8221C108.951 75.9114 109.045 75.8733 109.844 75.1372C110.31 74.7084 110.89 74.0163 111.135 73.5991C111.688 72.6556 112.59 70.2082 112.939 68.7023C113.442 66.5349 112.661 64.0444 111.256 63.337C110.548 62.9805 109.76 62.8132 109.76 63.0198ZM120.836 63.4167C118.215 64.7139 116.198 69.6599 117.47 71.6693C118.186 72.7989 119.575 71.4823 121.292 68.0478C122.404 65.8231 122.791 64.6172 122.458 64.4117C122.225 64.268 120.403 66.2406 119.759 67.3333C119.483 67.8019 119.037 68.8371 118.768 69.6335C118.499 70.43 118.214 71.0622 118.135 71.0387C118.056 71.0152 117.967 70.5817 117.936 70.0755C117.84 68.4667 118.656 66.605 120.138 65.0539C121.105 64.0415 121.812 63.656 122.165 63.9489C122.374 64.122 122.423 64.0963 122.423 63.8155C122.423 63.437 122.101 63.0339 121.799 63.034C121.695 63.034 121.261 63.2064 120.836 63.4167ZM126.711 65.1546C125.55 68.5459 124.939 72.0469 125.544 71.8529C125.926 71.7303 126.728 70.0719 127.14 68.5497C127.57 66.9653 127.727 63.935 127.386 63.8162C127.28 63.7793 126.976 64.3815 126.711 65.1546ZM35.3685 65.0047C33.56 67.0154 31.7032 70.3334 30.6836 73.3752C30.2373 74.7074 30.1411 75.262 30.1907 76.2205L30.2522 77.4112L29.2809 77.4665C28.7467 77.4971 28.0751 77.4403 27.7884 77.3403C27.0585 77.086 27.1393 77.2486 27.9456 77.6568C28.8937 78.1366 29.5786 78.2505 30.5235 78.0856L31.3376 77.9436L31.3539 76.4115C31.3669 75.1651 31.4751 74.599 31.9331 73.3761C32.6235 71.5335 33.7321 69.4792 35.3027 67.1315C36.4377 65.4348 36.7702 64.4922 36.3295 64.2199C36.2392 64.1642 35.8069 64.5173 35.3685 65.0047ZM144.169 66.4544L144.516 67.5239L144.072 68.3985C142.971 70.5679 140.81 72.8123 138.736 73.9409C137.056 74.8549 134.899 75.1918 133.396 74.7748C132.25 74.4565 132.449 74.72 133.665 75.1305C135.049 75.5978 137.06 75.6365 138.289 75.2195C141.479 74.1368 146.078 69.0382 145.41 67.3241C145.198 66.7792 144.167 65.3849 143.976 65.3849C143.892 65.3849 143.979 65.8661 144.169 66.4544ZM82.5338 65.8916C80.5925 66.5658 79.2712 67.8366 78.2375 70.0241C77.6933 71.1754 77.6521 71.3968 77.6508 73.1721C77.6496 74.9399 77.6897 75.1606 78.1921 76.1397C78.771 77.2681 79.4702 77.7852 80.683 77.982C81.7156 78.1496 83.1446 77.6185 84.148 76.6943C84.6379 76.2431 85.0641 75.874 85.0954 75.874C85.1266 75.874 85.2631 76.1398 85.399 76.4646C85.5347 76.7894 85.9347 77.3087 86.2878 77.6186C86.9079 78.163 86.9626 78.1762 87.8908 78.0076C89.1372 77.7812 89.605 77.5275 90.8137 76.4232C91.8774 75.4514 92.0314 75.368 92.0314 75.764C92.0314 76.1943 90.3938 77.8613 89.4258 78.4163C88.3968 79.0063 87.6077 79.088 87.0063 78.6668C86.4584 78.2832 86.4872 78.667 87.0483 79.2278C87.3922 79.5718 87.6817 79.6718 88.3324 79.6718C89.3818 79.6718 90.1695 79.3041 91.3029 78.2856C92.3129 77.3777 92.6689 76.5392 92.4979 75.4709C92.4142 74.947 92.4639 74.6175 92.6757 74.2945C93.1363 73.5915 94.9389 68.9884 94.8254 68.8047C94.544 68.3495 94.165 68.8886 92.8121 71.6693C91.1681 75.0481 90.4944 76.0858 89.6667 76.5137C89.1412 76.7853 89.0797 76.7828 88.7373 76.475C88.4174 76.1874 88.3832 75.9952 88.4697 74.9698C88.573 73.7453 89.06 72.2298 90.5416 68.5226L91.4197 66.3253L90.7759 66.2188C90.4217 66.1602 89.8256 66.1113 89.4511 66.1102C88.8228 66.1084 88.74 66.171 88.3749 66.9221C88.0109 67.6708 87.6896 67.9742 87.6896 67.569C87.6896 67.4771 87.4691 67.14 87.1996 66.8197C86.1934 65.6243 84.3561 65.2588 82.5338 65.8916ZM105.849 68.3235C105.841 69.6823 105.74 70.6557 105.544 71.2539C105.383 71.7467 105.281 72.1804 105.319 72.2176C105.356 72.2549 105.618 71.8925 105.9 71.4123C106.361 70.6278 106.413 70.3735 106.413 68.9114C106.413 67.7887 106.328 67.1293 106.137 66.7863C105.875 66.3155 105.86 66.3985 105.849 68.3235ZM90.627 70.5312C89.3225 74.0241 88.9285 75.543 89.2724 75.7555C89.6136 75.9662 90.0193 75.2215 91.1778 72.2571C93.1649 67.1733 93.0434 67.5845 92.6461 67.2838C92.4572 67.1409 92.2213 67.0215 92.1218 67.0186C92.0223 67.0158 91.3497 68.5964 90.627 70.5312ZM84.601 67.5509C83.1006 68.3439 81.903 70.2771 81.517 72.5292C81.268 73.9825 81.3903 74.913 81.9186 75.5845C82.7196 76.6024 83.7466 75.8617 84.9672 73.3852C86.3705 70.5383 86.9743 67.9974 86.3871 67.4104C86.0756 67.0989 85.348 67.1561 84.601 67.5509ZM84.8547 68.4368C84.0784 68.9991 83.0358 70.4627 82.5821 71.6273C82.2091 72.5848 82.0213 74.2641 82.2489 74.6066C82.5117 75.0018 82.7341 74.6734 82.9709 73.5403C83.3202 71.8691 84.1468 70.3936 85.337 69.3168C86.163 68.5698 86.3649 68.2923 86.2019 68.1294C85.8831 67.8108 85.6441 67.8652 84.8547 68.4368ZM99.57 70.4139C98.6534 72.56 98.2375 74.5589 98.7422 74.3918C99.0979 74.274 99.3513 73.7082 99.9961 71.5905C100.326 70.5063 100.534 69.4644 100.5 69.0586C100.446 68.4034 100.4 68.4714 99.57 70.4139ZM57.5633 70.5207C56.7993 70.8533 55.4948 72.3578 54.8671 73.6299C54.4564 74.4621 54.3222 75.019 54.2605 76.1474C54.1585 78.0149 54.4904 78.9504 55.2531 78.9444C56.2003 78.9368 57.0055 77.9042 58.6404 74.5994C59.3105 73.2449 59.482 72.7184 59.4362 72.158L59.3779 71.4432L58.346 72.4111C57.2183 73.4687 56.2414 75.2021 55.7577 77.0043C55.4375 78.1968 55.1959 78.3257 55.0217 77.3975C54.6085 75.1958 56.2872 72.0905 58.3761 71.1922C59.4337 70.7374 59.6004 70.2639 58.6995 70.2748C58.3761 70.2788 57.8648 70.3895 57.5633 70.5207ZM64.162 70.9268C64.0679 71.1741 63.991 71.4404 63.991 71.5187C63.991 71.597 63.591 72.9161 63.1024 74.45C62.0599 77.7219 61.8889 78.4961 62.1707 78.6702C62.8515 79.0907 64.2975 75.3027 64.973 71.3297C65.0685 70.768 65.0305 70.6596 64.7087 70.5755C64.4268 70.5018 64.2902 70.5895 64.162 70.9268ZM112.756 72.1898C111.769 74.8569 109.902 76.7782 108.298 76.7782C107.832 76.7782 107.764 76.8245 107.933 77.0276C108.244 77.4027 109.174 77.5268 110.011 77.3049C110.519 77.1701 111.045 76.8097 111.669 76.17C113.156 74.6441 113.726 73.0401 113.242 71.7377C113.094 71.3385 113.06 71.3702 112.756 72.1898ZM128.245 72.2341C127.221 73.8138 125.241 74.9596 123.509 74.9752C122.518 74.9842 122.516 74.9853 123.018 75.2577C124.648 76.1411 126.769 75.5242 128.49 73.6662C129.478 72.599 129.697 72.0048 129.262 71.5698C128.931 71.2391 128.86 71.2854 128.245 72.2341ZM105.964 76.142C105.022 77.1443 103.24 77.4309 101.602 76.8437L100.77 76.5457L99.8403 77.2801C98.7334 78.1547 97.8779 78.4724 96.6124 78.4787C95.4639 78.4843 95.525 78.6721 96.7617 78.9372C98.2276 79.2515 99.4877 78.907 100.948 77.7922L101.772 77.164L102.692 77.5135C104.057 78.0317 105.075 77.9709 106.343 77.2956C106.929 76.9833 107.404 76.6782 107.398 76.6175C107.393 76.5567 107.16 76.327 106.881 76.1069L106.373 75.7071L105.964 76.142ZM77.1005 76.8876C77.0363 77.1755 76.8986 77.696 76.7946 78.0442C76.1124 80.3268 74.2576 82.185 72.3579 82.4887C71.7709 82.5825 71.589 82.6916 71.589 82.9502C71.589 83.2341 71.7278 83.288 72.4483 83.2848C73.6226 83.2793 74.6643 82.7636 75.921 81.5654C77.2655 80.2834 77.8126 79.1039 77.6988 77.7327C77.6022 76.5675 77.2749 76.1053 77.1005 76.8876ZM69.8755 77.298C69.6781 78.1957 68.9836 78.6789 67.9107 78.6647C67.3966 78.6578 66.7281 78.522 66.4249 78.3626L65.8741 78.0731L65.3847 78.8462C64.1352 80.8207 61.6762 82.3724 60.1969 82.1199L59.5588 82.0109L60.0111 82.3745C60.6435 82.8829 62.1026 82.8704 63.2166 82.3469C64.2105 81.8799 65.9846 80.1747 66.3207 79.3633L66.5546 78.799L67.3079 79.141C69.1452 79.9749 70.7549 79.0592 70.3062 77.4354C70.0872 76.6422 70.024 76.6222 69.8755 77.298ZM84.6124 77.4258C84.2653 77.791 83.6305 78.248 83.2021 78.4415C82.3413 78.8303 80.8393 78.9055 80.0361 78.6001C79.2395 78.2972 79.6366 78.7426 80.5209 79.1441C81.5899 79.6293 83.0876 79.5985 84.086 79.0707C85.0256 78.5739 85.6443 77.659 85.4043 77.1211C85.2539 76.7846 85.2038 76.8039 84.6124 77.4258ZM57.1166 80.6028C56.7684 80.9079 56.1578 81.3095 55.7598 81.4956C54.845 81.9233 53.1951 81.9532 52.6226 81.5522C52.395 81.3929 52.1651 81.3063 52.1117 81.3596C52.0581 81.413 52.4095 81.7047 52.8921 82.0076C54.392 82.9489 56.4073 82.6465 57.5311 81.3113C57.9873 80.7693 58.1952 80.0241 57.8855 80.0409C57.8107 80.0449 57.4649 80.2977 57.1166 80.6028ZM141.543 80.4856C141.624 80.784 141.686 81.6792 141.682 82.4749C141.676 83.6797 141.594 84.0767 141.193 84.8482C140.67 85.8555 138.738 87.7421 137.936 88.0289C137.549 88.1676 137.439 88.323 137.439 88.7319C137.439 89.4155 137.793 89.4131 138.999 88.7217C140.07 88.1076 141.54 86.5344 142.111 85.3913C143.01 83.5927 142.943 81.6893 141.941 80.5583L141.396 79.9431L141.543 80.4856ZM38.1215 84.7639C37.7165 85.1026 37.5137 85.1312 36.1768 85.0381C35.356 84.9807 34.6843 84.9753 34.6843 85.0258C34.6843 85.1807 36.1945 85.7875 36.6743 85.8251C37.662 85.9027 38.2382 85.8032 38.8057 85.4573C39.3144 85.1473 39.372 85.0437 39.2064 84.7346C38.9628 84.2792 38.6927 84.2865 38.1215 84.7639ZM117.81 85.2941C113.824 85.5573 105.204 86.4807 100.353 87.1643C97.9153 87.5077 94.252 87.9578 92.2123 88.1644C90.1726 88.3711 86.5092 88.7825 84.0715 89.0787C67.2319 91.1256 65.8623 91.2469 59.6607 91.2424C53.2224 91.2379 51.0154 90.9358 48.2687 89.6838C47.5317 89.3478 46.9041 89.0974 46.8741 89.1272C46.8443 89.1572 47.2336 89.4525 47.7392 89.7835C50.2907 91.4533 53.2548 91.9837 60.2825 92.0283C65.5379 92.0618 69.2508 91.7904 74.7549 90.9708C76.3469 90.7338 79.9695 90.253 82.8052 89.9023C85.6409 89.5515 89.0057 89.1341 90.2827 88.9746C91.5597 88.8149 92.6441 88.7237 92.6924 88.772C92.8536 88.9333 90.3545 89.4234 85.6092 90.1609C83.0223 90.5629 79.3996 91.1335 77.5589 91.4287C75.7182 91.7238 72.4212 92.1696 70.2323 92.4195C68.0433 92.6693 65.6219 92.9593 64.8512 93.0642C64.0808 93.1691 62.7375 93.2301 61.8663 93.1999C60.4409 93.1503 60.2224 93.1878 59.6815 93.5733C58.9385 94.1032 58.5219 94.0515 56.2036 93.1409C54.9767 92.6591 54.0763 92.4343 53.0173 92.3454C52.2054 92.2774 51.4127 92.115 51.2558 91.9848C50.8877 91.6795 50.2359 91.8459 49.5542 92.4193C48.8912 92.9769 48.753 93.4565 49.1087 93.9641C49.3456 94.3023 49.4905 94.3385 50.1892 94.2338C50.633 94.1672 51.3325 93.9941 51.7437 93.8491C52.6707 93.5221 53.2 93.6296 54.9458 94.4985C55.692 94.87 56.7201 95.3105 57.2306 95.4778L58.1584 95.7818L58.2507 96.7238C58.3014 97.2422 58.4817 98.449 58.6512 99.4056L58.9597 101.145L58.4904 102.026C57.3901 104.093 58.462 104.884 60.192 103.283C61.0634 102.476 61.45 102.377 63.8101 102.355C65.0538 102.343 66.3187 102.277 66.621 102.209L67.1708 102.085L68.4838 104.761L69.797 107.437L69.5171 108.107C68.9683 109.42 69.2953 110.775 70.0997 110.52C70.3102 110.453 70.767 110.002 71.1151 109.518C71.7394 108.649 71.7801 108.627 74.1849 107.851L76.6218 107.064L78.5336 108.674C80.2421 110.112 80.4847 110.391 80.8158 111.299C81.56 113.34 81.8337 113.605 82.5246 112.956C82.7889 112.708 82.9959 112.247 83.0727 111.735C83.2527 110.535 83.2515 110.537 84.8579 109.175C85.6691 108.487 86.5217 107.744 86.7523 107.524C87.2578 107.041 87.4604 107.07 90.0032 107.986C91.5521 108.544 91.9923 108.791 92.6264 109.46C93.5345 110.419 93.8912 110.635 94.3035 110.477C94.5767 110.372 94.5981 110.158 94.4904 108.597L94.369 106.835L95.1585 105.325C95.5927 104.494 96.0874 103.449 96.2578 103.001L96.5677 102.187L99.3197 102.287C102.252 102.394 102.767 102.52 103.732 103.367C104.676 104.195 105.638 104.306 105.902 103.617C105.965 103.453 105.801 102.884 105.536 102.343C104.95 101.149 104.92 100.131 105.418 98.3895C105.617 97.6939 105.78 96.8251 105.78 96.4589C105.78 95.8131 105.811 95.7818 106.82 95.4127C107.393 95.2035 108.524 94.7407 109.335 94.3844C110.555 93.8486 110.946 93.7549 111.597 93.8433C113.959 94.164 114.864 94.1893 115.022 93.9392C115.3 93.5006 115.207 93.2699 114.377 92.3352C113.931 91.8334 113.454 91.2001 113.316 90.9275C113.024 90.3479 112.77 86.544 113.024 86.544C113.116 86.544 114.516 86.4067 116.134 86.2391C118.213 86.0237 120.801 85.9309 124.956 85.9226C131.19 85.9103 132.695 86.0586 134.978 86.9098C135.895 87.2518 135.898 87.2516 135.476 86.9008C134.912 86.4315 133.041 85.8651 130.926 85.5235C128.824 85.1838 121.438 85.0547 117.81 85.2941ZM108.132 87.093C105.936 87.3144 103.392 87.7745 103.177 87.9891C103.032 88.134 103.098 88.3951 103.42 88.9485C103.778 89.5652 103.876 90.0251 103.938 91.3838C104.011 92.9914 104.037 93.0776 104.571 93.5267C105.271 94.1157 105.697 94.0587 107.866 93.0856C109.039 92.5593 109.852 92.3224 110.8 92.2305C111.522 92.1607 112.111 92.0936 112.111 92.0817C112.111 92.0696 111.909 91.5715 111.663 90.9747C111.313 90.1262 111.215 89.5645 111.212 88.3977L111.207 86.9057L110.348 86.931C109.876 86.9449 108.878 87.0178 108.132 87.093ZM98.363 88.4501C98.2138 88.4808 97.1759 88.6452 96.0565 88.8152C94.9372 88.9854 94.0253 89.2359 94.0253 89.2359C94.0253 89.2359 91.283 89.9032 89.6796 90.2513C88.0762 90.5995 86.7093 90.8843 86.7093 90.8843C86.7093 90.8843 86.3281 91.0652 86.212 91.0652C85.7311 91.0652 83.6088 91.4775 83.4796 91.5961C83.4027 91.6666 83.5161 92.1227 83.7316 92.6096L84.1233 93.4948L83.6395 94.4184C83.3736 94.9264 82.9215 95.6209 82.635 95.9616L82.1141 96.581L81.5318 96.0384C80.6354 95.2033 79.9107 94.1323 79.9107 93.6429C79.9107 93.3997 80.0798 92.9631 80.2866 92.6729C80.4936 92.3824 80.6359 92.0761 80.6032 91.9918C80.5706 91.9075 79.4449 92.0278 78.1016 92.2589C76.7584 92.49 74.6011 92.8071 73.3076 92.9635C70.4508 93.3091 70.3227 93.3453 70.3227 93.8081C70.3227 94.3537 71.4543 95.4055 72.0411 95.4055C72.5576 95.4055 73.4681 94.5929 73.6724 93.9495C73.7981 93.5536 74.147 93.5012 74.6966 93.795C75.0056 93.9603 75.0487 94.1075 74.9566 94.6834C74.7907 95.7202 74.2572 96.8338 73.4205 97.8896C72.5041 99.0461 71.4523 99.6261 70.2628 99.631C69.4008 99.6344 69.3831 99.6463 68.9451 100.51L68.501 101.386L69.5065 103.045C70.0595 103.958 70.6847 105.178 70.8958 105.757C71.3137 106.903 71.4894 107.106 71.8231 106.83C71.9431 106.731 72.5705 106.517 73.2172 106.353C74.8318 105.945 75.883 105.537 76.1508 105.215C76.2745 105.065 76.5093 104.512 76.6723 103.986L76.9686 103.028L76.2477 102.336C75.3566 101.481 75.0262 100.741 75.0262 99.5991C75.0262 98.2705 75.6395 97.2443 76.8143 96.6076C77.6157 96.1733 77.8929 96.1108 78.5662 96.2117C80.0912 96.4403 81.177 97.9211 81.177 99.7718C81.177 100.97 80.6084 101.941 79.2024 103.14C78.5908 103.662 78.2368 104.131 78.1101 104.587C77.8015 105.698 77.88 105.946 78.7451 106.598C79.1923 106.934 80.1332 107.742 80.8358 108.392L82.1134 109.575L82.5523 109.014C82.7938 108.706 83.6504 107.904 84.4558 107.232L85.9204 106.011L85.8325 105.232C85.7207 104.239 85.3668 103.708 84.2553 102.864C83.3309 102.163 82.4434 100.752 82.4434 99.9834C82.4434 99.2602 83.1344 97.7169 83.7361 97.0962C84.5006 96.3079 85.2865 96.0515 86.1854 96.2974C87.906 96.768 88.7732 97.7887 88.7743 99.3447C88.7752 100.598 88.4563 101.312 87.5167 102.159L86.7458 102.855L87.055 103.606C87.8895 105.633 87.6942 105.445 89.6224 106.081C90.5991 106.404 91.6328 106.786 91.9197 106.931C92.552 107.251 92.5951 107.2 93.1049 105.527C93.3028 104.878 93.7896 103.883 94.1867 103.317C95.2974 101.731 95.3387 101.624 95.104 100.913C94.8598 100.173 94.314 99.7458 93.6134 99.7458C92.4042 99.7458 90.6163 98.3885 89.3874 96.5378C88.6689 95.4556 88.5298 94.5741 88.9525 93.7844C89.2416 93.2444 89.5985 93.333 90.0452 94.0551C90.5002 94.7913 91.5854 95.5892 92.1186 95.58C92.6752 95.5702 93.2856 95.1671 93.568 94.6231C93.7863 94.2025 93.7863 94.0318 93.568 93.4131C93.2952 92.6401 93.2948 92.6405 94.1118 92.6819C94.9796 92.7261 95.5563 93.0288 95.9089 93.6254C96.3512 94.3739 96.4865 96.2569 96.1766 97.3461C95.8761 98.4012 95.8968 98.5175 96.5914 99.6785L97.1465 100.606L99.6994 100.713C101.104 100.771 102.517 100.872 102.84 100.936L103.428 101.053L103.435 100.083C103.438 99.5494 103.558 98.5839 103.7 97.9373C104.115 96.0489 104.061 95.5266 103.374 94.7984L102.777 94.1656L101.339 94.3446C99.5245 94.5703 98.9421 94.4593 98.1159 93.7294C97.3335 93.038 97.0897 92.1831 97.5452 91.7278C97.9985 91.2744 98.2183 91.3503 99.0856 92.2602C99.8602 93.0725 99.9033 93.0915 100.808 93.0167C102.059 92.9129 102.708 92.428 102.573 91.6981C102.436 90.9617 102.02 90.168 101.75 90.1287C101.629 90.111 100.959 90.0906 100.263 90.0835L98.9962 90.0705L99.0333 89.5513C99.0537 89.2655 99.2088 88.8791 99.3779 88.6923C99.6723 88.3669 99.663 88.3534 99.1599 88.3734C98.8709 88.385 98.5123 88.4195 98.363 88.4501ZM105.881 88.7545C105.281 89.6108 105.696 90.7167 106.79 91.1735C107.243 91.3626 107.516 91.3771 107.897 91.2323C109.149 90.7563 109.389 89.8528 108.512 88.9142C108.059 88.4295 107.862 88.3524 107.075 88.3524C106.337 88.3524 106.109 88.4295 105.881 88.7545ZM106.754 88.9749C106.587 89.4108 106.76 89.8819 107.113 89.9497C107.672 90.0573 107.862 89.6956 107.522 89.1755C107.183 88.6584 106.904 88.5856 106.754 88.9749ZM67.1892 93.5988C66.5014 93.684 66.2257 93.8236 65.8847 94.2591L65.4526 94.8112L64.1338 94.5754C61.8855 94.1732 61.5146 94.2217 60.7134 95.0224C59.9085 95.8272 59.9102 95.8129 60.2975 98.6459C60.6725 101.39 60.5822 101.204 61.4008 100.912C61.8127 100.765 62.8732 100.663 64.0277 100.658C66.2192 100.649 66.735 100.484 67.2681 99.6217C67.8363 98.7025 67.9342 98.1171 67.6677 97.2304C67.3349 96.1227 67.3669 95.5245 67.8146 94.4841C68.0272 93.9902 68.1698 93.5646 68.1312 93.5384C68.0929 93.5122 67.6688 93.5395 67.1892 93.5988ZM63.3579 95.801C62.7773 96.1092 62.5434 96.5148 62.5496 97.2033C62.5566 97.9934 62.879 98.4457 63.578 98.6461C64.3018 98.8535 65.1597 98.4701 65.517 97.7791C66.0705 96.7092 65.7091 95.948 64.6475 95.948C64.3262 95.948 63.986 95.8717 63.8915 95.7784C63.7844 95.6728 63.5833 95.6813 63.3579 95.801ZM98.4083 95.9428C97.833 96.1893 97.8858 96.8906 98.5526 97.8596C99.0584 98.5945 99.1668 98.6604 99.8642 98.6568C101.313 98.649 102.075 97.4002 101.229 96.4206C100.888 96.0254 100.611 95.914 99.8103 95.8491C99.2631 95.8046 98.632 95.8469 98.4083 95.9428ZM63.7477 96.8213C63.5831 97.0033 63.4483 97.2474 63.4483 97.3639C63.4483 97.6829 64.2978 97.6183 64.4239 97.2895C64.7271 96.4998 64.304 96.2068 63.7477 96.8213ZM99.2676 96.7428C99.2676 96.8646 99.3779 97.1148 99.5127 97.2991C99.8067 97.701 100.409 97.5465 100.321 97.0919C100.251 96.728 99.2676 96.4023 99.2676 96.7428ZM77.3328 97.771C76.8776 98.0359 76.4735 98.9056 76.4735 99.6196C76.4735 100.355 77.0991 101.348 77.8032 101.73C78.3003 102.001 78.3236 101.992 78.9356 101.291C79.7014 100.415 79.8391 99.9196 79.5682 99.0157C79.2245 97.869 78.1715 97.2827 77.3328 97.771ZM84.9263 97.8925C84.1218 98.781 84.0238 100.351 84.7208 101.179C85.3313 101.904 85.939 101.904 86.6163 101.18C87.5123 100.221 87.4861 98.7139 86.5593 97.8921C86.1011 97.4859 85.2941 97.4861 84.9263 97.8925ZM72.2987 100.998C71.595 101.701 71.557 102.805 72.2141 103.461C72.7966 104.044 73.2621 104.022 73.9832 103.378C74.4906 102.924 74.574 102.731 74.574 102.005C74.574 101.336 74.4853 101.089 74.1469 100.815C73.5381 100.322 72.9127 100.384 72.2987 100.998ZM89.6132 100.851C89.1551 101.505 89.2275 102.746 89.7545 103.273C90.7343 104.253 91.8619 104.038 92.173 102.813C92.4947 101.546 91.9292 100.757 90.5369 100.532C90.0186 100.447 89.8571 100.503 89.6132 100.851ZM72.7951 101.675C72.5701 101.9 72.6616 102.855 72.9006 102.776C73.2774 102.651 73.6023 101.862 73.3442 101.698C73.0737 101.526 72.9491 101.521 72.7951 101.675ZM90.496 101.912C90.4358 102.01 90.4796 102.263 90.5933 102.476C90.7797 102.824 90.8282 102.835 91.0787 102.584C91.2319 102.431 91.3079 102.177 91.2477 102.021C91.1261 101.703 90.6659 101.637 90.496 101.912ZM80.8876 103.616C80.4945 104.009 80.2725 104.406 80.2725 104.715C80.2725 105.354 81.1731 106.256 81.8102 106.256C82.496 106.256 83.3479 105.355 83.3479 104.629C83.3479 103.951 82.5011 103.001 81.8965 103.001C81.68 103.001 81.2259 103.278 80.8876 103.616ZM81.4786 104.388C81.4122 104.454 81.3579 104.663 81.3579 104.852C81.3579 105.106 81.4652 105.181 81.765 105.139C82.2967 105.063 82.4597 104.267 81.9434 104.267C81.7541 104.267 81.5448 104.321 81.4786 104.388Z" fill="#572A01"/>
<path fill-rule="evenodd" clip-rule="evenodd" d="M27.4777 116.023C25.4529 116.507 24.0317 119.328 24.5098 121.915C25.0724 124.96 27.8387 127.518 31.1263 128.033C31.6364 128.113 31.5626 128.052 30.5184 127.53C27.2839 125.914 25.6516 122.554 26.8173 119.913C27.1936 119.06 27.8661 118.326 28.6543 117.907C29.3493 117.537 29.4793 117.196 29.1556 116.589C29.0299 116.354 28.1452 115.837 27.9745 115.899C27.9521 115.907 27.7284 115.963 27.4777 116.023ZM135.426 116.324C135.252 116.486 135.066 116.795 135.012 117.009C134.929 117.343 134.996 117.464 135.473 117.842C137.192 119.203 137.794 120.355 137.679 122.065C137.591 123.361 137.16 124.487 136.399 125.411C135.655 126.314 134.384 127.28 133.515 127.604C132.194 128.096 132.495 128.275 133.989 127.885C136.523 127.223 138.676 125.262 139.477 122.882C139.718 122.168 139.768 121.72 139.726 120.645C139.668 119.123 139.296 118.115 138.431 117.127C137.539 116.109 136.075 115.718 135.426 116.324ZM32.6369 118.574C31.8402 118.83 30.747 119.755 30.4174 120.451C29.3105 122.789 30.3377 125.841 32.6186 126.993C34.0926 127.737 36.7775 127.906 38.5262 127.364C39.0612 127.199 39.5257 127.09 39.5584 127.123C39.6984 127.263 37.2574 128.265 36.0605 128.558C33.8212 129.107 30.8867 129 29.1071 128.306C28.9197 128.233 28.8617 128.25 28.9287 128.359C29.1254 128.678 30.5885 129.409 31.5012 129.645C32.6167 129.932 34.71 129.963 35.9052 129.708C37.7542 129.314 40.9737 127.737 42.3747 126.538C42.6788 126.278 42.9626 126.065 43.0057 126.065C43.0488 126.065 42.9895 126.292 42.8738 126.57C42.7582 126.847 42.6635 127.378 42.6635 127.751C42.6635 128.342 42.7341 128.497 43.2269 128.992C43.6885 129.454 43.8926 129.556 44.3557 129.556C45.0319 129.556 45.4856 129.269 45.6761 128.721C45.97 127.876 45.2772 127.149 44.6012 127.593C44.1448 127.893 43.8245 127.782 43.8245 127.323C43.8245 126.844 44.8745 125.303 45.6163 124.694C46.5939 123.891 48.1638 123.033 49.4117 122.619C50.3785 122.298 50.8335 122.234 52.1328 122.234C53.2451 122.235 53.6928 122.185 53.6928 122.061C53.6928 121.78 52.0981 121.015 51.1069 120.821C48.6852 120.348 44.5799 121.271 41.6213 122.953C40.9639 123.327 40.1947 123.731 39.912 123.852C39.6295 123.972 39.4796 124.099 39.5791 124.135C39.7968 124.211 40.7976 123.892 42.7014 123.137C44.587 122.39 47.4148 121.559 48.3594 121.475C49.0734 121.411 49.0438 121.429 47.8879 121.759C46.2955 122.214 44.0875 123.057 40.9428 124.41C38.0249 125.666 37.1088 125.915 35.3942 125.918C32.7475 125.922 31.2968 124.969 31.0924 123.089C31.0572 122.766 31.1031 122.308 31.1944 122.071L31.3603 121.64L31.9065 122.653C32.3104 123.401 32.6015 123.75 33.0231 123.99C34.9484 125.087 37.5107 123.294 37.2558 121.027C37.2164 120.675 37.0161 120.133 36.811 119.823C36.0793 118.714 34.0695 118.113 32.6369 118.574ZM128.649 118.77C127.862 119.148 127.434 119.586 127.09 120.365C126.313 122.126 127.745 124.308 129.708 124.352C130.927 124.38 131.736 123.78 132.712 122.122L133.001 121.629L133.046 122.327C133.071 122.711 132.987 123.383 132.861 123.82C132.675 124.461 132.512 124.701 132.027 125.054C130.756 125.976 128.574 126.217 126.544 125.658C125.946 125.494 124.509 124.954 123.352 124.458C120.894 123.407 116.682 121.734 115.95 121.519C115.671 121.437 115.524 121.341 115.623 121.306C115.831 121.232 119.927 122.568 122.687 123.611C123.718 124.001 124.59 124.291 124.625 124.255C124.739 124.142 123.048 123.132 121.515 122.398C119.276 121.326 117.061 120.79 114.789 120.772C113.04 120.757 112.941 120.773 112.008 121.216C111.476 121.468 110.963 121.82 110.868 121.998L110.696 122.321L111.765 122.22C113.649 122.043 115.679 122.657 117.645 123.999C119.2 125.059 120.449 126.643 120.449 127.555C120.449 127.798 120.385 127.829 120.05 127.746C118.965 127.478 118.807 127.478 118.611 127.746C118.129 128.407 118.529 129.302 119.428 129.572C120.847 129.998 122.06 128.29 121.461 126.709C121.253 126.16 121.399 126.095 121.865 126.528C123.059 127.636 125.806 129.058 127.85 129.627C129.088 129.971 131.363 129.982 132.639 129.651C133.726 129.369 135.397 128.591 135.397 128.368C135.397 128.279 135.292 128.261 135.143 128.325C132.732 129.357 128.214 129.016 125.311 127.582C124.752 127.306 124.425 127.118 124.585 127.165C125.953 127.565 126.653 127.665 128.062 127.664C130.501 127.661 131.787 127.219 132.913 125.994C133.763 125.07 134.126 124.19 134.204 122.865C134.316 120.954 133.751 119.788 132.34 119.019C131.301 118.453 129.552 118.335 128.649 118.77Z" fill="#572A01"/>
<path d="M61.1705 129.025V128.473C62.0295 128.473 62.4591 128.205 62.4591 127.671V125.014C62.3714 124.971 62.2487 124.936 62.0909 124.909C61.9419 124.874 61.7622 124.857 61.5518 124.857H59.9739C59.6495 124.857 59.3646 124.909 59.1192 125.014V127.671C59.1192 128.205 59.5137 128.473 60.3026 128.473V129.025H55.6347V128.473C56.52 128.473 56.9627 128.205 56.9627 127.671V121.924C56.9627 121.232 56.52 120.886 55.6347 120.886V120.307H60.3026V120.886C59.5137 120.886 59.1192 121.232 59.1192 121.924V124.068C59.2507 124.112 59.3822 124.142 59.5137 124.16C59.6452 124.177 59.7986 124.186 59.9739 124.186H61.5518C62.0076 124.186 62.31 124.151 62.4591 124.081V121.924C62.4591 121.232 62.0295 120.886 61.1705 120.886V120.307H65.8121V120.886C65.0144 120.886 64.6155 121.232 64.6155 121.924V127.671C64.6155 128.205 65.0144 128.473 65.8121 128.473V129.025H61.1705ZM71.4944 129.025V128.486C71.6171 128.468 71.7442 128.451 71.8757 128.433C72.0159 128.416 72.1387 128.398 72.2439 128.381C72.3578 128.354 72.4499 128.328 72.52 128.302C72.5901 128.267 72.6252 128.232 72.6252 128.197C72.6252 128.153 72.612 128.104 72.5857 128.052C72.5682 127.991 72.5463 127.925 72.52 127.855L71.9414 126.25C71.9064 126.154 71.8187 126.088 71.6785 126.053C71.5382 126.009 71.3936 125.987 71.2445 125.987H69.3248C69.0442 125.987 68.8733 126.075 68.8119 126.25L68.3912 127.592C68.3736 127.635 68.3605 127.684 68.3517 127.736C68.343 127.789 68.3386 127.846 68.3386 127.907C68.3386 128.249 68.7111 128.42 69.4563 128.42V129.025H66.3925V128.42C66.8834 128.385 67.2472 128.087 67.4839 127.526L70.6002 120.097L71.8231 120.268L74.8868 127.973C74.9219 128.069 74.9789 128.148 75.0578 128.21C75.1367 128.271 75.2243 128.319 75.3208 128.354C75.426 128.389 75.5311 128.42 75.6363 128.446C75.7415 128.464 75.8423 128.477 75.9388 128.486V129.025H71.4944ZM70.4424 122.253L69.4037 124.765C69.3072 124.975 69.259 125.106 69.259 125.159C69.259 125.229 69.3949 125.264 69.6666 125.264H71.284C71.4944 125.264 71.5996 125.247 71.5996 125.212C71.5996 125.168 71.5163 124.931 71.3497 124.502L70.4424 122.253ZM76.6458 129.025V128.473C77.3997 128.473 77.7767 128.271 77.7767 127.868V121.78C77.7767 121.184 77.3515 120.886 76.5012 120.886V120.307H81.1165V120.886C80.3276 120.886 79.9331 121.184 79.9331 121.78V127.868C79.9331 128.157 80.1873 128.302 80.6958 128.302H80.9193C81.305 128.302 81.6337 128.293 81.9055 128.275C82.1772 128.249 82.4139 128.17 82.6155 128.039C82.8172 127.898 82.9969 127.684 83.1547 127.394C83.3212 127.096 83.4878 126.68 83.6543 126.145L84.417 126.224L83.9962 129.025H76.6458ZM91.0291 129.091L89.0699 123.673L87.3211 129.235L86.1245 129.091L83.4026 121.661C83.3062 121.39 83.166 121.192 82.9819 121.07C82.8065 120.947 82.6181 120.886 82.4165 120.886V120.307H86.4138V120.886C86.0018 120.886 85.7344 120.925 85.6117 121.004C85.489 121.083 85.4276 121.184 85.4276 121.306C85.4276 121.341 85.4364 121.381 85.4539 121.425C85.4802 121.469 85.5021 121.526 85.5197 121.596L87.3079 126.855L88.7412 122.542L88.2547 121.254C88.2108 121.131 88.1013 121.039 87.9259 120.978C87.7506 120.916 87.549 120.886 87.3211 120.886V120.307H91.279V120.886C90.639 120.886 90.3191 121.026 90.3191 121.306C90.3191 121.403 90.3498 121.512 90.4111 121.635L92.1205 126.842L93.5932 122.095C93.6195 121.981 93.6414 121.876 93.659 121.78C93.6853 121.675 93.6984 121.574 93.6984 121.477C93.6984 121.083 93.339 120.886 92.6202 120.886V120.307H95.5919V120.886C95.0659 120.886 94.6714 121.289 94.4085 122.095L92.0942 129.235L91.0291 129.091ZM98.8456 129.025V128.486C98.9683 128.468 99.0954 128.451 99.2269 128.433C99.3671 128.416 99.4899 128.398 99.5951 128.381C99.709 128.354 99.8011 128.328 99.8712 128.302C99.9413 128.267 99.9764 128.232 99.9764 128.197C99.9764 128.153 99.9632 128.104 99.9369 128.052C99.9194 127.991 99.8975 127.925 99.8712 127.855L99.2926 126.25C99.2576 126.154 99.1699 126.088 99.0297 126.053C98.8894 126.009 98.7448 125.987 98.5957 125.987H96.676C96.3954 125.987 96.2245 126.075 96.1631 126.25L95.7424 127.592C95.7248 127.635 95.7117 127.684 95.7029 127.736C95.6942 127.789 95.6898 127.846 95.6898 127.907C95.6898 128.249 96.0623 128.42 96.8075 128.42V129.025H93.7437V128.42C94.2346 128.385 94.5984 128.087 94.8351 127.526L97.9514 120.097L99.1743 120.268L102.238 127.973C102.273 128.069 102.33 128.148 102.409 128.21C102.488 128.271 102.576 128.319 102.672 128.354C102.777 128.389 102.882 128.42 102.988 128.446C103.093 128.464 103.194 128.477 103.29 128.486V129.025H98.8456ZM97.7936 122.253L96.7549 124.765C96.6584 124.975 96.6102 125.106 96.6102 125.159C96.6102 125.229 96.7461 125.264 97.0178 125.264H98.6352C98.8456 125.264 98.9508 125.247 98.9508 125.212C98.9508 125.168 98.8675 124.931 98.7009 124.502L97.7936 122.253ZM103.905 129.025V128.473C104.72 128.473 105.128 128.205 105.128 127.671V121.924C105.128 121.232 104.703 120.886 103.852 120.886V120.307H108.468V120.886C107.688 120.886 107.297 121.232 107.297 121.924V127.671C107.297 128.205 107.709 128.473 108.533 128.473V129.025H103.905Z" fill="#572A01"/>
</svg>
