<svg width="66" height="65" viewBox="0 0 66 65" fill="none" xmlns="http://www.w3.org/2000/svg">
<path d="M28.7902 9.15078H18.6086V6.09375C18.6094 5.82464 18.7167 5.56678 18.9069 5.37648C19.0972 5.18619 19.3551 5.07893 19.6242 5.07812H27.7746C28.0437 5.07893 28.3016 5.18619 28.4919 5.37648C28.6822 5.56678 28.7894 5.82464 28.7902 6.09375V9.15078ZM26.759 7.10938H20.6398V9.15078H26.759V7.10938ZM56.0395 27.0461L52.2918 59.018C52.2639 59.2665 52.1455 59.4961 51.9591 59.6628C51.7727 59.8296 51.5314 59.9218 51.2812 59.9219H14.7187C14.4686 59.9218 14.2273 59.8296 14.0409 59.6628C13.8545 59.4961 13.736 59.2665 13.7082 59.018L10.1637 27.041C10.1473 26.8993 10.1612 26.7557 10.2043 26.6197C10.2473 26.4837 10.3187 26.3584 10.4137 26.2519C10.5086 26.1455 10.625 26.0603 10.7552 26.002C10.8854 25.9437 11.0265 25.9136 11.1691 25.9137H55.0289C55.1723 25.9133 55.3142 25.9433 55.4452 26.0017C55.5761 26.0602 55.6932 26.1457 55.7887 26.2527C55.8842 26.3597 55.9559 26.4858 55.9992 26.6225C56.0424 26.7593 56.0561 26.9036 56.0395 27.0461ZM46.8125 33.0586C46.8125 32.7892 46.7055 32.5309 46.515 32.3404C46.3246 32.15 46.0662 32.043 45.7969 32.043C45.5275 32.043 45.2692 32.15 45.0787 32.3404C44.8883 32.5309 44.7812 32.7892 44.7812 33.0586V37.1059C44.7812 40.2304 43.54 43.227 41.3306 45.4365C39.1212 47.6459 36.1246 48.8871 33 48.8871C29.8754 48.8871 26.8788 47.6459 24.6694 45.4365C22.46 43.227 21.2187 40.2304 21.2187 37.1059V33.0586C21.2187 32.7892 21.1117 32.5309 20.9213 32.3404C20.7308 32.15 20.4725 32.043 20.2031 32.043C19.9338 32.043 19.6754 32.15 19.485 32.3404C19.2945 32.5309 19.1875 32.7892 19.1875 33.0586V37.1059C19.1875 40.7692 20.6427 44.2824 23.2331 46.8728C25.8234 49.4631 29.3367 50.9184 33 50.9184C36.6633 50.9184 40.1766 49.4631 42.7669 46.8728C45.3573 44.2824 46.8125 40.7692 46.8125 37.1059V33.0586ZM40.4344 14.8637V14.8586C40.4781 12.958 39.9586 11.0869 38.9414 9.48086C38.7494 9.19451 38.53 8.9275 38.2863 8.68359C37.935 8.32124 37.5224 8.02383 37.0676 7.80508L36.9355 7.74414C36.8428 7.70333 36.7479 7.66773 36.6512 7.6375C36.5445 7.60195 36.4379 7.57148 36.3312 7.54609L36.1789 7.51563C36.1676 7.51109 36.1554 7.50934 36.1434 7.51055C36.0748 7.49544 36.0052 7.48526 35.9352 7.48008C35.8138 7.46573 35.6917 7.45894 35.5695 7.45977C33.0152 7.45977 30.984 10.2984 30.725 14.0563C30.6031 14.0766 30.4863 14.0969 30.3695 14.1273C30.1602 14.1721 29.9548 14.2332 29.7551 14.3102C29.1773 14.5268 28.6488 14.8571 28.2008 15.2815C27.7528 15.7059 27.3945 16.2158 27.1469 16.781C26.8993 17.3462 26.7675 17.9554 26.7593 18.5724C26.7511 19.1894 26.8667 19.8018 27.0992 20.3734C26.3001 20.5902 25.5834 21.0394 25.04 21.6642C24.4966 22.2889 24.1511 23.061 24.0473 23.8824H36.5395C38.0219 20.7471 39.6695 17.6925 41.4754 14.7316C41.1244 14.7352 40.7751 14.7795 40.4344 14.8637ZM20.2082 23.2527C17.8469 17.9258 15.323 15.3309 12.7027 15.4883L11.6465 7.65781C11.6311 7.52387 11.5891 7.39433 11.5231 7.27678C11.4571 7.15923 11.3683 7.05602 11.2619 6.97318C11.1555 6.89034 11.0337 6.82954 10.9036 6.79431C10.7734 6.75909 10.6376 6.75016 10.5039 6.76805C10.3703 6.78594 10.2416 6.83028 10.1252 6.89848C10.0089 6.96669 9.9074 7.05739 9.82655 7.16529C9.7457 7.27318 9.68717 7.39611 9.65438 7.52689C9.62158 7.65767 9.61518 7.79367 9.63554 7.92695L10.6258 15.2699L7.24882 12.4312C7.04276 12.2575 6.77613 12.1727 6.50757 12.1956C6.23901 12.2185 5.99053 12.3471 5.81679 12.5531C5.64306 12.7592 5.55829 13.0258 5.58115 13.2944C5.604 13.5629 5.73261 13.8114 5.93867 13.9852L9.58984 17.0523C8.45742 18.3066 7.9039 20.3988 9.51875 23.8824H20.2691C20.3173 23.6714 20.2959 23.4506 20.2082 23.2527ZM28.7953 12.5074C28.7911 12.4771 28.7894 12.4466 28.7902 12.416V11.1922H18.6086V12.416C18.6102 12.5979 18.5642 12.7771 18.4751 12.9356C18.3861 13.0942 18.257 13.2267 18.1008 13.3199C17.8126 13.4965 17.5361 13.6916 17.273 13.9039C17.0013 14.1191 16.7466 14.3551 16.5113 14.6098C18.5172 15.9758 20.3555 18.5707 22.0617 22.425C22.1132 22.5423 22.1573 22.6627 22.1937 22.7855C22.5887 21.3314 23.4981 20.07 24.7531 19.2359C24.7379 19.0379 24.7277 18.8348 24.7277 18.6316C24.7325 17.3249 25.1204 16.0482 25.8433 14.9597C26.5663 13.8712 27.5927 13.0186 28.7953 12.5074ZM60.041 8.2418C59.844 7.63812 59.5194 7.08393 59.0892 6.61689C58.6589 6.14985 58.1332 5.78091 57.5477 5.53516C55.491 4.65156 53.3785 5.10352 51.2914 6.46953L54.9527 13.7414C55.0732 13.9826 55.0933 14.2617 55.0086 14.5177C54.9239 14.7736 54.7413 14.9857 54.5008 15.1074C54.3584 15.1768 54.2022 15.2133 54.0437 15.2141C53.8555 15.2139 53.6709 15.1616 53.5105 15.063C53.35 14.9644 53.22 14.8234 53.1348 14.6555L49.6461 7.72383C48.8107 8.46712 48.0285 9.26804 47.3051 10.1207L51.2711 17.9969C51.3312 18.1156 51.3672 18.2449 51.3773 18.3776C51.3873 18.5102 51.3711 18.6435 51.3296 18.7699C51.2881 18.8963 51.2221 19.0133 51.1354 19.1142C51.0487 19.215 50.9429 19.2978 50.8242 19.3578C50.683 19.4311 50.5263 19.4694 50.3672 19.4695C50.1788 19.47 49.9939 19.4179 49.8334 19.3193C49.6729 19.2206 49.5429 19.0792 49.4582 18.9109L45.9086 11.8625C45.1839 12.8222 44.4945 13.808 43.8418 14.818C43.8565 14.8346 43.8685 14.8534 43.8773 14.8738L47.5996 22.2523C47.7201 22.4935 47.7401 22.7726 47.6555 23.0286C47.5708 23.2846 47.3882 23.4966 47.1477 23.6184C47.0052 23.6877 46.849 23.7242 46.6906 23.725C46.5023 23.7248 46.3178 23.6725 46.1573 23.5739C45.9969 23.4753 45.8669 23.3343 45.7816 23.1664L42.5926 16.834C41.2469 19.0836 39.9723 21.4855 38.7992 23.8824H56.3391C59.8684 16.5242 61.1125 11.2684 60.041 8.2418Z" fill="#38769D"/>
</svg>
