<svg width="26" height="26" viewBox="0 0 26 26" fill="none" xmlns="http://www.w3.org/2000/svg">
<g clip-path="url(#clip0_69_5028)">
<path d="M23.494 16.9096C21.9634 16.9096 20.4605 16.6702 19.0364 16.1996C18.3385 15.9616 17.4807 16.1799 17.0548 16.6174L14.2438 18.7394C10.9838 16.9992 8.97572 14.9918 7.25931 11.7563L9.31888 9.01855C9.85397 8.48418 10.0459 7.70358 9.81595 6.97116C9.3433 5.53952 9.10319 4.03737 9.10319 2.50612C9.10326 1.39993 8.20332 0.5 7.0972 0.5H2.50605C1.39993 0.5 0.5 1.39993 0.5 2.50605C0.5 15.1851 10.815 25.5 23.494 25.5C24.6001 25.5 25.5001 24.6001 25.5001 23.4939V18.9156C25.5 17.8096 24.6001 16.9096 23.494 16.9096Z" fill="#F4D2A8"/>
</g>
<defs>
<clipPath id="clip0_69_5028">
<rect width="25" height="25" fill="white" transform="translate(0.5 0.5)"/>
</clipPath>
</defs>
</svg>
