<svg width="66" height="65" viewBox="0 0 66 65" fill="none" xmlns="http://www.w3.org/2000/svg">
<path d="M19.338 8.23908H47.2536V2.53587C47.2536 1.091 46.0705 0 44.7236 0C44.4613 0 44.1931 0.0413037 43.9259 0.129486L19.338 8.23908ZM52.3216 12.04H13.6785C12.279 12.04 11.1446 13.1745 11.1446 14.574V62.466C11.1446 63.8655 12.279 65 13.6785 65H52.3216C53.7211 65 54.8555 63.8655 54.8555 62.466V14.574C54.8555 13.1746 53.721 12.04 52.3216 12.04ZM20.3302 34.8868H20.8807C21.6999 29.6417 25.8545 25.4872 31.0996 24.6679V23.7157C31.0996 22.6661 31.9505 21.8152 33.0001 21.8152C34.0496 21.8152 34.9005 22.6661 34.9005 23.7157V24.6679C40.1456 25.4872 44.3002 29.6417 45.1194 34.8868H45.6699C46.7195 34.8868 47.5704 35.7377 47.5704 36.7873C47.5704 37.8369 46.7195 38.6878 45.6699 38.6878H20.3302C19.2806 38.6878 18.4297 37.8369 18.4297 36.7873C18.4297 35.7377 19.2805 34.8868 20.3302 34.8868ZM32.09 45.7226C32.09 46.7721 31.2391 47.623 30.1895 47.623H21.0672C20.0176 47.623 19.1667 46.7721 19.1667 45.7226C19.1667 44.673 20.0176 43.8221 21.0672 43.8221H30.1895C31.2391 43.8221 32.09 44.673 32.09 45.7226ZM45.1948 55.225H20.8053C19.7558 55.225 18.9048 54.374 18.9048 53.3245C18.9048 52.2749 19.7558 51.424 20.8053 51.424H45.1948C46.2444 51.424 47.0953 52.2749 47.0953 53.3245C47.0953 54.374 46.2444 55.225 45.1948 55.225Z" fill="#38769D"/>
<path d="M41.2508 34.8868C40.3858 31.1308 37.0148 28.3215 33.0001 28.3215C28.9854 28.3215 25.6143 31.1309 24.7493 34.8868H41.2508Z" fill="#38769D"/>
</svg>
