<svg width="90" height="90" viewBox="0 0 90 90" fill="none" xmlns="http://www.w3.org/2000/svg">
<rect width="90" height="90" rx="45" fill="white"/>
<path fill-rule="evenodd" clip-rule="evenodd" d="M44.1291 18.6635C44.0254 18.7673 43.909 19.0237 43.8707 19.2333C43.7706 19.7806 43.6496 19.9301 42.4918 20.9378L41.4517 21.8429L40.8927 21.5977C40.5852 21.4627 40.0303 21.2537 39.6596 21.1332C38.9842 20.9137 38.9262 20.8723 38.4534 20.2709C38.2652 20.0317 38.1341 19.9548 37.9519 19.9768C37.5629 20.0238 37.4831 20.2504 37.634 20.8792C37.8049 21.5913 37.7051 21.935 36.9328 23.2938L36.3463 24.326L35.0051 24.2913C33.3805 24.2492 33.0795 24.1796 32.6106 23.7374C32.193 23.3435 31.816 23.2137 31.6031 23.3904C31.4074 23.5527 31.4194 23.7747 31.6512 24.2856C31.9061 24.8469 31.8974 25.5633 31.6225 26.6863C31.3721 27.7088 31.2852 27.8459 30.7874 28.0036C30.5894 28.0663 30.0363 28.2913 29.5584 28.5037C28.5714 28.9421 28.3839 28.9657 27.6321 28.746C26.9736 28.5535 26.7418 28.5472 26.5114 28.7156C26.3485 28.8347 26.3461 28.8687 26.4826 29.1326C26.5643 29.2905 26.7285 29.5079 26.8474 29.6155C27.139 29.8793 27.2926 30.2009 27.4246 30.8242C27.5001 31.1808 27.6558 31.4919 27.9151 31.8047C28.4055 32.3959 28.4743 32.5386 28.6024 33.2316C28.794 34.2678 28.528 35.478 27.6296 37.6555C26.6057 40.1377 26.2611 41.4588 26.2597 42.9082C26.2586 43.9654 26.4871 44.554 27.1033 45.0821C27.2942 45.2456 27.2924 45.2223 27.0629 44.5428C26.8422 43.8898 26.8276 43.734 26.8802 42.607C26.963 40.8366 27.2224 39.9586 28.4734 37.2143C28.9412 36.1884 28.9427 36.1814 28.9235 35.2139C28.901 34.085 29.0007 33.8486 29.5688 33.6841C29.9224 33.5818 30.3503 33.6482 31.114 33.9239L31.3101 33.9946L31.114 33.8353C31.0061 33.7476 30.675 33.6096 30.3784 33.5287C29.1587 33.1958 28.9855 33.0004 28.6243 31.5498C28.5152 31.1118 28.3326 30.5704 28.2184 30.3465C28.1041 30.1228 28.0248 29.9283 28.0421 29.9145C28.0593 29.9006 28.3603 29.8355 28.711 29.7697C29.0616 29.7039 29.8065 29.4327 30.3665 29.1671C30.9263 28.9014 31.426 28.684 31.4767 28.684C31.5275 28.684 31.7735 28.8273 32.0234 29.0027C32.2732 29.178 32.5139 29.3466 32.5582 29.3775C32.6024 29.4084 32.5714 29.5945 32.4894 29.7911C32.2868 30.2757 32.3015 30.9928 32.5276 31.6496C32.6919 32.1271 32.6979 32.2193 32.5758 32.3936C32.4991 32.503 32.34 32.6066 32.2223 32.6238C32.0726 32.6456 31.9826 32.7547 31.9226 32.987C31.7998 33.4634 31.9199 33.5264 32.6104 33.3475C32.9358 33.2632 33.5136 33.1943 33.8945 33.1943H34.5869L34.6525 32.8449C34.6886 32.6527 34.6954 32.3263 34.6676 32.1195L34.6172 31.7434L35.1705 31.6745C35.8539 31.5894 36.0248 31.5013 36.2132 31.1372C36.5005 30.5817 36.3675 29.8426 35.8891 29.3368C35.3383 28.7544 34.6021 28.5553 33.8239 28.7784C33.4106 28.8969 32.8549 28.6412 32.5279 28.1822C32.3232 27.8948 32.3156 27.8351 32.424 27.371C32.4885 27.0955 32.6158 26.4372 32.7069 25.9082C32.8607 25.0162 32.8872 24.9511 33.0723 25.0131C33.182 25.0498 33.8974 25.1088 34.6621 25.1443C36.2516 25.218 36.3493 25.2627 36.6052 26.0328C36.7448 26.4528 36.7449 26.5502 36.6065 27.0753C36.2977 28.2465 36.844 29.4684 37.6762 29.4684C37.979 29.4684 38.0532 29.3556 37.9442 29.0613C37.7983 28.6666 37.995 28.3208 38.4686 28.1401C39.0354 27.9237 39.3622 28.075 39.6961 28.7084C39.8761 29.0502 39.9991 29.1737 40.1594 29.1739C40.404 29.1742 40.6769 28.7464 40.6769 28.3625C40.6769 27.8399 39.2748 26.164 38.6176 25.9011C38.4033 25.8155 38.0458 25.7162 37.8231 25.6806C37.4836 25.6263 37.3963 25.5633 37.2821 25.2901C37.0838 24.8155 37.1062 24.7094 37.5249 24.1427C37.9768 23.5313 38.2368 23.0311 38.4645 22.3353C38.5571 22.0522 38.6624 21.8205 38.6984 21.8205C38.851 21.8205 40.9334 22.5421 41.0518 22.636C41.2545 22.7966 41.5482 23.4305 41.6158 23.8529C41.6693 24.1873 41.6462 24.2568 41.4359 24.3945C40.995 24.6833 40.5786 25.4316 40.581 25.9309C40.5868 27.1554 41.8289 28.2565 42.7638 27.866C43.1312 27.7126 43.6447 27.1169 43.8659 26.5877C44.0519 26.1428 44.0528 25.4203 43.8681 25.0629C43.6955 24.7295 43.1953 24.2923 42.9007 24.2176C42.7358 24.1758 42.6327 23.9928 42.445 23.4087C42.3116 22.9936 42.2013 22.6041 42.1998 22.5432C42.1983 22.4825 42.7105 21.9892 43.3379 21.4471L44.4786 20.4616L44.7601 20.7594C44.9149 20.9232 45.3614 21.3199 45.7525 21.6411C46.1434 21.9623 46.5009 22.2995 46.5468 22.3905C46.5993 22.4946 46.5614 22.7843 46.4442 23.1729C46.2799 23.7176 46.1952 23.8382 45.7214 24.2024C45.1161 24.6678 44.6976 25.3763 44.6991 25.9333C44.7002 26.344 45.1597 27.1972 45.5414 27.4974C45.6857 27.6107 45.9711 27.7537 46.1757 27.815C46.5108 27.9154 46.5913 27.9009 46.9858 27.6698C47.8047 27.19 48.205 26.4794 48.0897 25.7101C48.012 25.1926 47.5118 24.3063 47.2505 24.2234C46.9989 24.1436 47.0012 24.1065 47.2964 23.4726C47.4308 23.1841 47.5411 22.8796 47.5416 22.7958C47.5423 22.6891 47.9024 22.5206 48.7459 22.232C49.4078 22.0057 49.9987 21.8205 50.0591 21.8205C50.1196 21.8205 50.1962 21.9654 50.2294 22.1425C50.2626 22.3197 50.5765 22.9593 50.9269 23.5639C51.6093 24.7418 51.7073 25.1566 51.3923 25.5344C51.2615 25.6913 51.0764 25.7505 50.6154 25.7831C50.2826 25.8066 49.9031 25.8959 49.7721 25.9817C49.4699 26.1798 48.1011 27.934 48.024 28.2222C47.9464 28.5128 48.1494 29.3213 48.3001 29.3213C48.3662 29.3213 48.5648 29.0796 48.7415 28.7842C49.3986 27.686 50.3869 27.9525 50.3869 29.2279C50.3869 29.6189 50.2953 29.6003 51.2787 29.4096C51.5262 29.3616 51.6253 29.2579 51.8172 28.8458C52.1454 28.1413 52.1952 27.7793 52.0549 27.1181C51.9394 26.5737 51.9461 26.5182 52.1916 25.9994C52.3337 25.6992 52.5485 25.3983 52.669 25.3309C52.8048 25.2548 53.2978 25.2058 53.9669 25.2017C54.5603 25.198 55.2312 25.1585 55.4578 25.1138C55.8425 25.038 55.8727 25.048 55.9139 25.265C56.1152 26.3265 56.2718 27.3239 56.2718 27.5446C56.2718 27.7244 56.1276 27.964 55.8247 28.2877L55.3778 28.7655L54.28 28.7982C53.2566 28.8288 53.1537 28.8504 52.7615 29.1164C52.53 29.2733 52.3755 29.4277 52.4182 29.4596C52.4608 29.4913 53.3171 29.5046 54.321 29.4888L56.1464 29.4602L56.4561 29.029L56.7659 28.5978L57.328 28.79C57.6372 28.8957 58.0946 29.1085 58.3445 29.2631C58.6201 29.4335 59.1212 29.6093 59.6178 29.7099C60.0683 29.8012 60.613 29.9565 60.8283 30.0552L61.2197 30.2345L61.5427 29.9511C61.9895 29.5589 62.4509 29.0225 62.4509 28.8951C62.4509 28.7482 62.1216 28.5859 61.8235 28.5859C61.6871 28.5859 61.3421 28.6785 61.0569 28.7916C60.3795 29.0603 59.7665 28.9953 59.0979 28.5841C58.5374 28.2392 57.7243 27.8996 57.4594 27.8996C57.3125 27.8996 57.2701 27.7912 57.2195 27.2868C57.1855 26.9498 57.0928 26.4975 57.0134 26.2818C56.8033 25.7116 56.8219 24.9273 57.0565 24.4679C57.2909 24.0084 57.307 23.6538 57.1026 23.4495C56.9165 23.2634 56.7173 23.3314 56.2601 23.737C55.7595 24.1813 55.3878 24.2746 54.0047 24.3037C53.3366 24.3178 52.7179 24.3632 52.6299 24.4046C52.5018 24.4649 52.3656 24.2891 51.9434 23.5179C51.1833 22.1295 51.1457 22.0019 51.2139 21.048C51.2759 20.1814 51.2054 19.9576 50.8702 19.9576C50.7716 19.9576 50.5255 20.1554 50.3234 20.3971C49.9987 20.7854 49.8462 20.873 49.0189 21.1461C48.5036 21.3163 47.9116 21.541 47.7035 21.6454L47.3249 21.8354L47.0169 21.5093C46.8475 21.33 46.3716 20.9108 45.9594 20.5779C45.248 20.0033 45.1978 19.9362 44.971 19.2543C44.7082 18.4647 44.4849 18.3079 44.1291 18.6635ZM44.2357 22.2881C43.9289 22.3381 43.5212 22.8579 43.5212 23.1992C43.5212 23.5034 43.9489 24.0535 44.2078 24.0824C44.5467 24.1204 44.6989 24.06 44.9849 23.774C45.3437 23.4153 45.3645 23.1401 45.066 22.7028C44.8289 22.3552 44.5816 22.2317 44.2357 22.2881ZM44.1751 22.8664C44.1391 22.9023 44.1097 23.0126 44.1097 23.1115C44.1097 23.2459 44.1841 23.2913 44.404 23.2913C44.7124 23.2913 44.7898 23.1279 44.5805 22.9187C44.4503 22.7885 44.2756 22.7659 44.1751 22.8664ZM39.0173 23.6249C38.59 24.1397 38.7584 24.8811 39.3808 25.2256C39.9753 25.5545 40.3826 25.2453 40.3826 24.4649C40.3826 24.0356 39.8611 23.4874 39.4527 23.4874C39.2761 23.4874 39.0802 23.5492 39.0173 23.6249ZM48.8536 23.6611C48.1735 24.2119 48.3146 25.3503 49.0629 25.3503C49.5605 25.3503 49.904 25.0073 49.9671 24.4476C50.0117 24.0522 49.9853 23.9594 49.7658 23.7399C49.4736 23.4478 49.1514 23.42 48.8536 23.6611ZM39.3712 24.139C39.2455 24.2646 39.3029 24.5446 39.4672 24.6077C39.7 24.6969 39.8663 24.5061 39.7359 24.2994C39.6158 24.1091 39.4667 24.0435 39.3712 24.139ZM49.0463 24.3284C48.9752 24.5135 49.2441 24.8131 49.3967 24.7188C49.5574 24.6194 49.5263 24.3012 49.349 24.2332C49.1306 24.1494 49.1129 24.155 49.0463 24.3284ZM45.9819 25.0185C45.5631 25.5507 45.5393 26.2689 45.921 26.8513C46.1739 27.2373 46.5597 27.2061 46.9439 26.7686C47.2039 26.4727 47.2483 26.3448 47.2483 25.8937C47.2483 25.4345 47.2089 25.3259 46.9465 25.0637C46.5757 24.693 46.2501 24.6777 45.9819 25.0185ZM41.766 25.2067C41.4151 25.606 41.3586 26.1417 41.615 26.6372C41.7994 26.9938 42.307 27.2401 42.5688 27.1C43.0622 26.836 43.2773 25.9215 42.9808 25.3483C42.6797 24.7663 42.2017 24.7106 41.766 25.2067ZM34.2344 26.3278C33.94 26.4515 33.7941 26.7616 33.83 27.188C33.8641 27.5919 34.1745 27.8346 34.8047 27.9499C35.1001 28.0039 35.1972 27.9761 35.3768 27.7858C35.5483 27.6039 35.5827 27.4773 35.5431 27.1737C35.458 26.5208 34.795 26.0922 34.2344 26.3278ZM53.5966 26.34C53.3413 26.4886 53.0051 27.2585 53.0853 27.511C53.185 27.8251 53.7453 28.0275 54.1817 27.9069C54.6038 27.7905 54.9967 27.4454 54.9967 27.1913C54.9967 26.9226 54.7296 26.4502 54.5117 26.3337C54.2723 26.2056 53.8223 26.2086 53.5966 26.34ZM53.7871 26.8864C53.6712 27.0023 53.7174 27.2837 53.8737 27.4135C54.0858 27.5894 54.3576 27.3213 54.2646 27.0281C54.2018 26.8303 53.9253 26.7482 53.7871 26.8864ZM34.4729 27.0417C34.4076 27.2355 34.5086 27.5074 34.6459 27.5074C34.7761 27.5074 34.8901 27.2978 34.8901 27.0581C34.8901 26.8867 34.5298 26.8724 34.4729 27.0417ZM72.5042 27.5921C71.6606 27.9758 70.8328 29.1032 70.4064 30.4489C69.9158 31.9974 69.6791 33.5522 69.6555 35.3832L69.6329 37.1311L69.2221 37.8941C68.826 38.6297 68.2948 39.2815 67.934 39.4745C67.809 39.5414 67.7146 39.5208 67.5944 39.4006C67.2773 39.0836 67.4514 37.9046 68.1273 35.7926L68.7234 33.9296L68.5187 33.7581C68.1897 33.4822 67.9399 33.5527 67.4516 34.0592L66.9959 34.5319L66.7749 34.1481C66.109 32.9914 64.028 33.2202 62.7936 34.5857C62.2032 35.2389 61.6878 36.3061 61.5569 37.1466C61.4759 37.6669 61.4868 37.9117 61.6125 38.4026C61.9226 39.6123 62.3983 40.0571 63.3827 40.0571C64.0156 40.0571 64.3037 39.9286 65.0599 39.309C65.5416 38.9145 65.5895 38.9067 65.5895 39.2228C65.5895 39.4027 65.4416 39.5831 65.0256 39.9109C64.3992 40.4043 63.8671 40.5927 63.311 40.5182C62.8897 40.4617 62.8164 40.6034 63.1929 40.7465C64.0016 41.0539 65.18 40.6962 65.5479 40.0317L65.7524 39.6624L65.9405 39.8701C66.2922 40.2586 66.6065 40.3586 67.1516 40.2552C68.1664 40.0628 68.7605 39.6211 69.3987 38.5844C69.917 37.7425 69.9118 37.7434 70.2531 38.4368C70.7755 39.4982 71.9091 40.1767 73.1908 40.195C74.0164 40.2068 74.5879 40.0121 75.5145 39.4031C76.4568 38.7839 77.6268 37.4023 77.8029 36.701C77.8712 36.4291 77.5436 35.5475 77.3743 35.5475C77.3226 35.5475 77.1145 35.7972 76.9118 36.1023C76.3404 36.963 75.501 37.7433 74.7732 38.0906C73.7058 38.5997 72.4789 38.5993 71.8305 38.0893C71.5226 37.8472 71.5063 37.7448 71.7647 37.6772C72.3288 37.5297 74.8075 32.5366 75.3439 30.4671C75.5331 29.7371 75.5398 28.7589 75.3579 28.4095C75.2821 28.2638 75.1126 28.0443 74.9812 27.9217L74.7423 27.6986L74.8947 28.2837C75.0878 29.0245 74.9652 29.8412 74.4548 31.2151C73.7389 33.1425 71.5119 37.5292 71.3662 37.2993C71.1892 37.0201 71.2969 36.6826 71.9044 35.6129C74.4735 31.089 75.1272 28.5287 73.9498 27.6028C73.6379 27.3575 73.0299 27.3531 72.5042 27.5921ZM44.0942 27.6083C44.0047 27.6604 43.7289 28.0778 43.4812 28.5358C42.9766 29.4687 42.9077 29.9336 43.227 30.2528C43.4634 30.4891 43.5667 30.494 44.1219 30.2952C44.3819 30.2022 44.6946 30.1638 44.9152 30.1978C45.2101 30.2433 45.2986 30.2178 45.381 30.0636C45.6357 29.5881 45.3489 28.5995 44.7636 27.9348C44.3584 27.4745 44.3392 27.4652 44.0942 27.6083ZM73.1941 28.9922C72.8315 29.4228 72.5278 30.0524 72.1265 31.2047C71.6368 32.6114 71.0974 35.2886 71.2809 35.4021C71.4191 35.4875 72.871 32.1503 73.4452 30.4272C73.7565 29.4933 73.8246 28.684 73.5919 28.684C73.5158 28.684 73.3368 28.8226 73.1941 28.9922ZM33.6662 29.5541C33.285 29.6358 33.1645 29.9667 33.3139 30.5215C33.439 30.9856 33.6102 31.0721 34.4074 31.0738C35.3028 31.0759 35.7539 30.6706 35.493 30.0983C35.2577 29.5818 34.538 29.3675 33.6662 29.5541ZM51.4658 30.1562C47.8803 30.4084 45.4484 30.9067 43.2025 31.8493L42.2462 32.2506V32.6088C42.2462 32.8058 42.1805 33.1836 42.1001 33.4483C41.9175 34.0501 41.9168 34.0408 42.1269 33.8507C42.4991 33.514 44.4748 32.787 45.8752 32.4714C46.9392 32.2317 48.7 31.9288 49.9946 31.7628C51.4993 31.57 57.3394 31.5403 59.2142 31.7161C59.8885 31.7792 60.9037 31.871 61.4701 31.9198C62.0365 31.9687 62.9413 32.0562 63.4808 32.1144C64.7166 32.2476 68.4736 32.4015 68.9053 32.3366C69.2609 32.2833 69.4756 32.0321 69.5702 31.5587L69.6307 31.257L69.0568 31.4523C68.5535 31.6236 68.3079 31.6415 67.0607 31.5972C66.1247 31.5641 65.1691 31.458 64.2654 31.2868C60.6866 30.609 59.1747 30.3558 58.1353 30.2603C56.5196 30.1118 52.9008 30.0553 51.4658 30.1562ZM30.0587 30.3155C29.4095 30.5885 29.4728 31.2915 30.1891 31.7655C30.6545 32.0734 31.0908 32.0898 31.3705 31.8102C31.7987 31.3822 31.3505 30.3564 30.6726 30.2125C30.5377 30.184 30.2615 30.2302 30.0587 30.3155ZM30.3784 30.9749C30.3784 31.1684 30.7701 31.6374 30.8766 31.5716C31.026 31.4793 30.9785 31.1761 30.7874 31.0034C30.5698 30.8064 30.3784 30.7931 30.3784 30.9749ZM39.5075 31.087C38.948 31.3388 38.2313 31.9375 37.7906 32.5213C37.2579 33.227 36.5256 34.6457 36.3108 35.3881L36.1441 35.9642L35.6397 35.9045C34.5855 35.7797 32.883 35.2624 31.114 34.5293C30.7903 34.3952 30.2988 34.2556 30.0217 34.219C29.5873 34.1616 29.4893 34.181 29.3106 34.3597C28.8934 34.7768 29.1811 35.7106 29.8834 36.2193C30.1811 36.4349 30.4576 36.5229 31.1313 36.6163C31.6073 36.6823 32.3277 36.8229 32.7323 36.9288C33.1369 37.0346 33.8872 37.1685 34.3997 37.2264C35.8367 37.3884 35.8038 37.3772 35.7319 37.6845C35.6978 37.8303 35.6297 38.5453 35.5806 39.2733C35.4802 40.7615 35.3877 41.163 34.9788 41.8838C34.6466 42.4693 33.8987 43.1953 33.6277 43.1953C33.3841 43.1953 33.3208 43.0129 33.3208 42.3103C33.3208 41.8846 33.4606 41.2963 33.86 40.0408C34.1565 39.1086 34.4248 38.2098 34.456 38.0435C34.6063 37.2421 33.6745 37.463 33.064 38.3733L32.6907 38.9302L32.6184 38.4399C32.4831 37.5208 31.5528 36.9805 30.4838 37.2C29.3064 37.4417 28.357 38.3281 27.7724 39.7316C27.5217 40.3337 27.4933 40.5159 27.4894 41.5444C27.4851 42.6601 27.4921 42.6979 27.7792 43.1044C28.3363 43.8932 29.3037 44.1421 30.1331 43.7101C30.3489 43.5976 30.7219 43.3038 30.9621 43.057L31.3987 42.6083L31.5297 43.12C31.6017 43.4014 31.7584 43.7367 31.8777 43.865C32.073 44.075 32.1559 44.0937 32.7039 44.0507C33.1123 44.0187 33.4528 43.9211 33.7371 43.7545C34.3496 43.3956 35.0609 42.5913 35.3723 41.9058L35.6422 41.3113L35.7656 41.6091C35.8976 41.9277 36.3771 42.2148 36.7772 42.2148C37.1624 42.2148 37.7162 41.7305 37.8421 41.2834C38.0466 40.5574 38.1385 40.379 38.4766 40.0514C38.7025 39.8325 38.8133 39.6347 38.8133 39.4502C38.8133 39.0367 38.476 39.0941 37.9801 39.592C37.6215 39.9521 37.55 40.0964 37.4536 40.6541C37.3923 41.009 37.3421 41.395 37.3421 41.512C37.3421 41.8128 37.0653 41.7794 36.9875 41.4692C36.8757 41.0242 37.0279 39.9694 37.2659 39.538C37.6264 38.8847 38.4939 38.5072 39.0057 38.781C39.7455 39.1769 39.4138 41.9007 38.4761 43.1296C38.1748 43.5245 38.1573 43.8141 38.4186 44.0753C38.7273 44.384 39.0343 44.4089 39.5893 44.1702C40.8612 43.6232 41.6411 41.986 41.3633 40.446C41.1465 39.2435 40.3934 38.2224 39.5943 38.0469C39.1149 37.9416 38.2687 38.1785 37.6602 38.5884C37.3505 38.797 37.0851 38.9352 37.0708 38.8953C37.0565 38.8555 37.1967 38.472 37.3823 38.0431C37.701 37.307 37.7512 37.2463 38.2789 36.9578C39.6145 36.228 40.8567 35.0804 41.409 34.0657C41.6197 33.6786 41.7007 33.3767 41.7344 32.851C41.7848 32.0653 41.678 31.7655 41.1782 31.2905C40.8091 30.9397 40.0424 30.8463 39.5075 31.087ZM14.2164 31.6797C12.5176 32.1369 11.0966 33.3046 10.4072 34.8099C10.0874 35.5082 10.0329 36.5805 10.2924 37.0672C10.716 37.8617 11.714 38.2893 12.4721 38.0012C12.8458 37.8591 12.7805 37.7392 12.2296 37.5562C11.945 37.4617 11.6707 37.2933 11.5826 37.159C11.3845 36.8566 11.3915 36.0632 11.5982 35.4064C11.9047 34.432 13.0131 33.2256 14.0478 32.74C14.6248 32.4692 14.7658 32.4574 15.0501 32.6565C15.5441 33.0025 15.4409 34.2288 14.6814 37.0326C14.0392 39.4038 13.9618 39.8505 14.1025 40.3728C14.2389 40.8792 14.7116 41.3486 15.2468 41.5088C15.9921 41.732 16.0141 41.7153 16.022 40.9157C16.0272 40.3936 16.1013 40.0095 16.3014 39.4694C17.0886 37.3439 18.6809 34.8389 19.5207 34.4047C19.7767 34.2724 19.8268 34.2719 19.9558 34.401C20.1749 34.62 20.2168 35.3308 20.0466 35.9397C19.9637 36.2363 19.5835 37.3778 19.2019 38.4764C18.1193 41.5922 17.6957 43.5314 17.9175 44.3552C18.1361 45.167 18.961 45.7446 19.9015 45.7446C20.2226 45.7446 20.2217 45.7489 20.0269 45.1073C19.9035 44.7012 19.897 44.4916 19.9886 43.8861C20.4385 40.9154 22.9893 35.3468 24.7342 33.5263C25.4752 32.7532 26.0705 33.0237 25.9153 34.0627C25.8801 34.2976 25.6517 35.0698 25.4076 35.7786C23.9049 40.1421 23.6365 41.1839 23.5479 42.9992C23.4533 44.9348 23.891 46.2974 24.9417 47.3395C25.624 48.0161 26.411 48.4083 27.7867 48.7575L28.8581 49.0293L32.4381 49.0238C36.2081 49.018 36.0148 49.0317 41.3634 48.3919C42.6851 48.2338 45.6422 47.8822 47.9349 47.6106C50.2275 47.3389 53.4495 46.9433 55.0948 46.7313C61.665 45.8847 64.0389 45.7057 67.7963 45.7732C70.0579 45.8138 70.8588 45.8645 71.7053 46.0209C72.9488 46.2506 73.9635 46.7057 74.272 47.1723L74.4703 47.4723L74.8605 47.1908C75.9033 46.438 76.4045 45.6275 76.4175 44.6731C76.4272 43.9591 76.127 43.4688 75.3819 42.9818C74.7434 42.5645 74.2197 42.3545 73.3021 42.1478C72.3192 41.9264 68.9158 41.9316 66.7665 42.1579C63.7213 42.4785 55.9827 43.6653 49.1618 44.8578C45.5782 45.4843 44.3039 45.6692 41.0692 46.0323C35.7624 46.6279 35.3046 46.6625 32.6342 46.6693C29.6997 46.677 29.0476 46.5875 27.8006 46.0057C26.4491 45.3753 25.9557 44.6302 25.8851 43.1133C25.8114 41.5306 26.0886 40.3398 27.1441 37.7046C28.023 35.5102 28.1701 34.962 28.1709 33.8806C28.1716 32.7747 28.0035 32.3419 27.4046 31.9083C26.2717 31.0878 24.4674 32.0655 23.2169 34.1775C22.9302 34.6616 22.6802 35.0421 22.6613 35.0232C22.6424 35.0043 22.5592 34.7285 22.4764 34.4102C22.199 33.344 21.4543 32.8724 20.3867 33.0867C20.0928 33.1457 19.6674 33.3023 19.4413 33.4348C18.9471 33.7243 18.0177 34.7078 17.555 35.4309C17.3702 35.7196 17.1976 35.9346 17.1714 35.9084C17.1453 35.8822 17.171 35.6057 17.2287 35.2939C17.7388 32.5356 16.5108 31.0623 14.2164 31.6797ZM17.3223 32.2898C17.4879 32.6143 17.6699 33.3662 17.7492 34.054C17.7732 34.2622 17.7925 34.2543 18.0507 33.9291L18.3265 33.5817L18.0909 33.0694C17.8449 32.5344 17.3818 31.9196 17.2248 31.9196C17.1745 31.9196 17.2184 32.0862 17.3223 32.2898ZM40.1977 32.1704C39.8697 32.4464 39.1513 33.4364 38.7033 34.23C38.3241 34.9015 37.9206 35.9397 38.0388 35.9397C38.3387 35.9397 39.4252 35.2477 39.9436 34.7265C40.8827 33.7824 41.2581 32.8335 40.9553 32.1694C40.8109 31.8523 40.5755 31.8526 40.1977 32.1704ZM40.4312 32.5417C40.3775 32.6142 40.054 33.0422 39.7123 33.4929C39.0587 34.3547 38.4514 35.4148 38.756 35.1621C38.9854 34.9718 40.0978 33.6209 40.4153 33.147C40.6663 32.7724 40.7585 32.4099 40.6028 32.4099C40.5621 32.4099 40.4848 32.4692 40.4312 32.5417ZM14.1029 33.1605C12.9751 33.7225 11.9552 35.0786 11.7906 36.2353C11.7145 36.7701 11.9563 37.154 12.429 37.2485C12.7637 37.3155 13.2141 37.7138 13.2141 37.9429C13.2141 38.3079 12.0911 38.6448 11.3966 38.4883C10.8637 38.3682 10.8486 38.4489 11.3605 38.6811C11.8009 38.8809 12.46 38.9307 13.1517 38.8164C13.4621 38.7652 13.5553 38.6949 13.6666 38.4285C13.7414 38.2495 13.8026 38.0415 13.8026 37.9664C13.8026 37.8913 13.5367 37.6883 13.2118 37.5151C12.4657 37.1175 12.2883 36.8626 12.3717 36.3071C12.502 35.4386 13.4937 34.1757 14.439 33.6744C14.7995 33.4832 14.8815 33.3898 14.8815 33.17C14.8815 32.8324 14.7645 32.831 14.1029 33.1605ZM50.3379 33.1889C50.0659 33.3002 49.8328 33.5783 49.655 34.0036C49.1381 35.2405 50.0549 36.4245 51.6595 36.5922C51.9846 36.6262 52.2505 36.6861 52.2505 36.7254C52.2505 36.7646 52.0563 37.2348 51.8188 37.77C51.2439 39.0664 51.0735 39.6741 51.0735 40.4284C51.0735 41.4871 51.442 42.017 52.231 42.0928C53.1335 42.1794 54.0245 41.6086 54.177 40.846L54.2384 40.5391L53.8762 40.7527C53.5794 40.9277 53.4712 40.947 53.2773 40.8586C52.7548 40.6206 52.835 39.7061 53.5132 38.1708C54.0037 37.0604 54.2725 36.015 54.1498 35.6954C54.081 35.516 53.9183 35.5171 52.5263 35.7054C51.7989 35.8039 51.0172 35.668 50.6802 35.3845C50.4365 35.1795 50.3869 35.0651 50.3869 34.7069C50.3869 34.1806 50.8025 33.6243 51.1081 33.7416C51.268 33.8029 51.2817 33.8833 51.224 34.4213C51.1706 34.921 51.186 35.0418 51.3096 35.0892C51.5254 35.1719 51.7601 34.7895 51.7601 34.3555C51.7601 33.3842 51.1278 32.8657 50.3379 33.1889ZM52.1086 33.611C52.1894 33.8414 52.2093 34.6705 52.1423 35.0082C52.0843 35.3001 52.4957 35.3321 52.648 35.0475C52.8203 34.7256 52.6957 33.9005 52.4323 33.6203C52.1573 33.3275 52.0079 33.3233 52.1086 33.611ZM24.9054 33.9223C23.1763 35.8909 20.6864 41.3537 20.3877 43.8334C20.2858 44.6795 20.4389 45.5798 20.6928 45.6282C20.8447 45.6572 20.8645 45.571 20.8645 44.882C20.8645 42.9088 22.4536 38.9051 24.5783 35.5248C25.4404 34.1534 25.6623 33.5865 25.3374 33.5865C25.262 33.5865 25.0676 33.7376 24.9054 33.9223ZM59.5085 34.1671C59.5085 34.2189 59.5532 34.2889 59.6079 34.3227C59.6627 34.3566 59.8055 34.5687 59.9254 34.7942C60.1154 35.1517 60.1435 35.3551 60.1446 36.3809C60.1458 37.4127 60.1127 37.6541 59.8754 38.3419C59.5874 39.1764 59.0737 40.1558 58.9238 40.1558C58.7063 40.1558 58.7277 39.9064 59.002 39.2456C59.1636 38.8564 59.3618 38.2732 59.4423 37.9497C59.6394 37.1578 59.7513 35.8416 59.6216 35.8416C59.5666 35.8416 59.4912 35.9377 59.4538 36.0553C59.3369 36.4234 58.0554 38.585 57.5819 39.2127C57.3329 39.5427 57.0877 39.9304 57.037 40.0744C56.8384 40.6374 56.3224 40.4709 56.3947 39.8671C56.4176 39.6754 56.5539 39.1274 56.6974 38.6496C56.8937 37.9958 56.9584 37.5686 56.9584 36.9239C56.9584 36.1333 56.9363 36.0366 56.6728 35.6731C56.3867 35.2783 55.99 34.9508 55.6476 34.8269C55.4852 34.7681 55.472 34.7982 55.5282 35.0977C55.6217 35.5967 55.4316 36.5943 54.9971 37.8835C54.3106 39.9208 54.2766 40.4746 54.8043 41.0268C55.4845 41.7382 56.6049 41.5935 57.3162 40.7023L57.5859 40.3644L57.8853 40.7107C58.126 40.9889 58.2739 41.0669 58.6401 41.1081C59.0701 41.1566 59.121 41.1359 59.5541 40.7368C59.8064 40.5044 60.1212 40.1291 60.2538 39.9029C60.5537 39.3914 61.0426 38.0645 61.232 37.248C61.5046 36.0729 61.0811 34.7227 60.3196 34.3391C59.9358 34.1458 59.5085 34.0551 59.5085 34.1671ZM65.5136 34.3823C64.0922 35.0856 62.9987 37.7672 63.6888 38.8566C64.0767 39.4691 64.8299 38.7553 65.7607 36.8932C66.3637 35.687 66.5734 35.0332 66.3931 34.9218C66.2668 34.8439 65.2787 35.9134 64.9298 36.5058C64.7801 36.7598 64.5384 37.3211 64.3924 37.7529C64.2465 38.1847 64.092 38.5275 64.0491 38.5147C64.0063 38.502 63.9577 38.267 63.9413 37.9925C63.889 37.1203 64.3315 36.111 65.1349 35.27C65.6592 34.7211 66.0428 34.5121 66.2341 34.6709C66.3472 34.7647 66.3742 34.7508 66.3742 34.5985C66.3742 34.3933 66.1996 34.1748 66.0358 34.1749C65.9791 34.1749 65.7441 34.2683 65.5136 34.3823ZM68.6988 35.3246C68.069 37.1632 67.7383 39.0614 68.0661 38.9562C68.2733 38.8897 68.7078 37.9906 68.9314 37.1653C69.1644 36.3063 69.2496 34.6633 69.0646 34.5989C69.007 34.5789 68.8423 34.9054 68.6988 35.3246ZM19.1757 35.2433C18.1952 36.3334 17.1885 38.1323 16.6357 39.7815C16.3937 40.5038 16.3416 40.8045 16.3684 41.3242L16.4018 41.9697L15.8752 41.9997C15.5855 42.0163 15.2215 41.9855 15.066 41.9313C14.6702 41.7934 14.7141 41.8816 15.1512 42.1029C15.6653 42.363 16.0366 42.4248 16.5489 42.3353L16.9903 42.2584L16.9991 41.4277C17.0061 40.7519 17.0648 40.445 17.3131 39.782C17.6874 38.783 18.2885 37.6693 19.14 36.3964C19.7554 35.4765 19.9356 34.9654 19.6967 34.8178C19.6478 34.7876 19.4134 34.9791 19.1757 35.2433ZM78.1641 36.0293L78.3519 36.6091L78.1113 37.0833C77.5143 38.2595 76.3428 39.4763 75.2182 40.0882C74.3074 40.5838 73.1379 40.7664 72.3234 40.5403C71.7018 40.3678 71.8094 40.5106 72.4687 40.7332C73.2193 40.9866 74.3095 41.0075 74.9759 40.7814C76.7055 40.1944 79.1988 37.4301 78.8369 36.5008C78.7218 36.2054 78.1628 35.4494 78.0595 35.4494C78.0137 35.4494 78.0607 35.7103 78.1641 36.0293ZM44.7473 35.7241C43.6947 36.0897 42.9784 36.7787 42.4179 37.9647C42.1229 38.5889 42.1005 38.7089 42.0998 39.6714C42.0992 40.6299 42.1209 40.7495 42.3933 41.2803C42.7072 41.8922 43.0862 42.1725 43.7438 42.2792C44.3036 42.37 45.0784 42.0821 45.6224 41.581C45.888 41.3364 46.1191 41.1363 46.1361 41.1363C46.153 41.1363 46.227 41.2804 46.3007 41.4565C46.3742 41.6326 46.5911 41.9141 46.7825 42.0822C47.1188 42.3773 47.1484 42.3845 47.6516 42.2931C48.3274 42.1703 48.581 42.0328 49.2363 41.4341C49.813 40.9071 49.8965 40.8619 49.8965 41.0767C49.8965 41.3099 49.0087 42.2138 48.4839 42.5147C47.926 42.8345 47.4981 42.8788 47.1721 42.6505C46.875 42.4425 46.8906 42.6506 47.1949 42.9546C47.3813 43.1411 47.5383 43.1953 47.891 43.1953C48.46 43.1953 48.8871 42.996 49.5015 42.4438C50.0491 41.9516 50.2422 41.4969 50.1495 40.9177C50.1041 40.6337 50.131 40.455 50.2459 40.2799C50.4956 39.8988 51.4729 37.4031 51.4114 37.3035C51.2588 37.0567 51.0533 37.349 50.3198 38.8566C49.4285 40.6885 49.0632 41.2511 48.6145 41.4831C48.3296 41.6304 48.2962 41.629 48.1106 41.4621C47.9372 41.3062 47.9186 41.202 47.9655 40.646C48.0215 39.9821 48.2855 39.1605 49.0888 37.1506L49.5649 35.9593L49.2158 35.9015C49.0238 35.8697 48.7006 35.8433 48.4976 35.8427C48.1569 35.8417 48.112 35.8756 47.9141 36.2828C47.7168 36.6888 47.5426 36.8533 47.5426 36.6336C47.5426 36.5837 47.423 36.401 47.2769 36.2273C46.7313 35.5792 45.7352 35.3811 44.7473 35.7241ZM57.3879 37.0426C57.3837 37.7794 57.3288 38.3071 57.2226 38.6314C57.1352 38.8986 57.0802 39.1337 57.1005 39.1539C57.1207 39.1741 57.2625 38.9776 57.4156 38.7173C57.6657 38.292 57.694 38.1541 57.694 37.3614C57.694 36.7527 57.6475 36.3952 57.544 36.2092C57.4023 35.954 57.3939 35.999 57.3879 37.0426ZM49.1351 38.2396C48.4278 40.1333 48.2142 40.9569 48.4007 41.0721C48.5857 41.1863 48.8057 40.7825 49.4338 39.1753C50.5111 36.419 50.4452 36.642 50.2298 36.4789C50.1274 36.4015 49.9995 36.3368 49.9456 36.3352C49.8916 36.3336 49.5269 37.1906 49.1351 38.2396ZM45.868 36.6238C45.0545 37.0537 44.4052 38.1018 44.1959 39.3229C44.061 40.1108 44.1273 40.6152 44.4137 40.9793C44.848 41.5312 45.4048 41.1296 46.0665 39.7869C46.8274 38.2434 47.1548 36.8658 46.8364 36.5476C46.6675 36.3787 46.273 36.4097 45.868 36.6238ZM46.0055 37.1041C45.5847 37.4089 45.0194 38.2024 44.7734 38.8339C44.5712 39.353 44.4694 40.2634 44.5928 40.4492C44.7353 40.6634 44.8558 40.4853 44.9842 39.8711C45.1736 38.965 45.6217 38.165 46.267 37.5812C46.7149 37.1762 46.8243 37.0258 46.7359 36.9374C46.5631 36.7646 46.4336 36.7942 46.0055 37.1041ZM53.9838 38.176C53.4868 39.3395 53.2613 40.4233 53.5349 40.3327C53.7278 40.2688 53.8652 39.962 54.2147 38.8139C54.3938 38.2261 54.5062 37.6612 54.4881 37.4412C54.4589 37.086 54.4336 37.1228 53.9838 38.176ZM31.209 38.2339C30.7948 38.4142 30.0875 39.2299 29.7472 39.9196C29.5246 40.3708 29.4518 40.6727 29.4183 41.2845C29.363 42.297 29.543 42.8042 29.9565 42.801C30.4701 42.7969 30.9066 42.237 31.793 40.4452C32.1563 39.7108 32.2493 39.4254 32.2244 39.1216L32.1929 38.7341L31.6334 39.2588C31.022 39.8322 30.4923 40.772 30.2301 41.7491C30.0564 42.3956 29.9255 42.4655 29.8311 41.9623C29.607 40.7686 30.5171 39.085 31.6497 38.598C32.2231 38.3514 32.3135 38.0947 31.825 38.1006C31.6497 38.1027 31.3725 38.1627 31.209 38.2339ZM34.7866 38.454C34.7356 38.5882 34.6939 38.7325 34.6939 38.775C34.6939 38.8174 34.4771 39.5326 34.2122 40.3642C33.6469 42.1382 33.5542 42.5579 33.707 42.6523C34.0761 42.8803 34.8601 40.8265 35.2263 38.6725C35.2781 38.368 35.2575 38.3092 35.083 38.2636C34.9302 38.2236 34.8562 38.2712 34.7866 38.454ZM61.133 39.1388C60.5979 40.5849 59.5857 41.6265 58.7157 41.6265C58.4632 41.6265 58.4264 41.6516 58.5179 41.7617C58.6866 41.9651 59.191 42.0324 59.6443 41.9121C59.9197 41.839 60.2053 41.6436 60.5433 41.2968C61.3498 40.4695 61.6584 39.5998 61.3961 38.8937C61.3158 38.6773 61.2974 38.6945 61.133 39.1388ZM69.5303 39.1628C68.9752 40.0193 67.9019 40.6405 66.9627 40.649C66.4253 40.6539 66.4243 40.6545 66.6966 40.8021C67.5803 41.2811 68.7301 40.9467 69.663 39.9393C70.1988 39.3607 70.3175 39.0385 70.0816 38.8027C69.9022 38.6234 69.8637 38.6485 69.5303 39.1628ZM57.4504 41.2816C56.9398 41.825 55.9737 41.9804 55.0852 41.662L54.6341 41.5004L54.1303 41.8986C53.5301 42.3728 53.0663 42.5451 52.3802 42.5485C51.7575 42.5515 51.7907 42.6533 52.4611 42.797C53.2559 42.9675 53.9391 42.7807 54.731 42.1763L55.1775 41.8357L55.6766 42.0252C56.4163 42.3061 56.9686 42.2732 57.6557 41.9071C57.9735 41.7377 58.231 41.5723 58.228 41.5394C58.225 41.5064 58.0987 41.3819 57.9473 41.2626L57.672 41.0458L57.4504 41.2816ZM41.8015 41.6859C41.7667 41.8419 41.692 42.1241 41.6356 42.3129C41.2658 43.5505 40.2601 44.5579 39.2302 44.7225C38.9119 44.7734 38.8133 44.8326 38.8133 44.9728C38.8133 45.1267 38.8886 45.1559 39.2792 45.1542C39.9159 45.1512 40.4806 44.8716 41.162 44.222C41.8909 43.5269 42.1875 42.8875 42.1258 42.144C42.0735 41.5123 41.896 41.2617 41.8015 41.6859ZM37.8843 41.9083C37.7773 42.395 37.4008 42.657 36.8191 42.6493C36.5403 42.6456 36.1779 42.5719 36.0135 42.4855L35.7149 42.3286L35.4495 42.7477C34.7721 43.8182 33.4389 44.6595 32.6369 44.5226L32.2909 44.4635L32.5361 44.6607C32.879 44.9363 33.6701 44.9295 34.274 44.6457C34.8129 44.3925 35.7748 43.468 35.957 43.0281L36.0838 42.7221L36.4922 42.9076C37.4884 43.3597 38.3611 42.8632 38.1178 41.9828C37.9991 41.5528 37.9648 41.5419 37.8843 41.9083ZM45.8742 41.9776C45.686 42.1756 45.3418 42.4234 45.1096 42.5283C44.6429 42.7391 43.8285 42.7799 43.393 42.6143C42.9612 42.4501 43.1765 42.6915 43.6559 42.9092C44.2355 43.1723 45.0475 43.1556 45.5888 42.8694C46.0982 42.6001 46.4337 42.104 46.3035 41.8124C46.222 41.63 46.1948 41.6405 45.8742 41.9776ZM30.9668 43.7001C30.778 43.8655 30.447 44.0833 30.2312 44.1842C29.7352 44.416 28.8407 44.4322 28.5303 44.2148C28.4069 44.1285 28.2823 44.0815 28.2533 44.1104C28.2243 44.1394 28.4148 44.2975 28.6764 44.4617C29.4896 44.9721 30.5823 44.8081 31.1915 44.0842C31.4389 43.7904 31.5516 43.3863 31.3837 43.3954C31.3432 43.3976 31.1556 43.5347 30.9668 43.7001ZM76.7401 43.6366C76.7839 43.7983 76.818 44.2837 76.8157 44.7151C76.8124 45.3683 76.768 45.5835 76.5507 46.0018C76.2669 46.5479 75.2194 47.5708 74.7846 47.7263C74.5745 47.8015 74.5149 47.8857 74.5149 48.1074C74.5149 48.478 74.7071 48.4768 75.3608 48.1019C75.9416 47.7689 76.7387 46.916 77.0483 46.2962C77.5355 45.3211 77.499 44.2892 76.9559 43.676L76.6603 43.3424L76.7401 43.6366ZM20.6683 45.9561C20.4487 46.1398 20.3388 46.1552 19.6139 46.1048C19.1689 46.0737 18.8048 46.0707 18.8048 46.0981C18.8048 46.1821 19.6235 46.5111 19.8837 46.5315C20.4192 46.5735 20.7316 46.5196 21.0393 46.332C21.3151 46.164 21.3462 46.1078 21.2565 45.9402C21.1244 45.6933 20.9779 45.6973 20.6683 45.9561ZM63.8731 46.2436C61.7118 46.3863 57.0381 46.8869 54.4083 47.2575C53.0866 47.4437 51.1005 47.6878 49.9946 47.7997C48.8887 47.9118 46.9026 48.1349 45.5809 48.2955C36.451 49.4052 35.7085 49.471 32.3462 49.4685C28.8555 49.4661 27.659 49.3023 26.1698 48.6236C25.7702 48.4414 25.43 48.3056 25.4137 48.3218C25.3975 48.338 25.6086 48.4981 25.8827 48.6776C27.266 49.5829 28.8731 49.8704 32.6833 49.8947C35.5326 49.9128 37.5456 49.7656 40.5298 49.3213C41.3929 49.1928 43.357 48.9321 44.8944 48.742C46.4318 48.5518 48.2561 48.3255 48.9485 48.239C49.6408 48.1524 50.2287 48.103 50.2549 48.1292C50.3423 48.2166 48.9874 48.4824 46.4146 48.8822C45.0121 49.1002 43.048 49.4095 42.05 49.5695C41.052 49.7296 39.2645 49.9712 38.0777 50.1067C36.8909 50.2422 35.5781 50.3994 35.1603 50.4563C34.7426 50.5132 34.0143 50.5462 33.542 50.5298C32.7692 50.503 32.6507 50.5233 32.3574 50.7323C31.9546 51.0196 31.7287 50.9915 30.4718 50.4979C29.8066 50.2367 29.3185 50.1148 28.7443 50.0665C28.3041 50.0297 27.8743 49.9416 27.7893 49.871C27.5897 49.7055 27.2363 49.7957 26.8667 50.1066C26.5073 50.4089 26.4323 50.669 26.6252 50.9442C26.7537 51.1275 26.8322 51.1472 27.211 51.0904C27.4516 51.0543 27.8309 50.9605 28.0538 50.8818C28.5564 50.7046 28.8434 50.7628 29.7899 51.2339C30.1944 51.4353 30.7518 51.6742 31.0286 51.7649L31.5317 51.9297L31.5817 52.4404C31.6092 52.7214 31.707 53.3757 31.7989 53.8944L31.9661 54.8376L31.7117 55.3153C31.1151 56.4356 31.6963 56.8647 32.6342 55.9966C33.1067 55.5593 33.3163 55.5056 34.5958 55.4934C35.2702 55.487 35.9559 55.4514 36.1198 55.4144L36.4179 55.347L37.1298 56.7979L37.8417 58.2489L37.69 58.612C37.3924 59.324 37.5698 60.0584 38.0058 59.92C38.12 59.8839 38.3677 59.6394 38.5564 59.3768C38.8948 58.9058 38.9169 58.8939 40.2207 58.4731L41.542 58.0467L42.5785 58.9192C43.5048 59.6988 43.6363 59.8501 43.8158 60.3424C44.2193 61.4489 44.3677 61.5929 44.7422 61.2412C44.8855 61.1065 44.9978 60.8565 45.0394 60.5788C45.137 59.9284 45.1363 59.9293 46.0073 59.1908C46.4471 58.818 46.9094 58.4152 47.0344 58.2957C47.3084 58.0342 47.4183 58.0498 48.7969 58.5464C49.6367 58.8488 49.8753 58.983 50.2191 59.3458C50.7115 59.8655 50.9049 59.9827 51.1284 59.897C51.2765 59.8401 51.2881 59.7242 51.2297 58.8775L51.1639 57.9222L51.592 57.1036C51.8273 56.6533 52.0956 56.0864 52.188 55.8437L52.356 55.4025L53.848 55.4567C55.4379 55.5145 55.717 55.5827 56.2401 56.0419C56.7518 56.491 57.2734 56.5512 57.4168 56.1778C57.4509 56.0889 57.3622 55.78 57.2184 55.487C56.9008 54.8396 56.8843 54.2879 57.1545 53.3435C57.2624 52.9664 57.3507 52.4953 57.3507 52.2968C57.3507 51.9466 57.3676 51.9297 57.9147 51.7296C58.2249 51.6161 58.8384 51.3652 59.2782 51.1721C59.9393 50.8815 60.1515 50.8307 60.5042 50.8787C61.7847 51.0525 62.2756 51.0663 62.3615 50.9307C62.512 50.6929 62.4617 50.5678 62.0115 50.0611C61.7698 49.789 61.5111 49.4456 61.4366 49.2978C61.2779 48.9836 61.1403 46.9212 61.278 46.9212C61.3281 46.9212 62.087 46.8468 62.9644 46.7559C64.0916 46.6391 65.4948 46.5888 67.7473 46.5843C71.127 46.5776 71.9428 46.658 73.1806 47.1196C73.6779 47.305 73.6797 47.3049 73.4508 47.1147C73.1448 46.8602 72.1305 46.5531 70.984 46.3679C69.8442 46.1838 65.8396 46.1138 63.8731 46.2436ZM58.6258 47.2189C57.4351 47.3389 56.0556 47.5883 55.9392 47.7047C55.8606 47.7833 55.8964 47.9249 56.0708 48.2249C56.2652 48.5592 56.3183 48.8086 56.3519 49.5452C56.3918 50.4168 56.4055 50.4636 56.6949 50.707C57.0746 51.0264 57.3054 50.9955 58.4816 50.4679C59.1176 50.1825 59.5584 50.0541 60.0724 50.0043C60.4635 49.9664 60.7833 49.9301 60.783 49.9236C60.7828 49.917 60.6736 49.647 60.5402 49.3234C60.3506 48.8634 60.2973 48.5588 60.2955 47.9262L60.2931 47.1173L59.8272 47.131C59.5711 47.1386 59.0303 47.1781 58.6258 47.2189ZM53.3294 47.9547C53.2484 47.9713 52.6858 48.0605 52.0788 48.1526C51.472 48.2449 50.9776 48.3807 50.9776 48.3807C50.9776 48.3807 49.4908 48.7425 48.6215 48.9312C47.7522 49.12 47.0111 49.2744 47.0111 49.2744C47.0111 49.2744 46.8044 49.3725 46.7414 49.3725C46.4807 49.3725 45.3301 49.596 45.26 49.6603C45.2183 49.6986 45.2798 49.9458 45.3966 50.2098L45.609 50.6897L45.3467 51.1905C45.2025 51.4659 44.9574 51.8424 44.8021 52.0271L44.5197 52.363L44.204 52.0688C43.718 51.616 43.3251 51.0354 43.3251 50.7701C43.3251 50.6382 43.4168 50.4015 43.5289 50.2441C43.6411 50.0866 43.7183 49.9206 43.7005 49.8749C43.6829 49.8292 43.0725 49.8944 42.3443 50.0197C41.616 50.145 40.4464 50.3169 39.7451 50.4017C38.1962 50.5891 38.1268 50.6087 38.1268 50.8596C38.1268 51.1554 38.7403 51.7256 39.0584 51.7256C39.3385 51.7256 39.8321 51.2851 39.9428 50.9362C40.011 50.7216 40.2002 50.6932 40.4982 50.8525C40.6657 50.9421 40.689 51.0219 40.6391 51.3341C40.5492 51.8963 40.2599 52.5 39.8063 53.0725C39.3094 53.6995 38.7392 54.0139 38.0943 54.0166C37.6269 54.0184 37.6173 54.0249 37.3799 54.4934L37.1391 54.9682L37.6842 55.8677C37.9841 56.3626 38.323 57.0242 38.4375 57.3381C38.6641 57.9591 38.7593 58.0695 38.9403 57.9199C39.0053 57.8662 39.3454 57.7497 39.6961 57.6612C40.5714 57.4399 41.1414 57.2187 41.2866 57.0439C41.3536 56.963 41.4809 56.6631 41.5693 56.3776L41.73 55.8583L41.3391 55.4834C40.856 55.0198 40.6769 54.6184 40.6769 53.9993C40.6769 53.2789 41.0094 52.7226 41.6463 52.3774C42.0808 52.142 42.2311 52.108 42.5961 52.1627C43.423 52.2867 44.0116 53.0895 44.0116 54.093C44.0116 54.7428 43.7034 55.2688 42.9411 55.9192C42.6095 56.2022 42.4175 56.4563 42.3489 56.7036C42.1815 57.3057 42.2241 57.4404 42.6931 57.7936C42.9356 57.9762 43.4457 58.4141 43.8267 58.7668L44.5193 59.4078L44.7573 59.1038C44.8882 58.9366 45.3526 58.5018 45.7893 58.1377L46.5833 57.4757L46.5357 57.0533C46.4751 56.5151 46.2832 56.2271 45.6806 55.7696C45.1794 55.3892 44.6982 54.6241 44.6982 54.2077C44.6982 53.8156 45.0729 52.9788 45.3991 52.6423C45.8136 52.2149 46.2397 52.0759 46.727 52.2092C47.6599 52.4643 48.1301 53.0177 48.1307 53.8614C48.1311 54.5408 47.9582 54.9277 47.4488 55.3874L47.0309 55.7644L47.1985 56.1718C47.6509 57.2707 47.545 57.1687 48.5905 57.5137C49.12 57.6885 49.6804 57.8958 49.836 57.9744C50.1788 58.1477 50.2021 58.12 50.4785 57.2135C50.5858 56.8614 50.8498 56.3219 51.0651 56.0148C51.6673 55.1553 51.6896 55.0969 51.5624 54.7116C51.43 54.3105 51.1341 54.0788 50.7542 54.0788C50.0987 54.0788 49.1293 53.343 48.4631 52.3395C48.0735 51.7528 47.9981 51.2749 48.2273 50.8467C48.384 50.554 48.5775 50.602 48.8197 50.9935C49.0664 51.3927 49.6547 51.8253 49.9438 51.8203C50.2456 51.815 50.5765 51.5964 50.7296 51.3015C50.848 51.0734 50.848 50.9809 50.7296 50.6454C50.5817 50.2264 50.5815 50.2266 51.0245 50.249C51.4949 50.2729 51.8076 50.4371 51.9988 50.7605C52.2386 51.1664 52.312 52.1873 52.144 52.7778C51.981 53.3498 51.9922 53.4129 52.3688 54.0424L52.6698 54.5452L54.0539 54.603C54.8152 54.6348 55.5815 54.6893 55.7569 54.7241L56.0756 54.7874L56.0791 54.2615C56.0809 53.9723 56.1457 53.4489 56.2228 53.0983C56.448 52.0745 56.4186 51.7913 56.0462 51.3965L55.7225 51.0534L54.9428 51.1505C53.959 51.2728 53.6433 51.2126 53.1954 50.8169C52.7712 50.4421 52.639 49.9786 52.8859 49.7317C53.1317 49.4859 53.2509 49.5271 53.7211 50.0204C54.1411 50.4608 54.1644 50.4711 54.6547 50.4305C55.3333 50.3742 55.6851 50.1114 55.6117 49.7156C55.5378 49.3164 55.3123 48.886 55.1658 48.8648C55.0998 48.8551 54.7368 48.8441 54.3592 48.8402L53.6726 48.8332L53.6928 48.5517C53.7038 48.3968 53.7879 48.1872 53.8796 48.0859C54.0392 47.9096 54.0342 47.9022 53.7614 47.9131C53.6047 47.9194 53.4103 47.9381 53.3294 47.9547ZM57.4053 48.1197C57.08 48.5839 57.3053 49.1835 57.8983 49.4312C58.1439 49.5337 58.2916 49.5416 58.4982 49.4631C59.1773 49.205 59.3071 48.7151 58.8316 48.2063C58.586 47.9435 58.4793 47.9017 58.0525 47.9017C57.6527 47.9017 57.5287 47.9435 57.4053 48.1197ZM57.8788 48.2392C57.788 48.4755 57.882 48.7309 58.0734 48.7677C58.3761 48.826 58.4796 48.6299 58.2948 48.3479C58.111 48.0676 57.9598 48.0281 57.8788 48.2392ZM36.4279 50.7461C36.055 50.7923 35.9055 50.868 35.7206 51.1041L35.4863 51.4035L34.7713 51.2756C33.5524 51.0575 33.3513 51.0838 32.9169 51.518C32.4805 51.9543 32.4814 51.9466 32.6914 53.4825C32.8947 54.97 32.8458 54.8694 33.2896 54.7112C33.5129 54.6315 34.0879 54.5759 34.7138 54.5734C35.902 54.5685 36.1816 54.4791 36.4707 54.0116C36.7787 53.5132 36.8318 53.1958 36.6873 52.7151C36.5069 52.1145 36.5242 51.7902 36.767 51.2261C36.8822 50.9583 36.9595 50.7276 36.9386 50.7134C36.9178 50.6992 36.6879 50.714 36.4279 50.7461ZM34.3506 51.9401C34.0359 52.1072 33.9091 52.3271 33.9124 52.7004C33.9162 53.1287 34.091 53.374 34.47 53.4826C34.8624 53.5951 35.3275 53.3872 35.5212 53.0125C35.8214 52.4325 35.6254 52.0198 35.0499 52.0198C34.8757 52.0198 34.6912 51.9784 34.64 51.9278C34.5819 51.8706 34.4729 51.8752 34.3506 51.9401ZM53.3539 52.0169C53.042 52.1506 53.0706 52.5308 53.4321 53.0562C53.7064 53.4546 53.7651 53.4903 54.1432 53.4884C54.9287 53.4842 55.3419 52.8071 54.8832 52.276C54.6983 52.0618 54.5482 52.0014 54.114 51.9662C53.8173 51.942 53.4752 51.965 53.3539 52.0169ZM34.562 52.4933C34.4728 52.5919 34.3997 52.7243 34.3997 52.7874C34.3997 52.9604 34.8603 52.9254 34.9286 52.7471C35.093 52.3189 34.8636 52.1601 34.562 52.4933ZM53.8198 52.4507C53.8198 52.5167 53.8796 52.6524 53.9527 52.7523C54.1121 52.9702 54.4385 52.8865 54.391 52.64C54.3529 52.4427 53.8198 52.2661 53.8198 52.4507ZM41.9274 53.0081C41.6806 53.1518 41.4615 53.6233 41.4615 54.0104C41.4615 54.4089 41.8007 54.9473 42.1824 55.1548C42.452 55.3014 42.4646 55.2964 42.7964 54.9168C43.2116 54.4418 43.2862 54.1731 43.1394 53.683C42.9531 53.0613 42.3821 52.7434 41.9274 53.0081ZM46.0444 53.074C45.6082 53.5557 45.555 54.4067 45.933 54.8557C46.264 55.249 46.5934 55.2492 46.9607 54.8562C47.4464 54.3363 47.4322 53.5194 46.9298 53.0738C46.6813 52.8536 46.2438 52.8537 46.0444 53.074ZM39.1981 54.7576C38.8166 55.139 38.796 55.7372 39.1522 56.0933C39.468 56.4091 39.7204 56.3971 40.1113 56.0479C40.3865 55.8021 40.4317 55.6971 40.4317 55.3039C40.4317 54.9409 40.3836 54.807 40.2001 54.6585C39.8701 54.3913 39.531 54.4248 39.1981 54.7576ZM48.5855 54.6782C48.3371 55.0328 48.3764 55.7057 48.6621 55.9913C49.1933 56.5223 49.8046 56.4059 49.9733 55.7416C50.1477 55.0548 49.8411 54.6273 49.0863 54.5049C48.8053 54.4593 48.7177 54.4896 48.5855 54.6782ZM39.4672 55.1247C39.3452 55.2467 39.3949 55.7643 39.5244 55.7216C39.7287 55.6542 39.9049 55.2262 39.7649 55.1373C39.6183 55.044 39.5507 55.0412 39.4672 55.1247ZM49.0641 55.2534C49.0314 55.3062 49.0552 55.4437 49.1169 55.559C49.2179 55.7476 49.2442 55.7535 49.38 55.6176C49.4631 55.5347 49.5043 55.3971 49.4716 55.3121C49.4057 55.1402 49.1562 55.1043 49.0641 55.2534ZM43.8547 56.1771C43.6416 56.3902 43.5212 56.6052 43.5212 56.7729C43.5212 57.1192 44.0095 57.6086 44.3549 57.6086C44.7268 57.6086 45.1886 57.1197 45.1886 56.7262C45.1886 56.3586 44.7295 55.8437 44.4017 55.8437C44.2843 55.8437 44.0381 55.9937 43.8547 56.1771ZM44.1751 56.5955C44.1391 56.6314 44.1097 56.7448 44.1097 56.8474C44.1097 56.9848 44.1679 57.0257 44.3304 57.0027C44.6187 56.9617 44.707 56.5301 44.4271 56.5301C44.3245 56.5301 44.211 56.5595 44.1751 56.5955Z" fill="#572A01"/>
<path fill-rule="evenodd" clip-rule="evenodd" d="M14.8973 62.9039C13.7996 63.1663 13.029 64.696 13.2882 66.0984C13.5933 67.7496 15.0931 69.1365 16.8755 69.4156C17.1521 69.4589 17.112 69.4259 16.5459 69.143C14.7923 68.2668 13.9073 66.4452 14.5393 65.0131C14.7433 64.5509 15.1079 64.1527 15.5353 63.9256C15.9121 63.7252 15.9826 63.5399 15.807 63.2112C15.7389 63.0836 15.2592 62.8032 15.1667 62.8368C15.1545 62.8413 15.0333 62.8715 14.8973 62.9039ZM73.4235 63.0675C73.3293 63.1554 73.2283 63.3226 73.1992 63.439C73.1539 63.6197 73.1904 63.6857 73.4489 63.8903C74.3811 64.6283 74.7074 65.253 74.6448 66.1802C74.5975 66.8824 74.3639 67.4933 73.9511 67.994C73.5475 68.4837 72.8586 69.0075 72.3877 69.1829C71.6711 69.4498 71.8343 69.5468 72.6442 69.3354C74.0185 68.9766 75.1854 67.913 75.6201 66.623C75.7504 66.2359 75.7776 65.9927 75.7551 65.4103C75.7232 64.5851 75.522 64.0385 75.0526 63.5027C74.5692 62.9509 73.7754 62.7388 73.4235 63.0675ZM17.6945 64.2872C17.2625 64.4261 16.6698 64.9273 16.4912 65.3049C15.8911 66.5723 16.448 68.2273 17.6846 68.8516C18.4837 69.255 19.9394 69.3465 20.8875 69.053C21.1775 68.9632 21.4294 68.9043 21.4471 68.922C21.523 68.9982 20.1996 69.5412 19.5507 69.7002C18.3366 69.9977 16.7456 69.94 15.7807 69.5636C15.6792 69.524 15.6477 69.5333 15.684 69.5923C15.7907 69.7652 16.5839 70.1617 17.0787 70.2894C17.6836 70.4454 18.8185 70.4618 19.4665 70.3237C20.4689 70.1102 22.2145 69.2549 22.9741 68.6051C23.1389 68.4641 23.2928 68.3488 23.3162 68.3488C23.3395 68.3488 23.3073 68.4719 23.2446 68.6223C23.1819 68.7727 23.1306 69.0607 23.1306 69.2625C23.1306 69.5832 23.1689 69.6674 23.4361 69.9353C23.6864 70.1861 23.797 70.2414 24.048 70.2414C24.4147 70.2414 24.6607 70.086 24.764 69.7888C24.9233 69.3308 24.5477 68.9365 24.1812 69.1772C23.9337 69.3398 23.7601 69.2793 23.7601 69.0305C23.7601 68.7708 24.3293 67.9357 24.7315 67.6053C25.2615 67.17 26.1127 66.7047 26.7893 66.4803C27.3135 66.3064 27.5601 66.2715 28.2646 66.2718C28.8676 66.2721 29.1104 66.2451 29.1104 66.178C29.1104 66.0252 28.2457 65.6105 27.7084 65.5056C26.3954 65.249 24.1696 65.7492 22.5655 66.6615C22.2091 66.8642 21.7921 67.0835 21.6388 67.1487C21.4857 67.214 21.4044 67.2829 21.4584 67.302C21.5764 67.3437 22.119 67.1704 23.1512 66.7612C24.1735 66.356 25.7066 65.9056 26.2188 65.86C26.6059 65.8256 26.5898 65.8354 25.9631 66.0142C25.0998 66.2607 23.9026 66.7176 22.1977 67.4514C20.6157 68.1323 20.119 68.2672 19.1894 68.2688C17.7545 68.2713 16.968 67.7541 16.8571 66.7354C16.8381 66.5601 16.8629 66.3117 16.9124 66.1832L17.0023 65.9495L17.2985 66.4986C17.5175 66.9045 17.6753 67.0935 17.9039 67.2238C18.9477 67.8184 20.3369 66.846 20.1987 65.6174C20.1773 65.4266 20.0688 65.1327 19.9576 64.9642C19.5609 64.3634 18.4712 64.0375 17.6945 64.2872ZM69.749 64.3934C69.3226 64.5983 69.0903 64.8361 68.904 65.2583C68.4827 66.2129 69.2593 67.3958 70.3232 67.4201C70.9844 67.4352 71.4228 67.1096 71.9518 66.2107L72.109 65.9436L72.1333 66.3221C72.1467 66.5302 72.1014 66.8946 72.0326 67.1317C71.932 67.4788 71.8436 67.6094 71.5808 67.8003C70.8918 68.3005 69.7085 68.431 68.6081 68.1282C68.2836 68.0388 67.5046 67.7461 66.8771 67.4776C65.5449 66.9075 63.2612 66.0006 62.8644 65.884C62.713 65.8395 62.6332 65.7874 62.6872 65.7683C62.8 65.7283 65.0202 66.4529 66.5167 67.0182C67.0757 67.2294 67.5487 67.3866 67.5678 67.3675C67.6293 67.3058 66.7128 66.7586 65.8817 66.3607C64.6676 65.7794 63.4666 65.4889 62.235 65.4787C61.2863 65.4708 61.2329 65.4793 60.727 65.7195C60.4385 65.8565 60.1605 66.0473 60.1091 66.1435L60.0157 66.3185L60.5952 66.2641C61.6165 66.1682 62.7171 66.501 63.7833 67.2282C64.6262 67.8033 65.3035 68.6622 65.3035 69.1562C65.3035 69.2882 65.2687 69.3049 65.0872 69.2601C64.4989 69.1149 64.413 69.1149 64.3072 69.2599C64.0457 69.6184 64.2626 70.1036 64.7498 70.2499C65.5193 70.4809 66.1771 69.5548 65.8521 68.6978C65.7392 68.4002 65.8183 68.3648 66.0714 68.5998C66.7188 69.2006 68.2079 69.9715 69.3162 70.2797C69.9872 70.4662 71.2207 70.4724 71.9127 70.2928C72.5021 70.1397 73.4076 69.7183 73.4076 69.5971C73.4076 69.5489 73.3508 69.5392 73.27 69.5738C71.9627 70.1335 69.5137 69.9485 67.9393 69.171C67.6364 69.0214 67.4594 68.9197 67.5459 68.945C68.2878 69.1618 68.6668 69.2162 69.4311 69.2153C70.7536 69.2139 71.4504 68.9741 72.0609 68.3102C72.5219 67.809 72.7188 67.3319 72.7609 66.6139C72.8216 65.5777 72.5152 64.9456 71.7502 64.5287C71.187 64.2218 70.2391 64.1576 69.749 64.3934Z" fill="#572A01"/>
<path d="M33.1645 69.5317V69.2323C33.6303 69.2323 33.8632 69.0874 33.8632 68.7974V67.3574C33.8156 67.3336 33.7491 67.3146 33.6635 67.3003C33.5827 67.2813 33.4853 67.2718 33.3713 67.2718H32.5158C32.3399 67.2718 32.1855 67.3003 32.0524 67.3574V68.7974C32.0524 69.0874 32.2663 69.2323 32.694 69.2323V69.5317H30.1632V69.2323C30.6432 69.2323 30.8832 69.0874 30.8832 68.7974V65.6821C30.8832 65.3066 30.6432 65.1189 30.1632 65.1189V64.8052H32.694V65.1189C32.2663 65.1189 32.0524 65.3066 32.0524 65.6821V66.8441C32.1237 66.8679 32.195 66.8845 32.2663 66.894C32.3375 66.9035 32.4207 66.9083 32.5158 66.9083H33.3713C33.6184 66.9083 33.7824 66.8892 33.8632 66.8512V65.6821C33.8632 65.3066 33.6303 65.1189 33.1645 65.1189V64.8052H35.6811V65.1189C35.2486 65.1189 35.0323 65.3066 35.0323 65.6821V68.7974C35.0323 69.0874 35.2486 69.2323 35.6811 69.2323V69.5317H33.1645ZM38.7618 69.5317V69.2394C38.8283 69.2299 38.8973 69.2204 38.9686 69.2109C39.0446 69.2014 39.1111 69.1919 39.1682 69.1824C39.23 69.1682 39.2799 69.1539 39.3179 69.1396C39.3559 69.1206 39.3749 69.1016 39.3749 69.0826C39.3749 69.0588 39.3678 69.0327 39.3535 69.0042C39.344 68.9709 39.3321 68.9353 39.3179 68.8973L39.0042 68.0275C38.9852 67.9752 38.9377 67.9396 38.8616 67.9206C38.7856 67.8968 38.7072 67.8849 38.6264 67.8849H37.5855C37.4334 67.8849 37.3408 67.9325 37.3075 68.0275L37.0794 68.7547C37.0699 68.7784 37.0627 68.8046 37.058 68.8331C37.0532 68.8616 37.0508 68.8925 37.0508 68.9258C37.0508 69.1111 37.2528 69.2038 37.6568 69.2038V69.5317H35.9957V69.2038C36.2619 69.1848 36.4591 69.0232 36.5875 68.719L38.277 64.6911L38.94 64.7838L40.6011 68.9614C40.6201 69.0137 40.651 69.0565 40.6938 69.0897C40.7366 69.123 40.7841 69.1491 40.8364 69.1682C40.8934 69.1872 40.9504 69.2038 41.0075 69.2181C41.0645 69.2276 41.1191 69.2347 41.1714 69.2394V69.5317H38.7618ZM38.1915 65.8603L37.6283 67.2219C37.576 67.336 37.5499 67.4073 37.5499 67.4358C37.5499 67.4738 37.6235 67.4928 37.7709 67.4928H38.6477C38.7618 67.4928 38.8188 67.4833 38.8188 67.4643C38.8188 67.4406 38.7737 67.3122 38.6834 67.0793L38.1915 65.8603ZM41.5548 69.5317V69.2323C41.9635 69.2323 42.1679 69.123 42.1679 68.9044V65.6036C42.1679 65.2805 41.9374 65.1189 41.4764 65.1189V64.8052H43.9787V65.1189C43.5509 65.1189 43.337 65.2805 43.337 65.6036V68.9044C43.337 69.0612 43.4749 69.1396 43.7505 69.1396H43.8717C44.0808 69.1396 44.2591 69.1349 44.4064 69.1254C44.5537 69.1111 44.6821 69.0684 44.7914 68.9971C44.9007 68.921 44.9981 68.8046 45.0837 68.6477C45.174 68.4861 45.2643 68.2604 45.3546 67.9705L45.768 68.0133L45.5399 69.5317H41.5548ZM49.3529 69.5674L48.2907 66.6302L47.3426 69.6458L46.6938 69.5674L45.2181 65.5395C45.1658 65.3921 45.0898 65.2852 44.99 65.2187C44.8949 65.1521 44.7927 65.1189 44.6834 65.1189V64.8052H46.8507V65.1189C46.6273 65.1189 46.4823 65.1402 46.4158 65.183C46.3492 65.2258 46.316 65.2805 46.316 65.347C46.316 65.366 46.3207 65.3874 46.3302 65.4112C46.3445 65.4349 46.3564 65.4658 46.3659 65.5038L47.3354 68.3554L48.1125 66.0171L47.8487 65.3185C47.825 65.2519 47.7655 65.202 47.6705 65.1688C47.5754 65.1355 47.4661 65.1189 47.3426 65.1189V64.8052H49.4884V65.1189C49.1415 65.1189 48.968 65.1949 48.968 65.347C48.968 65.3993 48.9846 65.4587 49.0179 65.5252L49.9447 68.3483L50.7431 65.7747C50.7574 65.7129 50.7693 65.6559 50.7788 65.6036C50.793 65.5466 50.8001 65.4919 50.8001 65.4397C50.8001 65.2258 50.6053 65.1189 50.2156 65.1189V64.8052H51.8267V65.1189C51.5416 65.1189 51.3277 65.3375 51.1851 65.7747L49.9304 69.6458L49.3529 69.5674ZM53.5908 69.5317V69.2394C53.6573 69.2299 53.7262 69.2204 53.7975 69.2109C53.8736 69.2014 53.9401 69.1919 53.9971 69.1824C54.0589 69.1682 54.1088 69.1539 54.1468 69.1396C54.1849 69.1206 54.2039 69.1016 54.2039 69.0826C54.2039 69.0588 54.1967 69.0327 54.1825 69.0042C54.173 68.9709 54.1611 68.9353 54.1468 68.8973L53.8332 68.0275C53.8142 67.9752 53.7666 67.9396 53.6906 67.9206C53.6145 67.8968 53.5361 67.8849 53.4553 67.8849H52.4145C52.2624 67.8849 52.1697 67.9325 52.1364 68.0275L51.9083 68.7547C51.8988 68.7784 51.8917 68.8046 51.8869 68.8331C51.8822 68.8616 51.8798 68.8925 51.8798 68.9258C51.8798 69.1111 52.0818 69.2038 52.4858 69.2038V69.5317H50.8247V69.2038C51.0909 69.1848 51.2881 69.0232 51.4164 68.719L53.106 64.6911L53.769 64.7838L55.4301 68.9614C55.4491 69.0137 55.48 69.0565 55.5227 69.0897C55.5655 69.123 55.613 69.1491 55.6653 69.1682C55.7224 69.1872 55.7794 69.2038 55.8364 69.2181C55.8935 69.2276 55.9481 69.2347 56.0004 69.2394V69.5317H53.5908ZM53.0204 65.8603L52.4573 67.2219C52.405 67.336 52.3788 67.4073 52.3788 67.4358C52.3788 67.4738 52.4525 67.4928 52.5998 67.4928H53.4767C53.5908 67.4928 53.6478 67.4833 53.6478 67.4643C53.6478 67.4406 53.6027 67.3122 53.5124 67.0793L53.0204 65.8603ZM56.3338 69.5317V69.2323C56.7758 69.2323 56.9968 69.0874 56.9968 68.7974V65.6821C56.9968 65.3066 56.7663 65.1189 56.3053 65.1189V64.8052H58.8076V65.1189C58.3846 65.1189 58.1731 65.3066 58.1731 65.6821V68.7974C58.1731 69.0874 58.3965 69.2323 58.8433 69.2323V69.5317H56.3338Z" fill="#572A01"/>
</svg>
