<svg width="26" height="26" viewBox="0 0 26 26" fill="none" xmlns="http://www.w3.org/2000/svg">
<g clip-path="url(#clip0_69_5019)">
<path d="M12.5833 0.5C7.98843 0.5 4.25 4.23843 4.25 8.83335C4.25 10.2127 4.59487 11.5804 5.25049 12.7935L12.1276 25.2314C12.2192 25.3973 12.3937 25.5 12.5833 25.5C12.773 25.5 12.9475 25.3973 13.0391 25.2314L19.9187 12.7894C20.5718 11.5804 20.9167 10.2127 20.9167 8.8333C20.9167 4.23843 17.1783 0.5 12.5833 0.5ZM12.5833 13C10.2859 13 8.4167 11.1308 8.4167 8.83335C8.4167 6.53589 10.2859 4.6667 12.5833 4.6667C14.8808 4.6667 16.75 6.53589 16.75 8.83335C16.75 11.1308 14.8808 13 12.5833 13Z" fill="#F3D699"/>
</g>
<defs>
<clipPath id="clip0_69_5019">
<rect width="25" height="25" fill="white" transform="translate(0.5 0.5)"/>
</clipPath>
</defs>
</svg>
