<?xml version="1.0" encoding="UTF-8"?>
<svg xmlns="http://www.w3.org/2000/svg" width="27" height="26" viewBox="0 0 27 26" fill="none">
  <path d="M7.7123 6.95599L8.28065 6.38775L3.22847 1.34227C3.19117 1.30497 3.14689 1.27538 3.09815 1.25519C3.04942 1.235 2.99718 1.22461 2.94443 1.22461C2.89167 1.22461 2.83944 1.235 2.7907 1.25519C2.74196 1.27538 2.69768 1.30497 2.66038 1.34227C2.62308 1.37957 2.59349 1.42386 2.5733 1.47259C2.55311 1.52133 2.54272 1.57357 2.54272 1.62632C2.54272 1.67907 2.55311 1.73131 2.5733 1.78004C2.59349 1.82878 2.62308 1.87306 2.66038 1.91036L7.7123 6.95599ZM6.81728 7.80739L7.38563 7.23909L2.3596 2.21114C2.3223 2.17384 2.27802 2.14425 2.22929 2.12406C2.18055 2.10387 2.12831 2.09348 2.07556 2.09348C2.02281 2.09348 1.97057 2.10387 1.92183 2.12406C1.8731 2.14425 1.82881 2.17384 1.79151 2.21114C1.75421 2.24844 1.72462 2.29272 1.70443 2.34146C1.68424 2.3902 1.67385 2.44243 1.67385 2.49519C1.67385 2.54794 1.68424 2.60017 1.70443 2.64891C1.72462 2.69765 1.75421 2.74193 1.79151 2.77923L6.81728 7.80739Z" fill="#F4D2A8"></path>
  <path d="M11.2589 6.9388C11.2396 6.13275 10.9277 5.36124 10.3815 4.76816L4.92472 0.177786C4.82119 0.0906213 4.68872 0.0454768 4.5535 0.0512784C4.41829 0.0570801 4.29017 0.113406 4.19449 0.209118C3.98349 0.420368 3.98349 0.762583 4.19449 0.97363L8.35723 5.13647C8.61251 5.3918 8.61251 5.80557 8.35723 6.06089L6.51006 7.90806C6.25473 8.16334 5.84097 8.16334 5.58564 7.90806L1.42279 3.74537C1.21175 3.53432 0.86933 3.53432 0.658283 3.74537C0.562585 3.84105 0.506268 3.96916 0.500467 4.10436C0.494665 4.23957 0.539801 4.37203 0.626951 4.47556L5.21732 9.93236C5.81045 10.4786 6.58195 10.7905 7.38802 10.8099L8.9662 10.8147C9.32685 10.8159 9.68334 10.8918 10.0133 11.0375C10.3432 11.1832 10.6394 11.3956 10.8832 11.6613L23.4343 25.4408C24.0476 26.1044 25.193 26.0215 25.8317 25.3825C26.4706 24.7436 26.5536 23.5982 25.8901 22.9851L12.1105 10.434C11.8447 10.1902 11.6323 9.894 11.4866 9.56409C11.3409 9.23418 11.2651 8.87768 11.2638 8.51703L11.2589 6.9388Z" fill="#F4D2A8"></path>
  <path d="M26.3419 23.9264C26.3392 23.899 26.3357 23.8718 26.3316 23.8446C26.3194 23.7637 26.3012 23.6838 26.277 23.6056C26.2042 23.3721 26.0767 23.1578 25.8901 22.9851L12.1105 10.434C12.0286 10.3586 11.9517 10.2781 11.8802 10.1928C11.8353 10.1399 11.7924 10.0854 11.7518 10.0292C11.6216 9.84723 11.5153 9.64928 11.4356 9.44021C11.3232 9.1453 11.265 8.83248 11.2638 8.51685L11.2589 6.93888C11.2529 6.68497 11.2178 6.43523 11.1559 6.19402C11.1312 6.09763 11.1022 6.00239 11.069 5.90858C10.9191 5.48595 10.6853 5.09803 10.3815 4.76818L4.92477 0.177811C4.89841 0.155579 4.86997 0.135922 4.83986 0.119108C4.7379 0.0622987 4.62028 0.0400294 4.50461 0.0556315C4.3872 0.0713328 4.27824 0.125286 4.19459 0.209143C3.98334 0.420393 3.98334 0.762608 4.19459 0.973655L8.35728 5.1365C8.4256 5.20457 8.47794 5.28697 8.51052 5.37774C8.54311 5.46852 8.55511 5.56539 8.54568 5.66137C8.53139 5.81245 8.46474 5.95378 8.35728 6.06092L7.78477 6.63338L8.18188 6.96762C8.72818 7.56069 9.0401 8.33222 9.05948 9.13832C9.05948 9.13832 9.05948 9.15538 9.05968 9.18595C9.06283 10.0079 9.52382 10.7485 10.2403 11.1515C10.241 11.152 10.2416 11.1524 10.2423 11.1527C10.2565 11.1608 10.2705 11.1694 10.2848 11.1777C10.3056 11.1898 10.3262 11.2023 10.3466 11.2152C10.3611 11.2241 10.3752 11.2332 10.3895 11.2426C10.4107 11.2565 10.4315 11.2707 10.4524 11.2852C10.4645 11.2937 10.4767 11.3021 10.4887 11.3106C10.5204 11.3336 10.5515 11.3571 10.5823 11.3814C10.5887 11.3864 10.595 11.3919 10.6014 11.3971C10.6267 11.4175 10.6517 11.4386 10.6764 11.46C10.6867 11.4689 10.6966 11.478 10.7067 11.4872C10.7283 11.5066 10.7495 11.5264 10.7706 11.5467C10.7797 11.5554 10.7888 11.5639 10.7977 11.5729C10.827 11.6016 10.8555 11.6311 10.8832 11.6613L20.8159 22.5662L23.6906 25.1846C23.8856 25.3647 24.0155 25.591 24.0864 25.8368C24.1971 25.8688 24.3119 25.8886 24.4281 25.8967C24.5072 25.9022 24.5865 25.9025 24.6656 25.8975C24.7419 25.8927 24.8179 25.8832 24.8931 25.869C24.8957 25.8686 24.8985 25.8678 24.9012 25.8674C24.9357 25.8607 24.9699 25.853 25.004 25.8444C25.0079 25.8434 25.0117 25.8426 25.0155 25.8416C25.0523 25.8321 25.0888 25.8215 25.125 25.8099L25.1266 25.8092C25.1602 25.7982 25.1936 25.7862 25.2266 25.7733C25.2333 25.7705 25.24 25.768 25.2466 25.7652C25.2796 25.7521 25.3122 25.738 25.3444 25.723C25.345 25.7226 25.3458 25.7224 25.3464 25.722C25.3866 25.7028 25.4261 25.6822 25.4648 25.6601C25.4904 25.6456 25.5156 25.6305 25.5404 25.6146C25.5467 25.6107 25.5532 25.6067 25.5596 25.6026C25.5893 25.5833 25.6185 25.5631 25.6469 25.5419C25.6525 25.5377 25.6578 25.5333 25.6632 25.5292C25.6864 25.5115 25.7092 25.4931 25.7314 25.4742C25.7661 25.4451 25.7996 25.4146 25.8318 25.3826C26.1711 25.0432 26.3536 24.5609 26.3507 24.0912C26.3504 24.0362 26.3475 23.9812 26.342 23.9264H26.3419Z" fill="#F4D2A8"></path>
  <path d="M21.5724 9.80311C22.0646 9.76156 22.5414 9.61079 22.968 9.36177C23.3946 9.11274 23.7603 8.77174 24.0385 8.36357L25.2836 6.53666C26.3035 5.04027 26.7041 3.20702 26.4014 1.42162C26.352 1.12963 26.204 0.874349 25.9946 0.688693C25.7851 0.503037 25.5139 0.386748 25.218 0.372478C23.4092 0.286115 21.6372 0.90372 20.2739 2.09569L18.6095 3.55067C18.2376 3.8758 17.9429 4.27977 17.7468 4.73317C17.5507 5.18657 17.4582 5.67799 17.476 6.17165L17.5659 7.74708C17.5864 8.10719 17.5321 8.46764 17.4064 8.80575C17.2808 9.14385 17.0865 9.45229 16.8359 9.71166L3.83485 23.0675C3.20943 23.7196 3.36101 24.858 4.03701 25.4572C4.71327 26.0567 5.86138 26.0706 6.43369 25.3715L18.1346 10.863C18.3621 10.5831 18.645 10.3533 18.9656 10.1881C19.2862 10.0228 19.6375 9.92574 19.9974 9.9029L21.5724 9.80311Z" fill="#F4D2A8"></path>
  <path d="M26.4014 1.42143C26.3536 1.13774 26.21 0.879012 25.9946 0.688298C25.9157 0.618498 25.8285 0.558793 25.7349 0.510564C25.5745 0.428049 25.3982 0.380897 25.218 0.372286C25.1531 0.369279 25.0881 0.367163 25.0232 0.365939C25.0035 0.365532 24.9841 0.365532 24.9645 0.365329C24.9181 0.364771 24.8717 0.364567 24.8254 0.364923C24.8042 0.365126 24.783 0.365532 24.7618 0.365735C24.7135 0.366751 24.6655 0.368122 24.6175 0.369899C24.6005 0.370509 24.5834 0.370915 24.5664 0.371677C24.5008 0.374624 24.4352 0.378467 24.3698 0.383204C24.3861 1.81733 23.9619 3.22191 23.1544 4.40721L21.9092 6.23397C21.4703 6.8781 20.819 7.34743 20.069 7.55987C19.4999 7.72089 18.9433 7.92381 18.4163 8.19219C17.9269 8.44133 17.4457 8.69031 17.4397 8.70854L17.4344 8.72423C17.4224 8.75993 17.41 8.79522 17.3966 8.83016C17.3939 8.83727 17.3909 8.84422 17.3881 8.85138C17.3751 8.88429 17.3617 8.91725 17.3475 8.94975C17.3433 8.95889 17.339 8.96783 17.335 8.97671C17.3213 9.00714 17.307 9.03731 17.2921 9.06721C17.2868 9.07812 17.2806 9.08879 17.2751 9.09991C17.2609 9.12755 17.2462 9.15493 17.2311 9.18202C17.2237 9.19512 17.2158 9.20782 17.208 9.22072C17.1935 9.2453 17.1791 9.27013 17.1638 9.29435C17.1543 9.30958 17.144 9.32431 17.1338 9.33934C17.1196 9.36077 17.1057 9.38261 17.0908 9.40363C17.0783 9.42125 17.065 9.43832 17.0521 9.45558C17.0386 9.47366 17.0255 9.49209 17.0116 9.50976C16.995 9.53094 16.9773 9.55161 16.9598 9.57243C16.9488 9.58573 16.938 9.59939 16.9267 9.61249C16.8973 9.64622 16.867 9.67916 16.8359 9.71126L3.83485 23.0673C3.20943 23.7194 3.36101 24.8578 4.03701 25.4571C4.71327 26.0565 5.86138 26.0704 6.43369 25.3713L18.1346 10.8628C18.3621 10.5829 18.645 10.3531 18.9656 10.1879C19.2862 10.0226 19.6375 9.92555 19.9974 9.90271L21.5724 9.80292C22.0646 9.76137 22.5414 9.6106 22.968 9.36158C23.3946 9.11255 23.7603 8.77155 24.0385 8.36338L25.2836 6.53647C26.3035 5.04008 26.7041 3.20683 26.4014 1.42143Z" fill="#F4D2A8"></path>
</svg>
