<?xml version="1.0" encoding="UTF-8"?>
<svg xmlns="http://www.w3.org/2000/svg" width="59" height="58" viewBox="0 0 59 58" fill="none">
  <path d="M29.4844 14.9189C21.7755 14.9189 15.5039 21.1905 15.5039 28.8995C15.5039 36.6084 21.7755 42.8809 29.4844 42.8809C37.1934 42.8809 43.465 36.6093 43.465 28.8995C43.465 21.1896 37.1943 14.9189 29.4844 14.9189ZM29.4844 41.0732C22.772 41.0732 17.3108 35.6128 17.3108 28.8995C17.3108 22.1861 22.772 16.7258 29.4844 16.7258C36.1969 16.7258 41.6581 22.1879 41.6581 28.9004C41.6581 35.6128 36.1969 41.075 29.4844 41.075V41.0732Z" fill="#F3D699"></path>
  <path d="M49.5653 7.95905C46.837 7.95905 44.3715 10.0216 43.2179 13.1176C39.4045 9.7912 34.5892 7.95905 29.4822 7.95905C24.6405 7.94712 19.9467 9.62592 16.2108 12.7057V8.86247C16.2108 8.62287 16.1156 8.39308 15.9462 8.22365C15.7768 8.05423 15.547 7.95905 15.3074 7.95905H3.58995C3.35035 7.95905 3.12056 8.05423 2.95113 8.22365C2.78171 8.39308 2.68652 8.62287 2.68652 8.86247V19.279C2.68652 20.4047 3.2855 21.4562 4.24674 22.0245L6.69774 23.4871V47.2852C6.69846 48.0158 6.98899 48.7162 7.50558 49.2328C8.02218 49.7494 8.72262 50.04 9.45319 50.0407C10.1826 50.0388 10.8814 49.7475 11.3963 49.231C11.9112 48.7144 12.2001 48.0146 12.1996 47.2852V40.7038C16.0636 46.3393 22.5258 49.8419 29.4822 49.8419C36.4765 49.8419 42.9532 46.3176 46.8099 40.645V47.2852C46.8106 48.0158 47.1011 48.7162 47.6177 49.2328C48.1343 49.7494 48.8348 50.04 49.5653 50.0407C50.2947 50.0388 50.9935 49.7475 51.5084 49.231C52.0233 48.7144 52.3122 48.0146 52.3118 47.2852V25.5352C54.901 24.1186 56.603 20.8202 56.603 17.1017C56.603 12.0606 53.4465 7.95905 49.5653 7.95905ZM10.3928 47.2852C10.3928 47.8092 9.97085 48.2338 9.45319 48.2338C8.9292 48.2338 8.50459 47.8092 8.50459 47.2852V22.974C8.50459 22.656 8.33656 22.3615 8.06372 22.198L5.16824 20.4697C4.96114 20.3479 4.78975 20.1738 4.67128 19.9648C4.55282 19.7557 4.49146 19.5192 4.49338 19.279V9.7659H5.61543V18.0503C5.61543 18.2899 5.71062 18.5197 5.88004 18.6891C6.04947 18.8586 6.27926 18.9538 6.51886 18.9538C6.75846 18.9538 6.98825 18.8586 7.15768 18.6891C7.32711 18.5197 7.42229 18.2899 7.42229 18.0503V9.7659H8.54254V18.0503C8.54254 18.2899 8.63772 18.5197 8.80714 18.6891C8.97657 18.8586 9.20636 18.9538 9.44596 18.9538C9.68557 18.9538 9.91536 18.8586 10.0848 18.6891C10.2542 18.5197 10.3494 18.2899 10.3494 18.0503V9.7659H11.4714V18.0503C11.4714 18.2899 11.5666 18.5197 11.7361 18.6891C11.9055 18.8586 12.1353 18.9538 12.3749 18.9538C12.6145 18.9538 12.8443 18.8586 13.0137 18.6891C13.1831 18.5197 13.2783 18.2899 13.2783 18.0503V9.7659H14.404V19.279C14.404 19.7786 14.1546 20.224 13.7336 20.4715L10.8336 22.1971C10.6991 22.2772 10.5877 22.391 10.5104 22.5272C10.4332 22.6634 10.3926 22.8174 10.3928 22.974V37.3204V47.2852ZM29.4822 48.0351C22.1247 48.0351 15.3616 43.7564 12.1996 37.119V23.4871L14.6542 22.0263C15.1323 21.7456 15.5279 21.3439 15.8012 20.8616C16.0745 20.3792 16.2158 19.8333 16.2108 19.279V15.1232C19.7681 11.6772 24.5295 9.75514 29.4822 9.7659C34.4034 9.75223 39.1381 11.6477 42.6903 15.0537C42.6604 15.2199 42.6451 15.3924 42.6225 15.5623C42.6072 15.6797 42.5873 15.7945 42.5755 15.9128C42.5358 16.304 42.5096 16.6997 42.5096 17.1017C42.5096 20.8184 44.2152 24.1177 46.8099 25.5352V37.0313C43.666 43.723 36.8867 48.0351 29.4822 48.0351ZM51.056 24.1394C50.8927 24.2086 50.7534 24.3243 50.6554 24.4721C50.5574 24.6199 50.5051 24.7932 50.5049 24.9706V47.2852C50.5049 47.8092 50.083 48.2338 49.5653 48.2338C49.0414 48.2338 48.6167 47.8092 48.6167 47.2852V24.9706C48.6168 24.7931 48.5645 24.6195 48.4665 24.4715C48.3685 24.3236 48.2291 24.2077 48.0657 24.1385C45.8586 23.2026 44.3164 20.3089 44.3164 17.1008C44.3164 16.36 44.3977 15.6391 44.5576 14.9471C45.2307 11.8962 47.2896 9.7659 49.5653 9.7659C52.4491 9.7659 54.7962 13.0562 54.7962 17.1017C54.7962 20.3116 53.2586 23.2062 51.056 24.1394Z" fill="#F3D699"></path>
</svg>
