<?xml version="1.0" encoding="UTF-8"?>
<svg xmlns="http://www.w3.org/2000/svg" width="20" height="20" viewBox="0 0 20 20" fill="none">
  <path d="M10 12.0508C11.1326 12.0508 12.0508 11.1326 12.0508 10C12.0508 8.86738 11.1326 7.94922 10 7.94922C8.86738 7.94922 7.94922 8.86738 7.94922 10C7.94922 11.1326 8.86738 12.0508 10 12.0508Z" fill="#41444B"></path>
  <path d="M10 0.234375C4.6066 0.234375 0.234375 4.6066 0.234375 10C0.234375 15.3934 4.6066 19.7656 10 19.7656C15.3934 19.7656 19.7656 15.3934 19.7656 10C19.7656 4.6066 15.3934 0.234375 10 0.234375ZM16.0335 12.482C15.9866 13.4105 15.7257 14.326 15.0491 14.9954C14.366 15.6712 13.4461 15.923 12.5087 15.9694H7.49133C6.55383 15.923 5.63406 15.6714 4.9509 14.9954C4.27426 14.326 4.0134 13.4105 3.96652 12.482V7.51797C4.0134 6.58953 4.2743 5.67398 4.9509 5.00453C5.63406 4.32875 6.55395 4.07695 7.49133 4.03059H12.5087C13.4462 4.07695 14.3659 4.32863 15.0491 5.00453C15.7257 5.67398 15.9866 6.58953 16.0335 7.51797L16.0335 12.482Z" fill="#41444B"></path>
  <path d="M12.4453 5.16186C11.2232 5.12834 8.77709 5.12834 7.55498 5.16186C6.919 5.17932 6.19802 5.33764 5.7449 5.82162C5.27404 6.32471 5.09611 6.93252 5.07806 7.61248C5.04634 8.80592 5.07806 12.3879 5.07806 12.3879C5.09873 13.0678 5.27404 13.6757 5.7449 14.1788C6.19802 14.6629 6.919 14.8211 7.55498 14.8386C8.77709 14.8721 11.2232 14.8721 12.4453 14.8386C13.0813 14.8211 13.8022 14.6628 14.2554 14.1788C14.7262 13.6757 14.9042 13.0679 14.9222 12.3879V7.61248C14.9042 6.93252 14.7262 6.32471 14.2554 5.82162C13.8021 5.33748 13.0811 5.17932 12.4453 5.16186ZM9.99998 13.1789C9.37129 13.1789 8.75672 12.9925 8.23398 12.6432C7.71124 12.2939 7.30382 11.7975 7.06323 11.2167C6.82264 10.6358 6.75969 9.99669 6.88234 9.38008C7.00499 8.76347 7.30774 8.19708 7.75229 7.75253C8.19684 7.30798 8.76323 7.00523 9.37984 6.88258C9.99645 6.75993 10.6356 6.82288 11.2164 7.06347C11.7972 7.30406 12.2937 7.71148 12.643 8.23422C12.9923 8.75695 13.1787 9.37153 13.1787 10.0002C13.1787 10.8433 12.8438 11.6518 12.2477 12.2479C11.6515 12.844 10.843 13.1789 9.99998 13.1789ZM13.1922 7.47764C13.0665 7.47761 12.9436 7.44029 12.839 7.37042C12.7345 7.30054 12.6531 7.20124 12.605 7.08507C12.5569 6.96891 12.5443 6.84108 12.5689 6.71777C12.5934 6.59446 12.654 6.4812 12.7429 6.3923C12.8318 6.30341 12.9451 6.24287 13.0684 6.21836C13.1917 6.19384 13.3195 6.20644 13.4357 6.25456C13.5518 6.30268 13.6511 6.38417 13.721 6.48871C13.7908 6.59326 13.8281 6.71616 13.8281 6.84189C13.8281 6.92539 13.8117 7.00808 13.7797 7.08522C13.7477 7.16236 13.7009 7.23245 13.6418 7.29149C13.5828 7.35052 13.5127 7.39735 13.4355 7.42929C13.3584 7.46123 13.2757 7.47766 13.1922 7.47764Z" fill="#41444B"></path>
</svg>
