<?xml version="1.0" encoding="UTF-8"?>
<svg xmlns="http://www.w3.org/2000/svg" width="58" height="58" viewBox="0 0 58 58" fill="none">
  <path d="M47.6196 17.9897H10.3812M29.0004 48.0166L39.4592 56.867H18.5416L29.0004 48.0166ZM29.0004 48.0166V36.3013M29.0004 36.1717L3.66211 11.5781H54.3387L29.0004 36.1717Z" stroke="#F3D699" stroke-width="2.26562" stroke-miterlimit="10" stroke-linecap="round" stroke-linejoin="round"></path>
  <path d="M28.4056 25.4778C30.4828 25.4778 32.1666 23.8047 32.1666 21.7408C32.1666 19.677 30.4828 18.0039 28.4056 18.0039C26.3284 18.0039 24.6445 19.677 24.6445 21.7408C24.6445 23.8047 26.3284 25.4778 28.4056 25.4778Z" stroke="#F3D699" stroke-width="2.26562" stroke-miterlimit="10" stroke-linecap="round" stroke-linejoin="round"></path>
  <path d="M10.031 5.83444C11.3377 5.83444 12.397 4.78194 12.397 3.48363C12.397 2.18531 11.3377 1.13281 10.031 1.13281C8.72433 1.13281 7.66504 2.18531 7.66504 3.48363C7.66504 4.78194 8.72433 5.83444 10.031 5.83444Z" stroke="#F3D699" stroke-width="2.26562" stroke-miterlimit="10" stroke-linecap="round" stroke-linejoin="round"></path>
  <path d="M25.6871 19.0393L11.7998 5.24121M31.2978 24.6139L32.4512 25.76" stroke="#F3D699" stroke-width="2.26562" stroke-miterlimit="10" stroke-linecap="round" stroke-linejoin="round"></path>
</svg>
