<?xml version="1.0" encoding="UTF-8"?>
<svg xmlns="http://www.w3.org/2000/svg" width="67" height="57" viewBox="0 0 67 57" fill="none">
  <mask id="path-1-outside-1_61_2240" maskUnits="userSpaceOnUse" x="-1" y="-1" width="69" height="59" fill="black">
    <rect fill="white" x="-1" y="-1" width="69" height="59"></rect>
    <path d="M23.4298 28C23.4298 12.46 21.1198 1.68 16.4998 1.68C11.9498 1.68 9.63984 12.46 9.63984 28C9.63984 45.29 11.9498 55.37 16.4998 55.37C21.1198 55.37 23.4298 45.29 23.4298 28ZM0.189844 28C0.189844 7.42 6.90984 0.349999 16.4998 0.349999C26.1598 0.349999 32.8798 7.42 32.8798 28C32.8798 49.63 26.1598 56.7 16.4998 56.7C6.90984 56.7 0.189844 49.63 0.189844 28ZM52.5739 26.32C58.3839 26.32 66.7839 31.29 66.7839 41.3C66.7839 50.26 58.8039 56.7 50.0539 56.7C46.0639 56.7 39.6239 54.32 36.4039 52.01C38.6439 46.97 38.9939 37.31 38.9939 34.51H39.7639C39.7639 49.07 44.1039 55.37 50.5439 55.37C54.2539 55.37 57.3339 51.45 57.3339 43.96C57.3339 34.09 53.6239 27.93 48.8639 27.93C53.8339 22.89 56.5639 16.31 56.5639 11.69C56.5639 4.69 53.6239 1.68 50.7539 1.68C44.2439 1.68 42.0739 11.69 41.3039 21.49H40.4639C40.4639 15.82 38.7139 9.87 37.0339 4.97C40.3239 2.8 45.2939 0.349999 51.5239 0.349999C60.9039 0.349999 65.2439 4.83 65.2439 11.62C65.2439 19.6 57.3339 25.27 52.5739 26.32Z"></path>
  </mask>
  <path d="M24.4298 28C24.4298 20.197 23.8514 13.5236 22.6677 8.77082C22.0776 6.40131 21.3194 4.43508 20.3544 3.03865C19.3836 1.634 18.1053 0.679998 16.4998 0.679998V2.68C17.2043 2.68 17.9473 3.07349 18.7091 4.17572C19.4765 5.28617 20.1621 6.98618 20.727 9.25417C21.8533 13.7764 22.4298 20.263 22.4298 28H24.4298ZM16.4998 0.679998C14.9055 0.679998 13.6405 1.64137 12.6828 3.04304C11.7292 4.43869 10.9783 6.40375 10.3928 8.77255C9.21834 13.5242 8.63984 20.1967 8.63984 28H10.6398C10.6398 20.2633 11.2163 13.7758 12.3344 9.25245C12.8951 6.98375 13.5749 5.28256 14.3341 4.17133C15.0892 3.06613 15.8192 2.68 16.4998 2.68V0.679998ZM8.63984 28C8.63984 36.6712 9.21741 43.6084 10.3923 48.4066C10.9782 50.7993 11.7306 52.7381 12.691 54.1009C13.6634 55.4805 14.9303 56.37 16.4998 56.37V54.37C15.7944 54.37 15.0663 53.9995 14.3258 52.9488C13.5735 51.8812 12.8953 50.2195 12.3349 47.9309C11.2173 43.3666 10.6398 36.6188 10.6398 28H8.63984ZM16.4998 56.37C18.0806 56.37 19.3607 55.4874 20.346 54.1053C21.318 52.7418 22.0777 50.8017 22.6682 48.4083C23.8524 43.609 24.4298 36.6709 24.4298 28H22.4298C22.4298 36.6191 21.8523 43.366 20.7265 47.9292C20.162 50.217 19.4779 51.8776 18.7174 52.9444C17.9702 53.9926 17.2291 54.37 16.4998 54.37V56.37ZM1.18984 28C1.18984 17.7858 2.86353 11.1085 5.58193 7.01026C8.25031 2.98742 11.9919 1.35 16.4998 1.35V-0.650001C11.4178 -0.650001 7.00438 1.24758 3.91525 5.90474C0.876163 10.4865 -0.810156 17.6342 -0.810156 28H1.18984ZM16.4998 1.35C21.0453 1.35 24.8038 2.98938 27.4798 7.01142C30.2061 11.1091 31.8798 17.7856 31.8798 28H33.8798C33.8798 17.6344 32.1936 10.4859 29.1449 5.90357C26.0459 1.24562 21.6144 -0.650001 16.4998 -0.650001V1.35ZM31.8798 28C31.8798 38.7468 30.2039 45.6889 27.4723 49.9187C24.7949 54.0647 21.041 55.7 16.4998 55.7V57.7C21.6187 57.7 26.0548 55.8003 29.1524 51.0038C32.1958 46.2911 33.8798 38.8832 33.8798 28H31.8798ZM16.4998 55.7C11.9963 55.7 8.25924 54.0667 5.5894 49.9199C2.86572 45.6895 1.18984 38.7466 1.18984 28H-0.810156C-0.810156 38.8834 0.873971 46.2905 3.90779 51.0026C6.99544 55.7983 11.4134 57.7 16.4998 57.7V55.7ZM52.5739 26.32L52.3585 25.3435L52.5739 27.32V26.32ZM36.4039 52.01L35.4901 51.6039L35.1594 52.3479L35.821 52.8225L36.4039 52.01ZM38.9939 34.51V33.51H37.9939V34.51H38.9939ZM39.7639 34.51H40.7639V33.51H39.7639V34.51ZM48.8639 27.93L48.1519 27.2279L46.4734 28.93H48.8639V27.93ZM41.3039 21.49V22.49H42.2284L42.3008 21.5683L41.3039 21.49ZM40.4639 21.49H39.4639V22.49H40.4639V21.49ZM37.0339 4.97L36.4833 4.13523L35.8368 4.56167L36.088 5.29432L37.0339 4.97ZM52.5739 27.32C57.9529 27.32 65.7839 31.9562 65.7839 41.3H67.7839C67.7839 30.6238 58.8149 25.32 52.5739 25.32V27.32ZM65.7839 41.3C65.7839 49.5953 58.3712 55.7 50.0539 55.7V57.7C59.2366 57.7 67.7839 50.9247 67.7839 41.3H65.7839ZM50.0539 55.7C48.2207 55.7 45.7353 55.1448 43.2721 54.278C40.8158 53.4136 38.4949 52.2793 36.9868 51.1975L35.821 52.8225C37.5329 54.0507 40.042 55.2614 42.6082 56.1645C45.1676 57.0652 47.8971 57.7 50.0539 57.7V55.7ZM37.3177 52.4161C38.5051 49.7445 39.1641 45.9367 39.5331 42.5276C39.9051 39.0909 39.9939 35.9393 39.9939 34.51H37.9939C37.9939 35.8807 37.9077 38.9591 37.5447 42.3124C37.1787 45.6933 36.5427 49.2355 35.4901 51.6039L37.3177 52.4161ZM38.9939 35.51H39.7639V33.51H38.9939V35.51ZM38.7639 34.51C38.7639 41.8614 39.8548 47.2752 41.8652 50.8864C43.9117 54.5626 46.9218 56.37 50.5439 56.37V54.37C47.7261 54.37 45.3461 53.0274 43.6126 49.9136C41.843 46.7348 40.7639 41.7186 40.7639 34.51H38.7639ZM50.5439 56.37C52.7967 56.37 54.7867 55.165 56.171 53.0151C57.5409 50.8872 58.3339 47.827 58.3339 43.96H56.3339C56.3339 47.583 55.5869 50.2278 54.4894 51.9324C53.4061 53.615 52.0012 54.37 50.5439 54.37V56.37ZM58.3339 43.96C58.3339 38.9152 57.3881 34.7277 55.7605 31.7626C54.1338 28.799 51.7365 26.93 48.8639 26.93V28.93C50.7513 28.93 52.589 30.141 54.0073 32.7249C55.4248 35.3073 56.3339 39.1348 56.3339 43.96H58.3339ZM49.5759 28.6321C54.6886 23.4475 57.5639 16.627 57.5639 11.69H55.5639C55.5639 15.993 52.9792 22.3325 48.1519 27.2279L49.5759 28.6321ZM57.5639 11.69C57.5639 8.06352 56.8041 5.3458 55.5651 3.50221C54.3147 1.6415 52.5708 0.679998 50.7539 0.679998V2.68C51.807 2.68 52.9682 3.2235 53.9052 4.61778C54.8537 6.0292 55.5639 8.31648 55.5639 11.69H57.5639ZM50.7539 0.679998C46.8499 0.679998 44.4366 3.71813 42.9446 7.54692C41.4368 11.4164 40.6937 16.4897 40.307 21.4117L42.3008 21.5683C42.6841 16.6903 43.411 11.8586 44.8082 8.27308C46.2212 4.64686 48.148 2.68 50.7539 2.68V0.679998ZM41.3039 20.49H40.4639V22.49H41.3039V20.49ZM41.4639 21.49C41.4639 15.642 39.6638 9.5571 37.9799 4.64567L36.088 5.29432C37.764 10.1829 39.4639 15.998 39.4639 21.49H41.4639ZM37.5845 5.80477C40.7835 3.69478 45.5614 1.35 51.5239 1.35V-0.650001C45.0265 -0.650001 39.8643 1.90521 36.4833 4.13523L37.5845 5.80477ZM51.5239 1.35C56.069 1.35 59.2304 2.43624 61.2441 4.19241C63.2376 5.93086 64.2439 8.44622 64.2439 11.62H66.2439C66.2439 8.00378 65.0802 4.88414 62.5587 2.68509C60.0574 0.503756 56.3588 -0.650001 51.5239 -0.650001V1.35ZM64.2439 11.62C64.2439 15.2636 62.4382 18.4352 59.9904 20.858C57.5327 23.2907 54.5288 24.8647 52.3585 25.3435L52.7893 27.2965C55.379 26.7253 58.7101 24.9393 61.3974 22.2795C64.0946 19.6098 66.2439 15.9564 66.2439 11.62H64.2439Z" fill="#F3D699" mask="url(#path-1-outside-1_61_2240)"></path>
</svg>
