<?xml version="1.0" encoding="UTF-8"?>
<svg xmlns="http://www.w3.org/2000/svg" width="66" height="65" viewBox="0 0 66 65" fill="none">
  <g clip-path="url(#clip0_1_233)">
    <path d="M36.1076 20.035C37.5882 17.1321 38.019 14.2589 38.0366 14.138C38.1067 13.6571 37.9548 13.1709 37.6204 12.8047C37.2859 12.4387 36.8014 12.2285 36.2919 12.2285H17.4251C16.9157 12.2285 16.4313 12.4388 16.0967 12.8049C15.7622 13.1711 15.6104 13.6572 15.6805 14.1381C15.6981 14.259 16.1291 17.1321 17.6099 20.035C21.5919 28.4817 32.1262 28.4808 36.1076 20.035ZM45.2105 11.9577H47.3862V14.1332C47.4799 16.6576 51.1026 16.6557 51.1955 14.1332V11.9577H53.3711C55.8955 11.864 55.8936 8.24118 53.3711 8.14836H51.1955V5.97275C51.1017 3.44832 47.479 3.45023 47.3862 5.97275V8.14824H45.2105C42.6861 8.24195 42.688 11.8648 45.2105 11.9577ZM59.4915 5.83739H59.6268V5.97275C59.7205 8.49717 63.3433 8.49526 63.4361 5.97275V5.83739H63.5716C66.096 5.74368 66.0941 2.12091 63.5716 2.02809H63.4361V1.8926C63.3424 -0.63182 59.7197 -0.629915 59.6268 1.8926V2.02809H59.4915C56.967 2.1218 56.969 5.74457 59.4915 5.83739ZM43.175 26.2636H63.5716C64.6235 26.2636 65.4763 25.4108 65.4763 24.359V22.2934C65.4763 21.2416 64.6235 20.3888 63.5716 20.3888H43.175C42.1231 20.3888 41.2703 21.2416 41.2703 22.2934V24.359C41.2703 25.4108 42.1231 26.2636 43.175 26.2636ZM61.3961 34.0431V31.9776C61.3961 30.9257 60.5433 30.0729 59.4915 30.0729H39.0947C38.0428 30.0729 37.19 30.9257 37.19 31.9776V34.0431C37.19 35.095 38.0428 35.9478 39.0947 35.9478H59.4913C60.5434 35.9478 61.3961 35.095 61.3961 34.0431ZM63.5716 39.7571H43.175C42.1231 39.7571 41.2703 40.6098 41.2703 41.6617V43.7272C41.2703 44.7791 42.1231 45.6319 43.175 45.6319H63.5716C64.6235 45.6319 65.4763 44.7791 65.4763 43.7272V41.6617C65.4763 40.6098 64.6236 39.7571 63.5716 39.7571ZM63.4361 53.4112V51.3457C63.4361 50.2938 62.5834 49.4411 61.5315 49.4411H41.1348C40.083 49.4411 39.2302 50.2938 39.2302 51.3457V53.4112C39.2302 54.4631 40.083 55.3159 41.1348 55.3159H61.5315C62.5834 55.3159 63.4361 54.4632 63.4361 53.4112Z" fill="#38769D"></path>
    <path d="M38.166 58.2916C36.5212 57.2873 35.4209 55.4753 35.4209 53.4112V51.3457C35.4209 49.2829 36.5198 47.4723 38.1627 46.4675C37.7014 45.6278 37.46 44.6851 37.461 43.7271V41.6615C37.4608 40.9623 37.5895 40.2691 37.8408 39.6166C35.2915 39.0433 33.3808 36.7628 33.3808 34.0429V31.9774C33.3808 30.3985 34.0256 28.9683 35.0646 27.9336C19.0568 21.188 -2.43377 37.7476 0.856196 54.4241C1.69386 58.2156 3.86047 61.6189 7.29582 64.5394C7.64488 64.8361 8.09615 65.0001 8.56368 65.0001H37.7932C37.5761 64.3886 37.4653 63.7444 37.4656 63.0955V61.0299C37.4656 60.0382 37.7198 59.1052 38.166 58.2916ZM63.5762 59.1252H43.1796C42.1277 59.1252 41.2749 59.9779 41.2749 61.0298V63.0953C41.2749 64.1472 42.1277 65 43.1796 65H63.5762C64.6281 65 65.4809 64.1472 65.4809 63.0953V61.0298C65.4809 59.9779 64.6281 59.1252 63.5762 59.1252Z" fill="#38769D"></path>
  </g>
  <defs>
    <clipPath id="clip0_1_233">
      <rect width="65" height="65" fill="white" transform="translate(0.5)"></rect>
    </clipPath>
  </defs>
</svg>
