<?xml version="1.0" encoding="UTF-8"?>
<svg xmlns="http://www.w3.org/2000/svg" width="68" height="57" viewBox="0 0 68 57" fill="none">
  <mask id="path-1-outside-1_61_2248" maskUnits="userSpaceOnUse" x="-1" y="-1" width="70" height="59" fill="black">
    <rect fill="white" x="-1" y="-1" width="70" height="59"></rect>
    <path d="M23.4513 28C23.4513 12.46 21.1413 1.68 16.5213 1.68C11.9713 1.68 9.66133 12.46 9.66133 28C9.66133 45.29 11.9713 55.37 16.5213 55.37C21.1413 55.37 23.4513 45.29 23.4513 28ZM0.211328 28C0.211328 7.42 6.93133 0.349999 16.5213 0.349999C26.1813 0.349999 32.9013 7.42 32.9013 28C32.9013 49.63 26.1813 56.7 16.5213 56.7C6.93133 56.7 0.211328 49.63 0.211328 28ZM37.1254 42.07L52.3854 1.05H60.3654V36.26H65.4054C66.7354 36.26 66.9454 35 66.9454 33.67H67.7854V44.66H66.9454C66.9454 43.33 66.7354 42.07 65.4054 42.07H60.3654V53.62C60.3654 54.95 61.6254 55.16 62.9554 55.16V56H49.2354V55.16C50.5654 55.16 51.8254 54.95 51.8254 53.62V42.07H37.1254ZM40.9054 36.26H51.8254V7.49L40.9054 36.26Z"></path>
  </mask>
  <path d="M24.4513 28C24.4513 20.197 23.8729 13.5236 22.6892 8.77082C22.099 6.40131 21.3409 4.43508 20.3759 3.03865C19.4051 1.634 18.1268 0.679998 16.5213 0.679998V2.68C17.2258 2.68 17.9688 3.07349 18.7305 4.17572C19.498 5.28617 20.1836 6.98618 20.7485 9.25417C21.8748 13.7764 22.4513 20.263 22.4513 28H24.4513ZM16.5213 0.679998C14.9269 0.679998 13.6619 1.64137 12.7042 3.04304C11.7507 4.43869 10.9998 6.40375 10.4143 8.77255C9.23983 13.5242 8.66133 20.1967 8.66133 28H10.6613C10.6613 20.2633 11.2378 13.7758 12.3559 9.25245C12.9166 6.98375 13.5964 5.28256 14.3556 4.17133C15.1107 3.06613 15.8407 2.68 16.5213 2.68V0.679998ZM8.66133 28C8.66133 36.6712 9.23889 43.6084 10.4138 48.4066C10.9996 50.7993 11.7521 52.7381 12.7125 54.1009C13.6848 55.4805 14.9518 56.37 16.5213 56.37V54.37C15.8159 54.37 15.0878 53.9995 14.3473 52.9488C13.5949 51.8812 12.9168 50.2195 12.3564 47.9309C11.2388 43.3666 10.6613 36.6188 10.6613 28H8.66133ZM16.5213 56.37C18.1021 56.37 19.3822 55.4874 20.3675 54.1053C21.3395 52.7418 22.0992 50.8017 22.6897 48.4083C23.8738 43.609 24.4513 36.6709 24.4513 28H22.4513C22.4513 36.6191 21.8738 43.366 20.7479 47.9292C20.1835 50.217 19.4994 51.8776 18.7389 52.9444C17.9917 53.9926 17.2506 54.37 16.5213 54.37V56.37ZM1.21133 28C1.21133 17.7858 2.88501 11.1085 5.60342 7.01026C8.27179 2.98742 12.0134 1.35 16.5213 1.35V-0.650001C11.4393 -0.650001 7.02586 1.24758 3.93674 5.90474C0.897647 10.4865 -0.788672 17.6342 -0.788672 28H1.21133ZM16.5213 1.35C21.0668 1.35 24.8253 2.98938 27.5013 7.01142C30.2276 11.1091 31.9013 17.7856 31.9013 28H33.9013C33.9013 17.6344 32.2151 10.4859 29.1664 5.90357C26.0674 1.24562 21.6359 -0.650001 16.5213 -0.650001V1.35ZM31.9013 28C31.9013 38.7468 30.2254 45.6889 27.4938 49.9187C24.8164 54.0647 21.0625 55.7 16.5213 55.7V57.7C21.6402 57.7 26.0763 55.8003 29.1739 51.0038C32.2173 46.2911 33.9013 38.8832 33.9013 28H31.9013ZM16.5213 55.7C12.0178 55.7 8.28073 54.0667 5.61088 49.9199C2.8872 45.6895 1.21133 38.7466 1.21133 28H-0.788672C-0.788672 38.8834 0.895455 46.2905 3.92927 51.0026C7.01693 55.7983 11.4349 57.7 16.5213 57.7V55.7ZM37.1254 42.07L36.1881 41.7213L35.6864 43.07H37.1254V42.07ZM52.3854 1.05V0.0499982H51.6904L51.4481 0.70133L52.3854 1.05ZM60.3654 1.05H61.3654V0.0499982H60.3654V1.05ZM60.3654 36.26H59.3654V37.26H60.3654V36.26ZM66.9454 33.67V32.67H65.9454V33.67H66.9454ZM67.7854 33.67H68.7854V32.67H67.7854V33.67ZM67.7854 44.66V45.66H68.7854V44.66H67.7854ZM66.9454 44.66H65.9454V45.66H66.9454V44.66ZM60.3654 42.07V41.07H59.3654V42.07H60.3654ZM62.9554 55.16H63.9554V54.16H62.9554V55.16ZM62.9554 56V57H63.9554V56H62.9554ZM49.2354 56H48.2354V57H49.2354V56ZM49.2354 55.16V54.16H48.2354V55.16H49.2354ZM51.8254 42.07H52.8254V41.07H51.8254V42.07ZM40.9054 36.26L39.9705 35.9051L39.4562 37.26H40.9054V36.26ZM51.8254 36.26V37.26H52.8254V36.26H51.8254ZM51.8254 7.49H52.8254L50.8905 7.13514L51.8254 7.49ZM38.0626 42.4187L53.3226 1.39867L51.4481 0.70133L36.1881 41.7213L38.0626 42.4187ZM52.3854 2.05H60.3654V0.0499982H52.3854V2.05ZM59.3654 1.05V36.26H61.3654V1.05H59.3654ZM60.3654 37.26H65.4054V35.26H60.3654V37.26ZM65.4054 37.26C65.9015 37.26 66.3664 37.1401 66.7648 36.8724C67.1595 36.6071 67.4174 36.2451 67.5845 35.8776C67.8996 35.1843 67.9454 34.3458 67.9454 33.67H65.9454C65.9454 34.3242 65.8862 34.7807 65.7638 35.0499C65.7121 35.1637 65.6681 35.1997 65.6494 35.2123C65.6344 35.2224 65.5743 35.26 65.4054 35.26V37.26ZM66.9454 34.67H67.7854V32.67H66.9454V34.67ZM66.7854 33.67V44.66H68.7854V33.67H66.7854ZM67.7854 43.66H66.9454V45.66H67.7854V43.66ZM67.9454 44.66C67.9454 43.9842 67.8996 43.1457 67.5845 42.4524C67.4174 42.0849 67.1595 41.7229 66.7648 41.4576C66.3664 41.1899 65.9015 41.07 65.4054 41.07V43.07C65.5743 43.07 65.6344 43.1076 65.6494 43.1177C65.6681 43.1303 65.7121 43.1663 65.7638 43.2801C65.8862 43.5493 65.9454 44.0058 65.9454 44.66H67.9454ZM65.4054 41.07H60.3654V43.07H65.4054V41.07ZM59.3654 42.07V53.62H61.3654V42.07H59.3654ZM59.3654 53.62C59.3654 54.1161 59.4853 54.581 59.753 54.9795C60.0182 55.3741 60.3803 55.6321 60.7478 55.7991C61.4411 56.1142 62.2795 56.16 62.9554 56.16V54.16C62.3012 54.16 61.8447 54.1008 61.5754 53.9784C61.4617 53.9267 61.4257 53.8827 61.4131 53.864C61.403 53.849 61.3654 53.7889 61.3654 53.62H59.3654ZM61.9554 55.16V56H63.9554V55.16H61.9554ZM62.9554 55H49.2354V57H62.9554V55ZM50.2354 56V55.16H48.2354V56H50.2354ZM49.2354 56.16C49.9112 56.16 50.7497 56.1142 51.4429 55.7991C51.8105 55.6321 52.1725 55.3741 52.4378 54.9795C52.7055 54.581 52.8254 54.1161 52.8254 53.62H50.8254C50.8254 53.7889 50.7878 53.849 50.7777 53.864C50.7651 53.8827 50.729 53.9267 50.6153 53.9784C50.3461 54.1008 49.8895 54.16 49.2354 54.16V56.16ZM52.8254 53.62V42.07H50.8254V53.62H52.8254ZM51.8254 41.07H37.1254V43.07H51.8254V41.07ZM40.9054 37.26H51.8254V35.26H40.9054V37.26ZM52.8254 36.26V7.49H50.8254V36.26H52.8254ZM50.8905 7.13514L39.9705 35.9051L41.8403 36.6149L52.7603 7.84486L50.8905 7.13514Z" fill="#F3D699" mask="url(#path-1-outside-1_61_2248)"></path>
</svg>
