<?xml version="1.0" encoding="UTF-8"?>
<svg xmlns="http://www.w3.org/2000/svg" width="66" height="65" viewBox="0 0 66 65" fill="none">
  <g clip-path="url(#clip0_1_198)">
    <path d="M32.3627 15.2941H36.1863C36.1863 12.8036 35.3016 11.4765 34.5906 10.4102C34.0166 9.54888 33.6373 8.98007 33.6373 7.64706C33.6373 6.31405 34.0166 5.74524 34.5906 4.88392C35.3016 3.81767 36.1863 2.49065 36.1863 0H32.3627C32.3627 1.33288 31.9833 1.90182 31.4094 2.76314C30.6984 3.82939 29.8137 5.15641 29.8137 7.64706C29.8137 10.1377 30.6984 11.4647 31.4094 12.531C31.9833 13.3923 32.3627 13.9611 32.3627 15.2941ZM44.4706 22.9412H48.2941C48.2941 20.4505 47.4095 19.1235 46.6984 18.0573C46.1243 17.1961 45.7451 16.6271 45.7451 15.2941C45.7451 13.9611 46.1244 13.3923 46.6984 12.531C47.4095 11.4647 48.2941 10.1376 48.2941 7.64706H44.4706C44.4706 8.98007 44.0913 9.54888 43.5173 10.4102C42.8062 11.4765 41.9216 12.8036 41.9216 15.2941C41.9216 17.7846 42.8062 19.1118 43.5173 20.178C44.0913 21.0394 44.4706 21.6083 44.4706 22.9412ZM17.7059 22.9412H21.5294C21.5294 21.6083 21.9088 21.0394 22.4829 20.178C23.1938 19.1118 24.0784 17.7848 24.0784 15.2941C24.0784 12.8035 23.1938 11.4765 22.4829 10.4102C21.9088 9.54888 21.5294 8.98007 21.5294 7.64706H17.7059C17.7059 10.1376 18.5905 11.4647 19.3016 12.531C19.8756 13.3922 20.2549 13.9611 20.2549 15.2941C20.2549 16.6271 19.8755 17.1959 19.3016 18.0573C18.5905 19.1235 17.7059 20.4505 17.7059 22.9412ZM0.5 53.5294V57.3529H5.0537L8.87723 65H57.1226L60.9462 57.3529H65.5V53.5294H0.5ZM38.7353 29.2941V28.6765C38.7353 25.514 36.1626 22.9412 33 22.9412C29.8314 22.9412 27.2647 25.5074 27.2647 28.6765V29.2941C17.1545 31.5066 9.11225 39.4286 6.85827 49.7059H59.1419C56.8889 39.434 48.8503 31.5078 38.7353 29.2941Z" fill="#38769D"></path>
  </g>
  <defs>
    <clipPath id="clip0_1_198">
      <rect width="65" height="65" fill="white" transform="translate(0.5)"></rect>
    </clipPath>
  </defs>
</svg>
