<?xml version="1.0" encoding="UTF-8"?>
<svg xmlns="http://www.w3.org/2000/svg" width="66" height="65" viewBox="0 0 66 65" fill="none">
  <path d="M22.3359 43.3672C22.1328 43.4687 22.0313 43.5703 21.8281 43.6719C20 44.8906 17.7656 45.8047 15.2266 46.3125C14.7188 46.4141 5.47657 47.8359 5.67969 65H29.6484V59.1094C29.6484 58.5 29.5469 57.8906 29.5469 57.2812C29.4453 55.3516 29.2422 53.2188 29.8516 51.1875C26.0937 50.2734 23.5547 47.6328 22.3359 43.3672ZM37.2656 45.5C40.1094 44.9922 41.0234 42.1484 41.3281 41.0312C41.125 40.7266 40.9219 40.5234 40.7187 40.2187C40.2109 39.5078 39.8047 38.6953 39.3984 37.9844L39.2969 38.0859C37.3672 39.6094 35.2344 40.3203 33.1016 40.3203C30.9687 40.3203 28.8359 39.6094 26.9063 38.0859L26.8047 37.9844C26.6016 38.4922 26.2969 39 25.9922 39.5078C25.4844 40.3203 24.875 41.1328 24.2656 41.7422C25.2812 46.0078 27.4141 48.4453 30.9687 49.1562C32.1875 47.2266 34.3203 46.0078 37.2656 45.5Z" fill="#38769D"></path>
  <path d="M33.1016 18.2812H32.6953C31.1719 18.2812 26.0937 18.4843 22.8437 21.3281C22.6406 21.5312 22.3359 21.7343 22.1328 22.039L22.0312 22.1406V22.4453C22.1328 24.9843 22.3359 31.789 28.125 36.2578C31.0703 38.5937 34.8281 38.5937 37.875 36.2578C43.5625 31.8906 43.8672 24.9843 43.9687 22.4453V22.039C43.7656 21.8359 43.4609 21.6328 43.2578 21.3281C39.3984 18.0781 33.1016 18.2812 33.1016 18.2812ZM31.8828 64.9999H60.3203C60.5234 47.7343 50.9766 46.3124 50.875 46.3124C48.7422 45.9062 46.9141 45.2968 45.2891 44.3828C44.4766 43.9765 43.6641 43.3671 43.0547 42.8593C42.3438 44.6874 40.9219 47.1249 37.6719 47.7343C35.0312 48.1406 33.3047 49.2578 32.3906 50.9843C31.4766 52.7109 31.6797 54.9453 31.7812 57.1796C31.8828 57.8906 31.8828 58.4999 31.8828 59.1093V63.8828V64.9999ZM45.0859 55.2499H50.6719C51.2813 55.2499 51.7891 55.7578 51.7891 56.3671C51.7891 56.9765 51.2813 57.4843 50.6719 57.4843H45.0859C44.4766 57.4843 43.9687 56.9765 43.9687 56.3671C43.9687 55.7578 44.4766 55.2499 45.0859 55.2499Z" fill="#38769D"></path>
  <path d="M21.5234 14.2188C21.8281 14.4219 22.0312 14.7266 22.0312 15.1328V19.0937C26.2969 15.9453 32.2891 16.0469 33 16.1484C33.7109 16.1484 39.7031 15.9453 43.9687 19.1953V15.1328C43.9687 14.7266 44.1719 14.4219 44.4766 14.2188C46.1016 13.2031 47.0156 11.4766 47.0156 9.64844C47.0156 6.60156 44.5781 4.16406 41.5313 4.16406C40.8203 4.16406 40.2109 4.26563 39.7031 4.46875C39.3984 4.57031 39.0938 4.57031 38.7891 4.46875C38.4844 4.36719 38.2812 4.0625 38.1797 3.85937C37.4687 1.52344 35.3359 0 33 0C30.6641 0 28.5312 1.52344 27.8203 3.75781C27.7187 4.0625 27.5156 4.26563 27.2109 4.36719C26.9062 4.46875 26.6016 4.46875 26.2969 4.36719C25.7891 4.16406 25.1797 4.0625 24.4687 4.0625C21.4219 4.0625 18.9844 6.5 18.9844 9.54687C18.9844 11.4766 20 13.2031 21.5234 14.2188Z" fill="#38769D"></path>
</svg>
