<?xml version="1.0" encoding="UTF-8"?>
<svg xmlns="http://www.w3.org/2000/svg" width="58" height="58" viewBox="0 0 58 58" fill="none">
  <path d="M54.7375 45.82C54.6628 45.6675 54.5467 45.539 54.4025 45.4493C54.2583 45.3596 54.0917 45.3122 53.9219 45.3125H53.4688V30.8125C53.4688 30.5721 53.3733 30.3416 53.2033 30.1717C53.0334 30.0017 52.8029 29.9062 52.5625 29.9062H51.5566C52.3991 29.0787 52.9939 28.0324 53.2741 26.8851C53.5542 25.7378 53.5085 24.5351 53.1421 23.4124C52.7757 22.2896 52.1032 21.2915 51.2002 20.5303C50.2973 19.7691 49.1998 19.275 48.0313 19.1038V3.625C48.0313 3.38465 47.9358 3.15414 47.7658 2.98418C47.5959 2.81423 47.3654 2.71875 47.125 2.71875C46.8847 2.71875 46.6542 2.81423 46.4842 2.98418C46.3142 3.15414 46.2188 3.38465 46.2188 3.625V19.1038C45.0503 19.275 43.9528 19.7691 43.0498 20.5303C42.1469 21.2915 41.4744 22.2896 41.108 23.4124C40.7416 24.5351 40.6959 25.7378 40.976 26.8851C41.2561 28.0324 41.8509 29.0787 42.6935 29.9062H41.6875C41.4472 29.9062 41.2167 30.0017 41.0467 30.1717C40.8767 30.3416 40.7813 30.5721 40.7813 30.8125V45.3125H35.3438V30.8125C35.3438 30.5721 35.2483 30.3416 35.0783 30.1717C34.9084 30.0017 34.6779 29.9062 34.4375 29.9062H33.4316C34.2741 29.0787 34.869 28.0324 35.1491 26.8851C35.4292 25.7378 35.3835 24.5351 35.0171 23.4124C34.6507 22.2896 33.9782 21.2915 33.0752 20.5303C32.1723 19.7691 31.0748 19.275 29.9063 19.1038V3.625C29.9063 3.38465 29.8108 3.15414 29.6408 2.98418C29.4709 2.81423 29.2404 2.71875 29 2.71875C28.7597 2.71875 28.5292 2.81423 28.3592 2.98418C28.1892 3.15414 28.0938 3.38465 28.0938 3.625V19.1038C26.9253 19.275 25.8278 19.7691 24.9248 20.5303C24.0219 21.2915 23.3494 22.2896 22.983 23.4124C22.6166 24.5351 22.5709 25.7378 22.851 26.8851C23.1311 28.0324 23.7259 29.0787 24.5685 29.9062H23.5625C23.3222 29.9062 23.0917 30.0017 22.9217 30.1717C22.7517 30.3416 22.6563 30.5721 22.6563 30.8125V45.3125H17.2188V30.8125C17.2188 30.5721 17.1233 30.3416 16.9533 30.1717C16.7834 30.0017 16.5529 29.9062 16.3125 29.9062H15.3066C16.1491 29.0787 16.7439 28.0324 17.0241 26.8851C17.3042 25.7378 17.2585 24.5351 16.8921 23.4124C16.5257 22.2896 15.8532 21.2915 14.9502 20.5303C14.0473 19.7691 12.9498 19.275 11.7813 19.1038V3.625C11.7813 3.38465 11.6858 3.15414 11.5158 2.98418C11.3459 2.81423 11.1154 2.71875 10.875 2.71875C10.6347 2.71875 10.4042 2.81423 10.2342 2.98418C10.0642 3.15414 9.96877 3.38465 9.96877 3.625V19.1038C8.80026 19.275 7.70276 19.7691 6.79982 20.5303C5.89688 21.2915 5.22436 22.2896 4.85797 23.4124C4.49158 24.5351 4.44586 25.7378 4.72598 26.8851C5.00609 28.0324 5.6009 29.0787 6.44346 29.9062H5.43752C5.19717 29.9062 4.96666 30.0017 4.7967 30.1717C4.62675 30.3416 4.53127 30.5721 4.53127 30.8125V45.3125H4.07815C3.90748 45.3116 3.74003 45.3589 3.59506 45.4489C3.45009 45.539 3.33349 45.6681 3.25869 45.8215C3.18388 45.9749 3.15391 46.1463 3.17223 46.316C3.19054 46.4857 3.25639 46.6467 3.36221 46.7806C4.83562 48.665 6.81171 50.0944 9.06252 50.9041C9.10249 52.0789 9.59747 53.1923 10.443 54.009C11.2884 54.8257 12.4182 55.2819 13.5938 55.2812H44.4063C45.5818 55.2819 46.7116 54.8257 47.5571 54.009C48.4026 53.1923 48.8976 52.0789 48.9375 50.9041C51.1916 50.0959 53.171 48.6663 54.6469 46.7806C54.7509 46.6453 54.8146 46.4833 54.8307 46.3134C54.8467 46.1434 54.8144 45.9724 54.7375 45.82ZM42.5938 25.375C42.5938 24.4788 42.8595 23.6027 43.3574 22.8576C43.8553 22.1124 44.563 21.5316 45.391 21.1887C46.219 20.8457 47.13 20.756 48.009 20.9308C48.888 21.1057 49.6954 21.5372 50.3291 22.1709C50.9628 22.8046 51.3944 23.612 51.5692 24.491C51.744 25.37 51.6543 26.2811 51.3113 27.109C50.9684 27.937 50.3876 28.6447 49.6424 29.1426C48.8973 29.6405 48.0212 29.9062 47.125 29.9062C45.9233 29.9062 44.7707 29.4289 43.9209 28.5791C43.0712 27.7293 42.5938 26.5768 42.5938 25.375ZM42.5938 31.7188H51.6563V36.25H42.5938V31.7188ZM42.5938 38.0625H51.6563V45.3125H42.5938V38.0625ZM24.4688 25.375C24.4688 24.4788 24.7345 23.6027 25.2324 22.8576C25.7303 22.1124 26.438 21.5316 27.266 21.1887C28.094 20.8457 29.005 20.756 29.884 20.9308C30.763 21.1057 31.5704 21.5372 32.2041 22.1709C32.8378 22.8046 33.2694 23.612 33.4442 24.491C33.619 25.37 33.5293 26.2811 33.1863 27.109C32.8434 27.937 32.2626 28.6447 31.5174 29.1426C30.7723 29.6405 29.8962 29.9062 29 29.9062C27.7983 29.9062 26.6457 29.4289 25.7959 28.5791C24.9462 27.7293 24.4688 26.5768 24.4688 25.375ZM24.4688 31.7188H33.5313V36.25H24.4688V31.7188ZM24.4688 38.0625H33.5313V45.3125H24.4688V38.0625ZM6.34377 25.375C6.34377 24.4788 6.60952 23.6027 7.10742 22.8576C7.60532 22.1124 8.31301 21.5316 9.14099 21.1887C9.96896 20.8457 10.88 20.756 11.759 20.9308C12.638 21.1057 13.4454 21.5372 14.0791 22.1709C14.7128 22.8046 15.1444 23.612 15.3192 24.491C15.494 25.37 15.4043 26.2811 15.0613 27.109C14.7184 27.937 14.1376 28.6447 13.3924 29.1426C12.6473 29.6405 11.7712 29.9062 10.875 29.9062C9.67326 29.9062 8.52072 29.4289 7.67094 28.5791C6.82117 27.7293 6.34377 26.5768 6.34377 25.375ZM6.34377 31.7188H15.4063V36.25H6.34377V31.7188ZM6.34377 38.0625H15.4063V45.3125H6.34377V38.0625ZM46.971 51.6562C46.7835 52.1865 46.4361 52.6456 45.9768 52.9703C45.5174 53.2949 44.9687 53.469 44.4063 53.4688H13.5938C13.0313 53.469 12.4826 53.2949 12.0233 52.9703C11.5639 52.6456 11.2166 52.1865 11.0291 51.6562H46.971ZM44.5966 49.8438H13.4035C10.7351 49.8577 8.15473 48.89 6.15346 47.125H51.8285C49.8319 48.8859 47.2587 49.8532 44.5966 49.8438Z" fill="#41444B"></path>
</svg>
