<?xml version="1.0" encoding="UTF-8"?>
<svg xmlns="http://www.w3.org/2000/svg" width="26" height="26" viewBox="0 0 26 26" fill="none">
  <path d="M13 0.25C10.4783 0.25 8.01321 0.997774 5.91649 2.39876C3.81976 3.79975 2.18556 5.79103 1.22054 8.12079C0.255524 10.4505 0.00303181 13.0141 0.494993 15.4874C0.986955 17.9607 2.20127 20.2325 3.98439 22.0156C5.76751 23.7987 8.03935 25.013 10.5126 25.505C12.9859 25.997 15.5495 25.7445 17.8792 24.7795C20.209 23.8144 22.2003 22.1802 23.6012 20.0835C25.0022 17.9868 25.75 15.5217 25.75 13C25.7455 9.61987 24.4008 6.37947 22.0107 3.98936C19.6205 1.59924 16.3801 0.254498 13 0.25ZM20.1241 9.49906L12.1553 17.4678C12.0575 17.5671 11.9408 17.6459 11.8122 17.6997C11.6837 17.7535 11.5457 17.7812 11.4063 17.7812C11.2669 17.7812 11.1289 17.7535 11.0003 17.6997C10.8717 17.6459 10.7551 17.5671 10.6572 17.4678L6.93844 13.7491C6.73978 13.5504 6.62817 13.281 6.62817 13C6.62817 12.719 6.73978 12.4496 6.93844 12.2509C7.13711 12.0523 7.40655 11.9407 7.68751 11.9407C7.96846 11.9407 8.23791 12.0523 8.43657 12.2509L11.4063 15.2153L18.6259 8.00094C18.8246 7.80227 19.0941 7.69067 19.375 7.69067C19.656 7.69067 19.9254 7.80227 20.1241 8.00094C20.3227 8.1996 20.4343 8.46905 20.4343 8.75C20.4343 9.03095 20.3227 9.3004 20.1241 9.49906Z" fill="#F3D699"></path>
  <path d="M20.1241 9.49883L12.1553 17.4676C12.0575 17.5668 11.9408 17.6457 11.8122 17.6995C11.6837 17.7533 11.5457 17.781 11.4063 17.781C11.2669 17.781 11.1289 17.7533 11.0003 17.6995C10.8717 17.6457 10.7551 17.5668 10.6572 17.4676L6.93845 13.7488C6.73978 13.5502 6.62817 13.2807 6.62817 12.9998C6.62817 12.7188 6.73978 12.4494 6.93845 12.2507C7.13711 12.052 7.40656 11.9404 7.68751 11.9404C7.96846 11.9404 8.23791 12.052 8.43657 12.2507L11.4063 15.2151L18.6259 8.0007C18.8246 7.80204 19.0941 7.69043 19.375 7.69043C19.656 7.69043 19.9254 7.80204 20.1241 8.0007C20.3227 8.19937 20.4343 8.46881 20.4343 8.74976C20.4343 9.03072 20.3227 9.30016 20.1241 9.49883Z" fill="white"></path>
</svg>
