<?xml version="1.0" encoding="UTF-8"?>
<svg xmlns="http://www.w3.org/2000/svg" width="102" height="102" viewBox="0 0 102 102" fill="none">
  <rect x="6" y="6" width="90" height="90" rx="45" fill="white"></rect>
  <rect x="4.5" y="4.5" width="93" height="93" rx="46.5" stroke="url(#paint0_linear_528_3954)" stroke-width="3"></rect>
  <rect x="1.5" y="1.5" width="99" height="99" rx="49.5" stroke="white" stroke-width="3"></rect>
  <path fill-rule="evenodd" clip-rule="evenodd" d="M50.1291 24.6635C50.0254 24.7673 49.909 25.0237 49.8707 25.2333C49.7706 25.7806 49.6496 25.9301 48.4918 26.9378L47.4517 27.8429L46.8927 27.5977C46.5852 27.4627 46.0303 27.2537 45.6596 27.1332C44.9842 26.9137 44.9262 26.8723 44.4534 26.2709C44.2652 26.0317 44.1341 25.9548 43.9519 25.9768C43.5629 26.0238 43.4831 26.2504 43.634 26.8792C43.8049 27.5913 43.7051 27.935 42.9328 29.2938L42.3463 30.326L41.0051 30.2913C39.3805 30.2492 39.0795 30.1796 38.6106 29.7374C38.193 29.3435 37.816 29.2137 37.6031 29.3904C37.4074 29.5527 37.4194 29.7747 37.6512 30.2856C37.9061 30.8469 37.8974 31.5633 37.6225 32.6863C37.3721 33.7088 37.2852 33.8459 36.7874 34.0036C36.5894 34.0663 36.0363 34.2913 35.5584 34.5037C34.5714 34.9421 34.3839 34.9657 33.6321 34.746C32.9736 34.5535 32.7418 34.5472 32.5114 34.7156C32.3485 34.8347 32.3461 34.8687 32.4826 35.1326C32.5643 35.2905 32.7285 35.5079 32.8474 35.6155C33.139 35.8793 33.2926 36.2009 33.4246 36.8242C33.5001 37.1808 33.6558 37.4919 33.9151 37.8047C34.4055 38.3959 34.4743 38.5386 34.6024 39.2316C34.794 40.2678 34.528 41.478 33.6296 43.6555C32.6057 46.1377 32.2611 47.4588 32.2597 48.9082C32.2586 49.9654 32.4871 50.554 33.1033 51.0821C33.2942 51.2456 33.2924 51.2223 33.0629 50.5428C32.8422 49.8898 32.8276 49.734 32.8802 48.607C32.963 46.8366 33.2224 45.9586 34.4734 43.2143C34.9412 42.1884 34.9427 42.1814 34.9235 41.2139C34.901 40.085 35.0007 39.8486 35.5688 39.6841C35.9224 39.5818 36.3503 39.6482 37.114 39.9239L37.3101 39.9946L37.114 39.8353C37.0061 39.7476 36.675 39.6096 36.3784 39.5287C35.1587 39.1958 34.9855 39.0004 34.6243 37.5498C34.5152 37.1118 34.3326 36.5704 34.2184 36.3465C34.1041 36.1228 34.0248 35.9283 34.0421 35.9145C34.0593 35.9006 34.3603 35.8355 34.711 35.7697C35.0616 35.7039 35.8065 35.4327 36.3665 35.1671C36.9263 34.9014 37.426 34.684 37.4767 34.684C37.5275 34.684 37.7735 34.8273 38.0234 35.0027C38.2732 35.178 38.5139 35.3466 38.5582 35.3775C38.6024 35.4084 38.5714 35.5945 38.4894 35.7911C38.2868 36.2757 38.3015 36.9928 38.5276 37.6496C38.6919 38.1271 38.6979 38.2193 38.5758 38.3936C38.4991 38.503 38.34 38.6066 38.2223 38.6238C38.0726 38.6456 37.9826 38.7547 37.9226 38.987C37.7998 39.4634 37.9199 39.5264 38.6104 39.3475C38.9358 39.2632 39.5136 39.1943 39.8945 39.1943H40.5869L40.6525 38.8449C40.6886 38.6527 40.6954 38.3263 40.6676 38.1195L40.6172 37.7434L41.1705 37.6745C41.8539 37.5894 42.0248 37.5013 42.2132 37.1372C42.5005 36.5817 42.3675 35.8426 41.8891 35.3368C41.3383 34.7544 40.6021 34.5553 39.8239 34.7784C39.4106 34.8969 38.8549 34.6412 38.5279 34.1822C38.3232 33.8948 38.3156 33.8351 38.424 33.371C38.4885 33.0955 38.6158 32.4372 38.7069 31.9082C38.8607 31.0162 38.8872 30.9511 39.0723 31.0131C39.182 31.0498 39.8974 31.1088 40.6621 31.1443C42.2516 31.218 42.3493 31.2627 42.6052 32.0328C42.7448 32.4528 42.7449 32.5502 42.6065 33.0753C42.2977 34.2465 42.844 35.4684 43.6762 35.4684C43.979 35.4684 44.0532 35.3556 43.9442 35.0613C43.7983 34.6666 43.995 34.3208 44.4686 34.1401C45.0354 33.9237 45.3622 34.075 45.6961 34.7084C45.8761 35.0502 45.9991 35.1737 46.1594 35.1739C46.404 35.1742 46.6769 34.7464 46.6769 34.3625C46.6769 33.8399 45.2748 32.164 44.6176 31.9011C44.4033 31.8155 44.0458 31.7162 43.8231 31.6806C43.4836 31.6263 43.3963 31.5633 43.2821 31.2901C43.0838 30.8155 43.1062 30.7094 43.5249 30.1427C43.9768 29.5313 44.2368 29.0311 44.4645 28.3353C44.5571 28.0522 44.6624 27.8205 44.6984 27.8205C44.851 27.8205 46.9334 28.5421 47.0518 28.636C47.2545 28.7966 47.5482 29.4305 47.6158 29.8529C47.6693 30.1873 47.6462 30.2568 47.4359 30.3945C46.995 30.6833 46.5786 31.4316 46.581 31.9309C46.5868 33.1554 47.8289 34.2565 48.7638 33.866C49.1312 33.7126 49.6447 33.1169 49.8659 32.5877C50.0519 32.1428 50.0528 31.4203 49.8681 31.0629C49.6955 30.7295 49.1953 30.2923 48.9007 30.2176C48.7358 30.1758 48.6327 29.9928 48.445 29.4087C48.3116 28.9936 48.2013 28.6041 48.1998 28.5432C48.1983 28.4825 48.7105 27.9892 49.3379 27.4471L50.4786 26.4616L50.7601 26.7594C50.9149 26.9232 51.3614 27.3199 51.7525 27.6411C52.1434 27.9623 52.5009 28.2995 52.5468 28.3905C52.5993 28.4946 52.5614 28.7843 52.4442 29.1729C52.2799 29.7176 52.1952 29.8382 51.7214 30.2024C51.1161 30.6678 50.6976 31.3763 50.6991 31.9333C50.7002 32.344 51.1597 33.1972 51.5414 33.4974C51.6857 33.6107 51.9711 33.7537 52.1757 33.815C52.5108 33.9154 52.5913 33.9009 52.9858 33.6698C53.8047 33.19 54.205 32.4794 54.0897 31.7101C54.012 31.1926 53.5118 30.3063 53.2505 30.2234C52.9989 30.1436 53.0012 30.1065 53.2964 29.4726C53.4308 29.1841 53.5411 28.8796 53.5416 28.7958C53.5423 28.6891 53.9024 28.5206 54.7459 28.232C55.4078 28.0057 55.9987 27.8205 56.0591 27.8205C56.1196 27.8205 56.1962 27.9654 56.2294 28.1425C56.2626 28.3197 56.5765 28.9593 56.9269 29.5639C57.6093 30.7418 57.7073 31.1566 57.3923 31.5344C57.2615 31.6913 57.0764 31.7505 56.6154 31.7831C56.2826 31.8066 55.9031 31.8959 55.7721 31.9817C55.4699 32.1798 54.1011 33.934 54.024 34.2222C53.9464 34.5128 54.1494 35.3213 54.3001 35.3213C54.3662 35.3213 54.5648 35.0796 54.7415 34.7842C55.3986 33.686 56.3869 33.9525 56.3869 35.2279C56.3869 35.6189 56.2953 35.6003 57.2787 35.4096C57.5262 35.3616 57.6253 35.2579 57.8172 34.8458C58.1454 34.1413 58.1952 33.7793 58.0549 33.1181C57.9394 32.5737 57.9461 32.5182 58.1916 31.9994C58.3337 31.6992 58.5485 31.3983 58.669 31.3309C58.8048 31.2548 59.2978 31.2058 59.9669 31.2017C60.5603 31.198 61.2312 31.1585 61.4578 31.1138C61.8425 31.038 61.8727 31.048 61.9139 31.265C62.1152 32.3265 62.2718 33.3239 62.2718 33.5446C62.2718 33.7244 62.1276 33.964 61.8247 34.2877L61.3778 34.7655L60.28 34.7982C59.2566 34.8288 59.1537 34.8504 58.7615 35.1164C58.53 35.2733 58.3755 35.4277 58.4182 35.4596C58.4608 35.4913 59.3171 35.5046 60.321 35.4888L62.1464 35.4602L62.4561 35.029L62.7659 34.5978L63.328 34.79C63.6372 34.8957 64.0946 35.1085 64.3445 35.2631C64.6201 35.4335 65.1212 35.6093 65.6178 35.7099C66.0683 35.8012 66.613 35.9565 66.8283 36.0552L67.2197 36.2345L67.5427 35.9511C67.9895 35.5589 68.4509 35.0225 68.4509 34.8951C68.4509 34.7482 68.1216 34.5859 67.8235 34.5859C67.6871 34.5859 67.3421 34.6785 67.0569 34.7916C66.3795 35.0603 65.7665 34.9953 65.0979 34.5841C64.5374 34.2392 63.7243 33.8996 63.4594 33.8996C63.3125 33.8996 63.2701 33.7912 63.2195 33.2868C63.1855 32.9498 63.0928 32.4975 63.0134 32.2818C62.8033 31.7116 62.8219 30.9273 63.0565 30.4679C63.2909 30.0084 63.307 29.6538 63.1026 29.4495C62.9165 29.2634 62.7173 29.3314 62.2601 29.737C61.7595 30.1813 61.3878 30.2746 60.0047 30.3037C59.3366 30.3178 58.7179 30.3632 58.6299 30.4046C58.5018 30.4649 58.3656 30.2891 57.9434 29.5179C57.1833 28.1295 57.1457 28.0019 57.2139 27.048C57.2759 26.1814 57.2054 25.9576 56.8702 25.9576C56.7716 25.9576 56.5255 26.1554 56.3234 26.3971C55.9987 26.7854 55.8462 26.873 55.0189 27.1461C54.5036 27.3163 53.9116 27.541 53.7035 27.6454L53.3249 27.8354L53.0169 27.5093C52.8475 27.33 52.3716 26.9108 51.9594 26.5779C51.248 26.0033 51.1978 25.9362 50.971 25.2543C50.7082 24.4647 50.4849 24.3079 50.1291 24.6635ZM50.2357 28.2881C49.9289 28.3381 49.5212 28.8579 49.5212 29.1992C49.5212 29.5034 49.9489 30.0535 50.2078 30.0824C50.5467 30.1204 50.6989 30.06 50.9849 29.774C51.3437 29.4153 51.3645 29.1401 51.066 28.7028C50.8289 28.3552 50.5816 28.2317 50.2357 28.2881ZM50.1751 28.8664C50.1391 28.9023 50.1097 29.0126 50.1097 29.1115C50.1097 29.2459 50.1841 29.2913 50.404 29.2913C50.7124 29.2913 50.7898 29.1279 50.5805 28.9187C50.4503 28.7885 50.2756 28.7659 50.1751 28.8664ZM45.0173 29.6249C44.59 30.1397 44.7584 30.8811 45.3808 31.2256C45.9753 31.5545 46.3826 31.2453 46.3826 30.4649C46.3826 30.0356 45.8611 29.4874 45.4527 29.4874C45.2761 29.4874 45.0802 29.5492 45.0173 29.6249ZM54.8536 29.6611C54.1735 30.2119 54.3146 31.3503 55.0629 31.3503C55.5605 31.3503 55.904 31.0073 55.9671 30.4476C56.0117 30.0522 55.9853 29.9594 55.7658 29.7399C55.4736 29.4478 55.1514 29.42 54.8536 29.6611ZM45.3712 30.139C45.2455 30.2646 45.3029 30.5446 45.4672 30.6077C45.7 30.6969 45.8663 30.5061 45.7359 30.2994C45.6158 30.1091 45.4667 30.0435 45.3712 30.139ZM55.0463 30.3284C54.9752 30.5135 55.2441 30.8131 55.3967 30.7188C55.5574 30.6194 55.5263 30.3012 55.349 30.2332C55.1306 30.1494 55.1129 30.155 55.0463 30.3284ZM51.9819 31.0185C51.5631 31.5507 51.5393 32.2689 51.921 32.8513C52.1739 33.2373 52.5597 33.2061 52.9439 32.7686C53.2039 32.4727 53.2483 32.3448 53.2483 31.8937C53.2483 31.4345 53.2089 31.3259 52.9465 31.0637C52.5757 30.693 52.2501 30.6777 51.9819 31.0185ZM47.766 31.2067C47.4151 31.606 47.3586 32.1417 47.615 32.6372C47.7994 32.9938 48.307 33.2401 48.5688 33.1C49.0622 32.836 49.2773 31.9215 48.9808 31.3483C48.6797 30.7663 48.2017 30.7106 47.766 31.2067ZM40.2344 32.3278C39.94 32.4515 39.7941 32.7616 39.83 33.188C39.8641 33.5919 40.1745 33.8346 40.8047 33.9499C41.1001 34.0039 41.1972 33.9761 41.3768 33.7858C41.5483 33.6039 41.5827 33.4773 41.5431 33.1737C41.458 32.5208 40.795 32.0922 40.2344 32.3278ZM59.5966 32.34C59.3413 32.4886 59.0051 33.2585 59.0853 33.511C59.185 33.8251 59.7453 34.0275 60.1817 33.9069C60.6038 33.7905 60.9967 33.4454 60.9967 33.1913C60.9967 32.9226 60.7296 32.4502 60.5117 32.3337C60.2723 32.2056 59.8223 32.2086 59.5966 32.34ZM59.7871 32.8864C59.6712 33.0023 59.7174 33.2837 59.8737 33.4135C60.0858 33.5894 60.3576 33.3213 60.2646 33.0281C60.2018 32.8303 59.9253 32.7482 59.7871 32.8864ZM40.4729 33.0417C40.4076 33.2355 40.5086 33.5074 40.6459 33.5074C40.7761 33.5074 40.8901 33.2978 40.8901 33.0581C40.8901 32.8867 40.5298 32.8724 40.4729 33.0417ZM78.5042 33.5921C77.6606 33.9758 76.8328 35.1032 76.4064 36.4489C75.9158 37.9974 75.6791 39.5522 75.6555 41.3832L75.6329 43.1311L75.2221 43.8941C74.826 44.6297 74.2948 45.2815 73.934 45.4745C73.809 45.5414 73.7146 45.5208 73.5944 45.4006C73.2773 45.0836 73.4514 43.9046 74.1273 41.7926L74.7234 39.9296L74.5187 39.7581C74.1897 39.4822 73.9399 39.5527 73.4516 40.0592L72.9959 40.5319L72.7749 40.1481C72.109 38.9914 70.028 39.2202 68.7936 40.5857C68.2032 41.2389 67.6878 42.3061 67.5569 43.1466C67.4759 43.6669 67.4868 43.9117 67.6125 44.4026C67.9226 45.6123 68.3983 46.0571 69.3827 46.0571C70.0156 46.0571 70.3037 45.9286 71.0599 45.309C71.5416 44.9145 71.5895 44.9067 71.5895 45.2228C71.5895 45.4027 71.4416 45.5831 71.0256 45.9109C70.3992 46.4043 69.8671 46.5927 69.311 46.5182C68.8897 46.4617 68.8164 46.6034 69.1929 46.7465C70.0016 47.0539 71.18 46.6962 71.5479 46.0317L71.7524 45.6624L71.9405 45.8701C72.2922 46.2586 72.6065 46.3586 73.1516 46.2552C74.1664 46.0628 74.7605 45.6211 75.3987 44.5844C75.917 43.7425 75.9118 43.7434 76.2531 44.4368C76.7755 45.4982 77.9091 46.1767 79.1908 46.195C80.0164 46.2068 80.5879 46.0121 81.5145 45.4031C82.4568 44.7839 83.6268 43.4023 83.8029 42.701C83.8712 42.4291 83.5436 41.5475 83.3743 41.5475C83.3226 41.5475 83.1145 41.7972 82.9118 42.1023C82.3404 42.963 81.501 43.7433 80.7732 44.0906C79.7058 44.5997 78.4789 44.5993 77.8305 44.0893C77.5226 43.8472 77.5063 43.7448 77.7647 43.6772C78.3288 43.5297 80.8075 38.5366 81.3439 36.4671C81.5331 35.7371 81.5398 34.7589 81.3579 34.4095C81.2821 34.2638 81.1126 34.0443 80.9812 33.9217L80.7423 33.6986L80.8947 34.2837C81.0878 35.0245 80.9652 35.8412 80.4548 37.2151C79.7389 39.1425 77.5119 43.5292 77.3662 43.2993C77.1892 43.0201 77.2969 42.6826 77.9044 41.6129C80.4735 37.089 81.1272 34.5287 79.9498 33.6028C79.6379 33.3575 79.0299 33.3531 78.5042 33.5921ZM50.0942 33.6083C50.0047 33.6604 49.7289 34.0778 49.4812 34.5358C48.9766 35.4687 48.9077 35.9336 49.227 36.2528C49.4634 36.4891 49.5667 36.494 50.1219 36.2952C50.3819 36.2022 50.6946 36.1638 50.9152 36.1978C51.2101 36.2433 51.2986 36.2178 51.381 36.0636C51.6357 35.5881 51.3489 34.5995 50.7636 33.9348C50.3584 33.4745 50.3392 33.4652 50.0942 33.6083ZM79.1941 34.9922C78.8315 35.4228 78.5278 36.0524 78.1265 37.2047C77.6368 38.6114 77.0974 41.2886 77.2809 41.4021C77.4191 41.4875 78.871 38.1503 79.4452 36.4272C79.7565 35.4933 79.8246 34.684 79.5919 34.684C79.5158 34.684 79.3368 34.8226 79.1941 34.9922ZM39.6662 35.5541C39.285 35.6358 39.1645 35.9667 39.3139 36.5215C39.439 36.9856 39.6102 37.0721 40.4074 37.0738C41.3028 37.0759 41.7539 36.6706 41.493 36.0983C41.2577 35.5818 40.538 35.3675 39.6662 35.5541ZM57.4658 36.1562C53.8803 36.4084 51.4484 36.9067 49.2025 37.8493L48.2462 38.2506V38.6088C48.2462 38.8058 48.1805 39.1836 48.1001 39.4483C47.9175 40.0501 47.9168 40.0408 48.1269 39.8507C48.4991 39.514 50.4748 38.787 51.8752 38.4714C52.9392 38.2317 54.7 37.9288 55.9946 37.7628C57.4993 37.57 63.3394 37.5403 65.2142 37.7161C65.8885 37.7792 66.9037 37.871 67.4701 37.9198C68.0365 37.9687 68.9413 38.0562 69.4808 38.1144C70.7166 38.2476 74.4736 38.4015 74.9053 38.3366C75.2609 38.2833 75.4756 38.0321 75.5702 37.5587L75.6307 37.257L75.0568 37.4523C74.5535 37.6236 74.3079 37.6415 73.0607 37.5972C72.1247 37.5641 71.1691 37.458 70.2654 37.2868C66.6866 36.609 65.1747 36.3558 64.1353 36.2603C62.5196 36.1118 58.9008 36.0553 57.4658 36.1562ZM36.0587 36.3155C35.4095 36.5885 35.4728 37.2915 36.1891 37.7655C36.6545 38.0734 37.0908 38.0898 37.3705 37.8102C37.7987 37.3822 37.3505 36.3564 36.6726 36.2125C36.5377 36.184 36.2615 36.2302 36.0587 36.3155ZM36.3784 36.9749C36.3784 37.1684 36.7701 37.6374 36.8766 37.5716C37.026 37.4793 36.9785 37.1761 36.7874 37.0034C36.5698 36.8064 36.3784 36.7931 36.3784 36.9749ZM45.5075 37.087C44.948 37.3388 44.2313 37.9375 43.7906 38.5213C43.2579 39.227 42.5256 40.6457 42.3108 41.3881L42.1441 41.9642L41.6397 41.9045C40.5855 41.7797 38.883 41.2624 37.114 40.5293C36.7903 40.3952 36.2988 40.2556 36.0217 40.219C35.5873 40.1616 35.4893 40.181 35.3106 40.3597C34.8934 40.7768 35.1811 41.7106 35.8834 42.2193C36.1811 42.4349 36.4576 42.5229 37.1313 42.6163C37.6073 42.6823 38.3277 42.8229 38.7323 42.9288C39.1369 43.0346 39.8872 43.1685 40.3997 43.2264C41.8367 43.3884 41.8038 43.3772 41.7319 43.6845C41.6978 43.8303 41.6297 44.5453 41.5806 45.2733C41.4802 46.7615 41.3877 47.163 40.9788 47.8838C40.6466 48.4693 39.8987 49.1953 39.6277 49.1953C39.3841 49.1953 39.3208 49.0129 39.3208 48.3103C39.3208 47.8846 39.4606 47.2963 39.86 46.0408C40.1565 45.1086 40.4248 44.2098 40.456 44.0435C40.6063 43.2421 39.6745 43.463 39.064 44.3733L38.6907 44.9302L38.6184 44.4399C38.4831 43.5208 37.5528 42.9805 36.4838 43.2C35.3064 43.4417 34.357 44.3281 33.7724 45.7316C33.5217 46.3337 33.4933 46.5159 33.4894 47.5444C33.4851 48.6601 33.4921 48.6979 33.7792 49.1044C34.3363 49.8932 35.3037 50.1421 36.1331 49.7101C36.3489 49.5976 36.7219 49.3038 36.9621 49.057L37.3987 48.6083L37.5297 49.12C37.6017 49.4014 37.7584 49.7367 37.8777 49.865C38.073 50.075 38.1559 50.0937 38.7039 50.0507C39.1123 50.0187 39.4528 49.9211 39.7371 49.7545C40.3496 49.3956 41.0609 48.5913 41.3723 47.9058L41.6422 47.3113L41.7656 47.6091C41.8976 47.9277 42.3771 48.2148 42.7772 48.2148C43.1624 48.2148 43.7162 47.7305 43.8421 47.2834C44.0466 46.5574 44.1385 46.379 44.4766 46.0514C44.7025 45.8325 44.8133 45.6347 44.8133 45.4502C44.8133 45.0367 44.476 45.0941 43.9801 45.592C43.6215 45.9521 43.55 46.0964 43.4536 46.6541C43.3923 47.009 43.3421 47.395 43.3421 47.512C43.3421 47.8128 43.0653 47.7794 42.9875 47.4692C42.8757 47.0242 43.0279 45.9694 43.2659 45.538C43.6264 44.8847 44.4939 44.5072 45.0057 44.781C45.7455 45.1769 45.4138 47.9007 44.4761 49.1296C44.1748 49.5245 44.1573 49.8141 44.4186 50.0753C44.7273 50.384 45.0343 50.4089 45.5893 50.1702C46.8612 49.6232 47.6411 47.986 47.3633 46.446C47.1465 45.2435 46.3934 44.2224 45.5943 44.0469C45.1149 43.9416 44.2687 44.1785 43.6602 44.5884C43.3505 44.797 43.0851 44.9352 43.0708 44.8953C43.0565 44.8555 43.1967 44.472 43.3823 44.0431C43.701 43.307 43.7512 43.2463 44.2789 42.9578C45.6145 42.228 46.8567 41.0804 47.409 40.0657C47.6197 39.6786 47.7007 39.3767 47.7344 38.851C47.7848 38.0653 47.678 37.7655 47.1782 37.2905C46.8091 36.9397 46.0424 36.8463 45.5075 37.087ZM20.2164 37.6797C18.5176 38.1369 17.0966 39.3046 16.4072 40.8099C16.0874 41.5082 16.0329 42.5805 16.2924 43.0672C16.716 43.8617 17.714 44.2893 18.4721 44.0012C18.8458 43.8591 18.7805 43.7392 18.2296 43.5562C17.945 43.4617 17.6707 43.2933 17.5826 43.159C17.3845 42.8566 17.3915 42.0632 17.5982 41.4064C17.9047 40.432 19.0131 39.2256 20.0478 38.74C20.6248 38.4692 20.7658 38.4574 21.0501 38.6565C21.5441 39.0025 21.4409 40.2288 20.6814 43.0326C20.0392 45.4038 19.9618 45.8505 20.1025 46.3728C20.2389 46.8792 20.7116 47.3486 21.2468 47.5088C21.9921 47.732 22.0141 47.7153 22.022 46.9157C22.0272 46.3936 22.1013 46.0095 22.3014 45.4694C23.0886 43.3439 24.6809 40.8389 25.5207 40.4047C25.7767 40.2724 25.8268 40.2719 25.9558 40.401C26.1749 40.62 26.2168 41.3308 26.0466 41.9397C25.9637 42.2363 25.5835 43.3778 25.2019 44.4764C24.1193 47.5922 23.6957 49.5314 23.9175 50.3552C24.1361 51.167 24.961 51.7446 25.9015 51.7446C26.2226 51.7446 26.2217 51.7489 26.0269 51.1073C25.9035 50.7012 25.897 50.4916 25.9886 49.8861C26.4385 46.9154 28.9893 41.3468 30.7342 39.5263C31.4752 38.7532 32.0705 39.0237 31.9153 40.0627C31.8801 40.2976 31.6517 41.0698 31.4076 41.7786C29.9049 46.1421 29.6365 47.1839 29.5479 48.9992C29.4533 50.9348 29.891 52.2974 30.9417 53.3395C31.624 54.0161 32.411 54.4083 33.7867 54.7575L34.8581 55.0293L38.4381 55.0238C42.2081 55.018 42.0148 55.0317 47.3634 54.3919C48.6851 54.2338 51.6422 53.8822 53.9349 53.6106C56.2275 53.3389 59.4495 52.9433 61.0948 52.7313C67.665 51.8847 70.0389 51.7057 73.7963 51.7732C76.0579 51.8138 76.8588 51.8645 77.7053 52.0209C78.9488 52.2506 79.9635 52.7057 80.272 53.1723L80.4703 53.4723L80.8605 53.1908C81.9033 52.438 82.4045 51.6275 82.4175 50.6731C82.4272 49.9591 82.127 49.4688 81.3819 48.9818C80.7434 48.5645 80.2197 48.3545 79.3021 48.1478C78.3192 47.9264 74.9158 47.9316 72.7665 48.1579C69.7213 48.4785 61.9827 49.6653 55.1618 50.8578C51.5782 51.4843 50.3039 51.6692 47.0692 52.0323C41.7624 52.6279 41.3046 52.6625 38.6342 52.6693C35.6997 52.677 35.0476 52.5875 33.8006 52.0057C32.4491 51.3753 31.9557 50.6302 31.8851 49.1133C31.8114 47.5306 32.0886 46.3398 33.1441 43.7046C34.023 41.5102 34.1701 40.962 34.1709 39.8806C34.1716 38.7747 34.0035 38.3419 33.4046 37.9083C32.2717 37.0878 30.4674 38.0655 29.2169 40.1775C28.9302 40.6616 28.6802 41.0421 28.6613 41.0232C28.6424 41.0043 28.5592 40.7285 28.4764 40.4102C28.199 39.344 27.4543 38.8724 26.3867 39.0867C26.0928 39.1457 25.6674 39.3023 25.4413 39.4348C24.9471 39.7243 24.0177 40.7078 23.555 41.4309C23.3702 41.7196 23.1976 41.9346 23.1714 41.9084C23.1453 41.8822 23.171 41.6057 23.2287 41.2939C23.7388 38.5356 22.5108 37.0623 20.2164 37.6797ZM23.3223 38.2898C23.4879 38.6143 23.6699 39.3662 23.7492 40.054C23.7732 40.2622 23.7925 40.2543 24.0507 39.9291L24.3265 39.5817L24.0909 39.0694C23.8449 38.5344 23.3818 37.9196 23.2248 37.9196C23.1745 37.9196 23.2184 38.0862 23.3223 38.2898ZM46.1977 38.1704C45.8697 38.4464 45.1513 39.4364 44.7033 40.23C44.3241 40.9015 43.9206 41.9397 44.0388 41.9397C44.3387 41.9397 45.4252 41.2477 45.9436 40.7265C46.8827 39.7824 47.2581 38.8335 46.9553 38.1694C46.8109 37.8523 46.5755 37.8526 46.1977 38.1704ZM46.4312 38.5417C46.3775 38.6142 46.054 39.0422 45.7123 39.4929C45.0587 40.3547 44.4514 41.4148 44.756 41.1621C44.9854 40.9718 46.0978 39.6209 46.4153 39.147C46.6663 38.7724 46.7585 38.4099 46.6028 38.4099C46.5621 38.4099 46.4848 38.4692 46.4312 38.5417ZM20.1029 39.1605C18.9751 39.7225 17.9552 41.0786 17.7906 42.2353C17.7145 42.7701 17.9563 43.154 18.429 43.2485C18.7637 43.3155 19.2141 43.7138 19.2141 43.9429C19.2141 44.3079 18.0911 44.6448 17.3966 44.4883C16.8637 44.3682 16.8486 44.4489 17.3605 44.6811C17.8009 44.8809 18.46 44.9307 19.1517 44.8164C19.4621 44.7652 19.5553 44.6949 19.6666 44.4285C19.7414 44.2495 19.8026 44.0415 19.8026 43.9664C19.8026 43.8913 19.5367 43.6883 19.2118 43.5151C18.4657 43.1175 18.2883 42.8626 18.3717 42.3071C18.502 41.4386 19.4937 40.1757 20.439 39.6744C20.7995 39.4832 20.8815 39.3898 20.8815 39.17C20.8815 38.8324 20.7645 38.831 20.1029 39.1605ZM56.3379 39.1889C56.0659 39.3002 55.8328 39.5783 55.655 40.0036C55.1381 41.2405 56.0549 42.4245 57.6595 42.5922C57.9846 42.6262 58.2505 42.6861 58.2505 42.7254C58.2505 42.7646 58.0563 43.2348 57.8188 43.77C57.2439 45.0664 57.0735 45.6741 57.0735 46.4284C57.0735 47.4871 57.442 48.017 58.231 48.0928C59.1335 48.1794 60.0245 47.6086 60.177 46.846L60.2384 46.5391L59.8762 46.7527C59.5794 46.9277 59.4712 46.947 59.2773 46.8586C58.7548 46.6206 58.835 45.7061 59.5132 44.1708C60.0037 43.0604 60.2725 42.015 60.1498 41.6954C60.081 41.516 59.9183 41.5171 58.5263 41.7054C57.7989 41.8039 57.0172 41.668 56.6802 41.3845C56.4365 41.1795 56.3869 41.0651 56.3869 40.7069C56.3869 40.1806 56.8025 39.6243 57.1081 39.7416C57.268 39.8029 57.2817 39.8833 57.224 40.4213C57.1706 40.921 57.186 41.0418 57.3096 41.0892C57.5254 41.1719 57.7601 40.7895 57.7601 40.3555C57.7601 39.3842 57.1278 38.8657 56.3379 39.1889ZM58.1086 39.611C58.1894 39.8414 58.2093 40.6705 58.1423 41.0082C58.0843 41.3001 58.4957 41.3321 58.648 41.0475C58.8203 40.7256 58.6957 39.9005 58.4323 39.6203C58.1573 39.3275 58.0079 39.3233 58.1086 39.611ZM30.9054 39.9223C29.1763 41.8909 26.6864 47.3537 26.3877 49.8334C26.2858 50.6795 26.4389 51.5798 26.6928 51.6282C26.8447 51.6572 26.8645 51.571 26.8645 50.882C26.8645 48.9088 28.4536 44.9051 30.5783 41.5248C31.4404 40.1534 31.6623 39.5865 31.3374 39.5865C31.262 39.5865 31.0676 39.7376 30.9054 39.9223ZM65.5085 40.1671C65.5085 40.2189 65.5532 40.2889 65.6079 40.3227C65.6627 40.3566 65.8055 40.5687 65.9254 40.7942C66.1154 41.1517 66.1435 41.3551 66.1446 42.3809C66.1458 43.4127 66.1127 43.6541 65.8754 44.3419C65.5874 45.1764 65.0737 46.1558 64.9238 46.1558C64.7063 46.1558 64.7277 45.9064 65.002 45.2456C65.1636 44.8564 65.3618 44.2732 65.4423 43.9497C65.6394 43.1578 65.7513 41.8416 65.6216 41.8416C65.5666 41.8416 65.4912 41.9377 65.4538 42.0553C65.3369 42.4234 64.0554 44.585 63.5819 45.2127C63.3329 45.5427 63.0877 45.9304 63.037 46.0744C62.8384 46.6374 62.3224 46.4709 62.3947 45.8671C62.4176 45.6754 62.5539 45.1274 62.6974 44.6496C62.8937 43.9958 62.9584 43.5686 62.9584 42.9239C62.9584 42.1333 62.9363 42.0366 62.6728 41.6731C62.3867 41.2783 61.99 40.9508 61.6476 40.8269C61.4852 40.7681 61.472 40.7982 61.5282 41.0977C61.6217 41.5967 61.4316 42.5943 60.9971 43.8835C60.3106 45.9208 60.2766 46.4746 60.8043 47.0268C61.4845 47.7382 62.6049 47.5935 63.3162 46.7023L63.5859 46.3644L63.8853 46.7107C64.126 46.9889 64.2739 47.0669 64.6401 47.1081C65.0701 47.1566 65.121 47.1359 65.5541 46.7368C65.8064 46.5044 66.1212 46.1291 66.2538 45.9029C66.5537 45.3914 67.0426 44.0645 67.232 43.248C67.5046 42.0729 67.0811 40.7227 66.3196 40.3391C65.9358 40.1458 65.5085 40.0551 65.5085 40.1671ZM71.5136 40.3823C70.0922 41.0856 68.9987 43.7672 69.6888 44.8566C70.0767 45.4691 70.8299 44.7553 71.7607 42.8932C72.3637 41.687 72.5734 41.0332 72.3931 40.9218C72.2668 40.8439 71.2787 41.9134 70.9298 42.5058C70.7801 42.7598 70.5384 43.3211 70.3924 43.7529C70.2465 44.1847 70.092 44.5275 70.0491 44.5147C70.0063 44.502 69.9577 44.267 69.9413 43.9925C69.889 43.1203 70.3315 42.111 71.1349 41.27C71.6592 40.7211 72.0428 40.5121 72.2341 40.6709C72.3472 40.7647 72.3742 40.7508 72.3742 40.5985C72.3742 40.3933 72.1996 40.1748 72.0358 40.1749C71.9791 40.1749 71.7441 40.2683 71.5136 40.3823ZM74.6988 41.3246C74.069 43.1632 73.7383 45.0614 74.0661 44.9562C74.2733 44.8897 74.7078 43.9906 74.9314 43.1653C75.1644 42.3063 75.2496 40.6633 75.0646 40.5989C75.007 40.5789 74.8423 40.9054 74.6988 41.3246ZM25.1757 41.2433C24.1952 42.3334 23.1885 44.1323 22.6357 45.7815C22.3937 46.5038 22.3416 46.8045 22.3684 47.3242L22.4018 47.9697L21.8752 47.9997C21.5855 48.0163 21.2215 47.9855 21.066 47.9313C20.6702 47.7934 20.7141 47.8816 21.1512 48.1029C21.6653 48.363 22.0366 48.4248 22.5489 48.3353L22.9903 48.2584L22.9991 47.4277C23.0061 46.7519 23.0648 46.445 23.3131 45.782C23.6874 44.783 24.2885 43.6693 25.14 42.3964C25.7554 41.4765 25.9356 40.9654 25.6967 40.8178C25.6478 40.7876 25.4134 40.9791 25.1757 41.2433ZM84.1641 42.0293L84.3519 42.6091L84.1113 43.0833C83.5143 44.2595 82.3428 45.4763 81.2182 46.0882C80.3074 46.5838 79.1379 46.7664 78.3234 46.5403C77.7018 46.3678 77.8094 46.5106 78.4687 46.7332C79.2193 46.9866 80.3095 47.0075 80.9759 46.7814C82.7055 46.1944 85.1988 43.4301 84.8369 42.5008C84.7218 42.2054 84.1628 41.4494 84.0595 41.4494C84.0137 41.4494 84.0607 41.7103 84.1641 42.0293ZM50.7473 41.7241C49.6947 42.0897 48.9784 42.7787 48.4179 43.9647C48.1229 44.5889 48.1005 44.7089 48.0998 45.6714C48.0992 46.6299 48.1209 46.7495 48.3933 47.2803C48.7072 47.8922 49.0862 48.1725 49.7438 48.2792C50.3036 48.37 51.0784 48.0821 51.6224 47.581C51.888 47.3364 52.1191 47.1363 52.1361 47.1363C52.153 47.1363 52.227 47.2804 52.3007 47.4565C52.3742 47.6326 52.5911 47.9141 52.7825 48.0822C53.1188 48.3773 53.1484 48.3845 53.6516 48.2931C54.3274 48.1703 54.581 48.0328 55.2363 47.4341C55.813 46.9071 55.8965 46.8619 55.8965 47.0767C55.8965 47.3099 55.0087 48.2138 54.4839 48.5147C53.926 48.8345 53.4981 48.8788 53.1721 48.6505C52.875 48.4425 52.8906 48.6506 53.1949 48.9546C53.3813 49.1411 53.5383 49.1953 53.891 49.1953C54.46 49.1953 54.8871 48.996 55.5015 48.4438C56.0491 47.9516 56.2422 47.4969 56.1495 46.9177C56.1041 46.6337 56.131 46.455 56.2459 46.2799C56.4956 45.8988 57.4729 43.4031 57.4114 43.3035C57.2588 43.0567 57.0533 43.349 56.3198 44.8566C55.4285 46.6885 55.0632 47.2511 54.6145 47.4831C54.3296 47.6304 54.2962 47.629 54.1106 47.4621C53.9372 47.3062 53.9186 47.202 53.9655 46.646C54.0215 45.9821 54.2855 45.1605 55.0888 43.1506L55.5649 41.9593L55.2158 41.9015C55.0238 41.8697 54.7006 41.8433 54.4976 41.8427C54.1569 41.8417 54.112 41.8756 53.9141 42.2828C53.7168 42.6888 53.5426 42.8533 53.5426 42.6336C53.5426 42.5837 53.423 42.401 53.2769 42.2273C52.7313 41.5792 51.7352 41.3811 50.7473 41.7241ZM63.3879 43.0426C63.3837 43.7794 63.3288 44.3071 63.2226 44.6314C63.1352 44.8986 63.0802 45.1337 63.1005 45.1539C63.1207 45.1741 63.2625 44.9776 63.4156 44.7173C63.6657 44.292 63.694 44.1541 63.694 43.3614C63.694 42.7527 63.6475 42.3952 63.544 42.2092C63.4023 41.954 63.3939 41.999 63.3879 43.0426ZM55.1351 44.2396C54.4278 46.1333 54.2142 46.9569 54.4007 47.0721C54.5857 47.1863 54.8057 46.7825 55.4338 45.1753C56.5111 42.419 56.4452 42.642 56.2298 42.4789C56.1274 42.4015 55.9995 42.3368 55.9456 42.3352C55.8916 42.3336 55.5269 43.1906 55.1351 44.2396ZM51.868 42.6238C51.0545 43.0537 50.4052 44.1018 50.1959 45.3229C50.061 46.1108 50.1273 46.6152 50.4137 46.9793C50.848 47.5312 51.4048 47.1296 52.0665 45.7869C52.8274 44.2434 53.1548 42.8658 52.8364 42.5476C52.6675 42.3787 52.273 42.4097 51.868 42.6238ZM52.0055 43.1041C51.5847 43.4089 51.0194 44.2024 50.7734 44.8339C50.5712 45.353 50.4694 46.2634 50.5928 46.4492C50.7353 46.6634 50.8558 46.4853 50.9842 45.8711C51.1736 44.965 51.6217 44.165 52.267 43.5812C52.7149 43.1762 52.8243 43.0258 52.7359 42.9374C52.5631 42.7646 52.4336 42.7942 52.0055 43.1041ZM59.9838 44.176C59.4868 45.3395 59.2613 46.4233 59.5349 46.3327C59.7278 46.2688 59.8652 45.962 60.2147 44.8139C60.3938 44.2261 60.5062 43.6612 60.4881 43.4412C60.4589 43.086 60.4336 43.1228 59.9838 44.176ZM37.209 44.2339C36.7948 44.4142 36.0875 45.2299 35.7472 45.9196C35.5246 46.3708 35.4518 46.6727 35.4183 47.2845C35.363 48.297 35.543 48.8042 35.9565 48.801C36.4701 48.7969 36.9066 48.237 37.793 46.4452C38.1563 45.7108 38.2493 45.4254 38.2244 45.1216L38.1929 44.7341L37.6334 45.2588C37.022 45.8322 36.4923 46.772 36.2301 47.7491C36.0564 48.3956 35.9255 48.4655 35.8311 47.9623C35.607 46.7686 36.5171 45.085 37.6497 44.598C38.2231 44.3514 38.3135 44.0947 37.825 44.1006C37.6497 44.1027 37.3725 44.1627 37.209 44.2339ZM40.7866 44.454C40.7356 44.5882 40.6939 44.7325 40.6939 44.775C40.6939 44.8174 40.4771 45.5326 40.2122 46.3642C39.6469 48.1382 39.5542 48.5579 39.707 48.6523C40.0761 48.8803 40.8601 46.8265 41.2263 44.6725C41.2781 44.368 41.2575 44.3092 41.083 44.2636C40.9302 44.2236 40.8562 44.2712 40.7866 44.454ZM67.133 45.1388C66.5979 46.5849 65.5857 47.6265 64.7157 47.6265C64.4632 47.6265 64.4264 47.6516 64.5179 47.7617C64.6866 47.9651 65.191 48.0324 65.6443 47.9121C65.9197 47.839 66.2053 47.6436 66.5433 47.2968C67.3498 46.4695 67.6584 45.5998 67.3961 44.8937C67.3158 44.6773 67.2974 44.6945 67.133 45.1388ZM75.5303 45.1628C74.9752 46.0193 73.9019 46.6405 72.9627 46.649C72.4253 46.6539 72.4243 46.6545 72.6966 46.8021C73.5803 47.2811 74.7301 46.9467 75.663 45.9393C76.1988 45.3607 76.3175 45.0385 76.0816 44.8027C75.9022 44.6234 75.8637 44.6485 75.5303 45.1628ZM63.4504 47.2816C62.9398 47.825 61.9737 47.9804 61.0852 47.662L60.6341 47.5004L60.1303 47.8986C59.5301 48.3728 59.0663 48.5451 58.3802 48.5485C57.7575 48.5515 57.7907 48.6533 58.4611 48.797C59.2559 48.9675 59.9391 48.7807 60.731 48.1763L61.1775 47.8357L61.6766 48.0252C62.4163 48.3061 62.9686 48.2732 63.6557 47.9071C63.9735 47.7377 64.231 47.5723 64.228 47.5394C64.225 47.5064 64.0987 47.3819 63.9473 47.2626L63.672 47.0458L63.4504 47.2816ZM47.8015 47.6859C47.7667 47.8419 47.692 48.1241 47.6356 48.3129C47.2658 49.5505 46.2601 50.5579 45.2302 50.7225C44.9119 50.7734 44.8133 50.8326 44.8133 50.9728C44.8133 51.1267 44.8886 51.1559 45.2792 51.1542C45.9159 51.1512 46.4806 50.8716 47.162 50.222C47.8909 49.5269 48.1875 48.8875 48.1258 48.144C48.0735 47.5123 47.896 47.2617 47.8015 47.6859ZM43.8843 47.9083C43.7773 48.395 43.4008 48.657 42.8191 48.6493C42.5403 48.6456 42.1779 48.5719 42.0135 48.4855L41.7149 48.3286L41.4495 48.7477C40.7721 49.8182 39.4389 50.6595 38.6369 50.5226L38.2909 50.4635L38.5361 50.6607C38.879 50.9363 39.6701 50.9295 40.274 50.6457C40.8129 50.3925 41.7748 49.468 41.957 49.0281L42.0838 48.7221L42.4922 48.9076C43.4884 49.3597 44.3611 48.8632 44.1178 47.9828C43.9991 47.5528 43.9648 47.5419 43.8843 47.9083ZM51.8742 47.9776C51.686 48.1756 51.3418 48.4234 51.1096 48.5283C50.6429 48.7391 49.8285 48.7799 49.393 48.6143C48.9612 48.4501 49.1765 48.6915 49.6559 48.9092C50.2355 49.1723 51.0475 49.1556 51.5888 48.8694C52.0982 48.6001 52.4337 48.104 52.3035 47.8124C52.222 47.63 52.1948 47.6405 51.8742 47.9776ZM36.9668 49.7001C36.778 49.8655 36.447 50.0833 36.2312 50.1842C35.7352 50.416 34.8407 50.4322 34.5303 50.2148C34.4069 50.1285 34.2823 50.0815 34.2533 50.1104C34.2243 50.1394 34.4148 50.2975 34.6764 50.4617C35.4896 50.9721 36.5823 50.8081 37.1915 50.0842C37.4389 49.7904 37.5516 49.3863 37.3837 49.3954C37.3432 49.3976 37.1556 49.5347 36.9668 49.7001ZM82.7401 49.6366C82.7839 49.7983 82.818 50.2837 82.8157 50.7151C82.8124 51.3683 82.768 51.5835 82.5507 52.0018C82.2669 52.5479 81.2194 53.5708 80.7846 53.7263C80.5745 53.8015 80.5149 53.8857 80.5149 54.1074C80.5149 54.478 80.7071 54.4768 81.3608 54.1019C81.9416 53.7689 82.7387 52.916 83.0483 52.2962C83.5355 51.3211 83.499 50.2892 82.9559 49.676L82.6603 49.3424L82.7401 49.6366ZM26.6683 51.9561C26.4487 52.1398 26.3388 52.1552 25.6139 52.1048C25.1689 52.0737 24.8048 52.0707 24.8048 52.0981C24.8048 52.1821 25.6235 52.5111 25.8837 52.5315C26.4192 52.5735 26.7316 52.5196 27.0393 52.332C27.3151 52.164 27.3462 52.1078 27.2565 51.9402C27.1244 51.6933 26.9779 51.6973 26.6683 51.9561ZM69.8731 52.2436C67.7118 52.3863 63.0381 52.8869 60.4083 53.2575C59.0866 53.4437 57.1005 53.6878 55.9946 53.7997C54.8887 53.9118 52.9026 54.1349 51.5809 54.2955C42.451 55.4052 41.7085 55.471 38.3462 55.4685C34.8555 55.4661 33.659 55.3023 32.1698 54.6236C31.7702 54.4414 31.43 54.3056 31.4137 54.3218C31.3975 54.338 31.6086 54.4981 31.8827 54.6776C33.266 55.5829 34.8731 55.8704 38.6833 55.8947C41.5326 55.9128 43.5456 55.7656 46.5298 55.3213C47.3929 55.1928 49.357 54.9321 50.8944 54.742C52.4318 54.5518 54.2561 54.3255 54.9485 54.239C55.6408 54.1524 56.2287 54.103 56.2549 54.1292C56.3423 54.2166 54.9874 54.4824 52.4146 54.8822C51.0121 55.1002 49.048 55.4095 48.05 55.5695C47.052 55.7296 45.2645 55.9712 44.0777 56.1067C42.8909 56.2422 41.5781 56.3994 41.1603 56.4563C40.7426 56.5132 40.0143 56.5462 39.542 56.5298C38.7692 56.503 38.6507 56.5233 38.3574 56.7323C37.9546 57.0196 37.7287 56.9915 36.4718 56.4979C35.8066 56.2367 35.3185 56.1148 34.7443 56.0665C34.3041 56.0297 33.8743 55.9416 33.7893 55.871C33.5897 55.7055 33.2363 55.7957 32.8667 56.1066C32.5073 56.4089 32.4323 56.669 32.6252 56.9442C32.7537 57.1275 32.8322 57.1472 33.211 57.0904C33.4516 57.0543 33.8309 56.9605 34.0538 56.8818C34.5564 56.7046 34.8434 56.7628 35.7899 57.2339C36.1944 57.4353 36.7518 57.6742 37.0286 57.7649L37.5317 57.9297L37.5817 58.4404C37.6092 58.7214 37.707 59.3757 37.7989 59.8944L37.9661 60.8376L37.7117 61.3153C37.1151 62.4356 37.6963 62.8647 38.6342 61.9966C39.1067 61.5593 39.3163 61.5056 40.5958 61.4934C41.2702 61.487 41.9559 61.4514 42.1198 61.4144L42.4179 61.347L43.1298 62.7979L43.8417 64.2489L43.69 64.612C43.3924 65.324 43.5698 66.0584 44.0058 65.92C44.12 65.8839 44.3677 65.6394 44.5564 65.3768C44.8948 64.9058 44.9169 64.8939 46.2207 64.4731L47.542 64.0467L48.5785 64.9192C49.5048 65.6988 49.6363 65.8501 49.8158 66.3424C50.2193 67.4489 50.3677 67.5929 50.7422 67.2412C50.8855 67.1065 50.9978 66.8565 51.0394 66.5788C51.137 65.9284 51.1363 65.9293 52.0073 65.1908C52.4471 64.818 52.9094 64.4152 53.0344 64.2957C53.3084 64.0342 53.4183 64.0498 54.7969 64.5464C55.6367 64.8488 55.8753 64.983 56.2191 65.3458C56.7115 65.8655 56.9049 65.9827 57.1284 65.897C57.2765 65.8401 57.2881 65.7242 57.2297 64.8775L57.1639 63.9222L57.592 63.1036C57.8273 62.6533 58.0956 62.0864 58.188 61.8437L58.356 61.4025L59.848 61.4567C61.4379 61.5145 61.717 61.5827 62.2401 62.0419C62.7518 62.491 63.2734 62.5512 63.4168 62.1778C63.4509 62.0889 63.3622 61.78 63.2184 61.487C62.9008 60.8396 62.8843 60.2879 63.1545 59.3435C63.2624 58.9664 63.3507 58.4953 63.3507 58.2968C63.3507 57.9466 63.3676 57.9297 63.9147 57.7296C64.2249 57.6161 64.8384 57.3652 65.2782 57.1721C65.9393 56.8815 66.1515 56.8307 66.5042 56.8787C67.7847 57.0525 68.2756 57.0663 68.3615 56.9307C68.512 56.6929 68.4617 56.5678 68.0115 56.0611C67.7698 55.789 67.5111 55.4456 67.4366 55.2978C67.2779 54.9836 67.1403 52.9212 67.278 52.9212C67.3281 52.9212 68.087 52.8468 68.9644 52.7559C70.0916 52.6391 71.4948 52.5888 73.7473 52.5843C77.127 52.5776 77.9428 52.658 79.1806 53.1196C79.6779 53.305 79.6797 53.3049 79.4508 53.1147C79.1448 52.8602 78.1305 52.5531 76.984 52.3679C75.8442 52.1838 71.8396 52.1138 69.8731 52.2436ZM64.6258 53.2189C63.4351 53.3389 62.0556 53.5883 61.9392 53.7047C61.8606 53.7833 61.8964 53.9249 62.0708 54.2249C62.2652 54.5592 62.3183 54.8086 62.3519 55.5452C62.3918 56.4168 62.4055 56.4636 62.6949 56.707C63.0746 57.0264 63.3054 56.9955 64.4816 56.4679C65.1176 56.1825 65.5584 56.0541 66.0724 56.0043C66.4635 55.9664 66.7833 55.9301 66.783 55.9236C66.7828 55.917 66.6736 55.647 66.5402 55.3234C66.3506 54.8634 66.2973 54.5588 66.2955 53.9262L66.2931 53.1173L65.8272 53.131C65.5711 53.1386 65.0303 53.1781 64.6258 53.2189ZM59.3294 53.9547C59.2484 53.9713 58.6858 54.0605 58.0788 54.1526C57.472 54.2449 56.9776 54.3807 56.9776 54.3807C56.9776 54.3807 55.4908 54.7425 54.6215 54.9312C53.7522 55.12 53.0111 55.2744 53.0111 55.2744C53.0111 55.2744 52.8044 55.3725 52.7414 55.3725C52.4807 55.3725 51.3301 55.596 51.26 55.6603C51.2183 55.6986 51.2798 55.9458 51.3966 56.2098L51.609 56.6897L51.3467 57.1905C51.2025 57.4659 50.9574 57.8424 50.8021 58.0271L50.5197 58.363L50.204 58.0688C49.718 57.616 49.3251 57.0354 49.3251 56.7701C49.3251 56.6382 49.4168 56.4015 49.5289 56.2441C49.6411 56.0866 49.7183 55.9206 49.7005 55.8749C49.6829 55.8292 49.0725 55.8944 48.3443 56.0197C47.616 56.145 46.4464 56.3169 45.7451 56.4017C44.1962 56.5891 44.1268 56.6087 44.1268 56.8596C44.1268 57.1554 44.7403 57.7256 45.0584 57.7256C45.3385 57.7256 45.8321 57.2851 45.9428 56.9362C46.011 56.7216 46.2002 56.6932 46.4982 56.8525C46.6657 56.9421 46.689 57.0219 46.6391 57.3341C46.5492 57.8963 46.2599 58.5 45.8063 59.0725C45.3094 59.6995 44.7392 60.0139 44.0943 60.0166C43.6269 60.0184 43.6173 60.0249 43.3799 60.4934L43.1391 60.9682L43.6842 61.8677C43.9841 62.3626 44.323 63.0242 44.4375 63.3381C44.6641 63.9591 44.7593 64.0695 44.9403 63.9199C45.0053 63.8662 45.3454 63.7497 45.6961 63.6612C46.5714 63.4399 47.1414 63.2187 47.2866 63.0439C47.3536 62.963 47.4809 62.6631 47.5693 62.3776L47.73 61.8583L47.3391 61.4834C46.856 61.0198 46.6769 60.6184 46.6769 59.9993C46.6769 59.2789 47.0094 58.7226 47.6463 58.3774C48.0808 58.142 48.2311 58.108 48.5961 58.1627C49.423 58.2867 50.0116 59.0895 50.0116 60.093C50.0116 60.7428 49.7034 61.2688 48.9411 61.9192C48.6095 62.2022 48.4175 62.4563 48.3489 62.7036C48.1815 63.3057 48.2241 63.4404 48.6931 63.7936C48.9356 63.9762 49.4457 64.4141 49.8267 64.7668L50.5193 65.4078L50.7573 65.1038C50.8882 64.9366 51.3526 64.5018 51.7893 64.1377L52.5833 63.4757L52.5357 63.0533C52.4751 62.5151 52.2832 62.2271 51.6806 61.7696C51.1794 61.3892 50.6982 60.6241 50.6982 60.2077C50.6982 59.8156 51.0729 58.9788 51.3991 58.6423C51.8136 58.2149 52.2397 58.0759 52.727 58.2092C53.6599 58.4643 54.1301 59.0177 54.1307 59.8614C54.1311 60.5408 53.9582 60.9277 53.4488 61.3874L53.0309 61.7644L53.1985 62.1718C53.6509 63.2707 53.545 63.1687 54.5905 63.5137C55.12 63.6885 55.6804 63.8958 55.836 63.9744C56.1788 64.1477 56.2021 64.12 56.4785 63.2135C56.5858 62.8614 56.8498 62.3219 57.0651 62.0148C57.6673 61.1553 57.6896 61.0969 57.5624 60.7116C57.43 60.3105 57.1341 60.0788 56.7542 60.0788C56.0987 60.0788 55.1293 59.343 54.4631 58.3395C54.0735 57.7528 53.9981 57.2749 54.2273 56.8467C54.384 56.554 54.5775 56.602 54.8197 56.9935C55.0664 57.3927 55.6547 57.8253 55.9438 57.8203C56.2456 57.815 56.5765 57.5964 56.7296 57.3015C56.848 57.0734 56.848 56.9809 56.7296 56.6454C56.5817 56.2264 56.5815 56.2266 57.0245 56.249C57.4949 56.2729 57.8076 56.4371 57.9988 56.7605C58.2386 57.1664 58.312 58.1873 58.144 58.7778C57.981 59.3498 57.9922 59.4129 58.3688 60.0424L58.6698 60.5452L60.0539 60.603C60.8152 60.6348 61.5815 60.6893 61.7569 60.7241L62.0756 60.7874L62.0791 60.2615C62.0809 59.9723 62.1457 59.4489 62.2228 59.0983C62.448 58.0745 62.4186 57.7913 62.0462 57.3965L61.7225 57.0534L60.9428 57.1505C59.959 57.2728 59.6433 57.2126 59.1954 56.8169C58.7712 56.4421 58.639 55.9786 58.8859 55.7317C59.1317 55.4859 59.2509 55.5271 59.7211 56.0204C60.1411 56.4608 60.1644 56.4711 60.6547 56.4305C61.3333 56.3742 61.6851 56.1114 61.6117 55.7156C61.5378 55.3164 61.3123 54.886 61.1658 54.8648C61.0998 54.8551 60.7368 54.8441 60.3592 54.8402L59.6726 54.8332L59.6928 54.5517C59.7038 54.3968 59.7879 54.1872 59.8796 54.0859C60.0392 53.9096 60.0342 53.9022 59.7614 53.9131C59.6047 53.9194 59.4103 53.9381 59.3294 53.9547ZM63.4053 54.1197C63.08 54.5839 63.3053 55.1835 63.8983 55.4312C64.1439 55.5337 64.2916 55.5416 64.4982 55.4631C65.1773 55.205 65.3071 54.7151 64.8316 54.2063C64.586 53.9435 64.4793 53.9017 64.0525 53.9017C63.6527 53.9017 63.5287 53.9435 63.4053 54.1197ZM63.8788 54.2392C63.788 54.4755 63.882 54.7309 64.0734 54.7677C64.3761 54.826 64.4796 54.6299 64.2948 54.3479C64.111 54.0676 63.9598 54.0281 63.8788 54.2392ZM42.4279 56.7461C42.055 56.7923 41.9055 56.868 41.7206 57.1041L41.4863 57.4035L40.7713 57.2756C39.5524 57.0575 39.3513 57.0838 38.9169 57.518C38.4805 57.9543 38.4814 57.9466 38.6914 59.4825C38.8947 60.97 38.8458 60.8694 39.2896 60.7112C39.5129 60.6315 40.0879 60.5759 40.7138 60.5734C41.902 60.5685 42.1816 60.4791 42.4707 60.0116C42.7787 59.5132 42.8318 59.1958 42.6873 58.7151C42.5069 58.1145 42.5242 57.7902 42.767 57.2261C42.8822 56.9583 42.9595 56.7276 42.9386 56.7134C42.9178 56.6992 42.6879 56.714 42.4279 56.7461ZM40.3506 57.9401C40.0359 58.1072 39.9091 58.3271 39.9124 58.7004C39.9162 59.1287 40.091 59.374 40.47 59.4826C40.8624 59.5951 41.3275 59.3872 41.5212 59.0125C41.8214 58.4325 41.6254 58.0198 41.0499 58.0198C40.8757 58.0198 40.6912 57.9784 40.64 57.9278C40.5819 57.8706 40.4729 57.8752 40.3506 57.9401ZM59.3539 58.0169C59.042 58.1506 59.0706 58.5308 59.4321 59.0562C59.7064 59.4546 59.7651 59.4903 60.1432 59.4884C60.9287 59.4842 61.3419 58.8071 60.8832 58.276C60.6983 58.0618 60.5482 58.0014 60.114 57.9662C59.8173 57.942 59.4752 57.965 59.3539 58.0169ZM40.562 58.4933C40.4728 58.5919 40.3997 58.7243 40.3997 58.7874C40.3997 58.9604 40.8603 58.9254 40.9286 58.7471C41.093 58.3189 40.8636 58.1601 40.562 58.4933ZM59.8198 58.4507C59.8198 58.5167 59.8796 58.6524 59.9527 58.7523C60.1121 58.9702 60.4385 58.8865 60.391 58.64C60.3529 58.4427 59.8198 58.2661 59.8198 58.4507ZM47.9274 59.0081C47.6806 59.1518 47.4615 59.6233 47.4615 60.0104C47.4615 60.4089 47.8007 60.9473 48.1824 61.1548C48.452 61.3014 48.4646 61.2964 48.7964 60.9168C49.2116 60.4418 49.2862 60.1731 49.1394 59.683C48.9531 59.0613 48.3821 58.7434 47.9274 59.0081ZM52.0444 59.074C51.6082 59.5557 51.555 60.4067 51.933 60.8557C52.264 61.249 52.5934 61.2492 52.9607 60.8562C53.4464 60.3363 53.4322 59.5194 52.9298 59.0738C52.6813 58.8536 52.2438 58.8537 52.0444 59.074ZM45.1981 60.7576C44.8166 61.139 44.796 61.7372 45.1522 62.0933C45.468 62.4091 45.7204 62.3971 46.1113 62.0479C46.3865 61.8021 46.4317 61.6971 46.4317 61.3039C46.4317 60.9409 46.3836 60.807 46.2001 60.6585C45.8701 60.3913 45.531 60.4248 45.1981 60.7576ZM54.5855 60.6782C54.3371 61.0328 54.3764 61.7057 54.6621 61.9913C55.1933 62.5223 55.8046 62.4059 55.9733 61.7416C56.1477 61.0548 55.8411 60.6273 55.0863 60.5049C54.8053 60.4593 54.7177 60.4896 54.5855 60.6782ZM45.4672 61.1247C45.3452 61.2467 45.3949 61.7643 45.5244 61.7216C45.7287 61.6542 45.9049 61.2262 45.7649 61.1373C45.6183 61.044 45.5507 61.0412 45.4672 61.1247ZM55.0641 61.2534C55.0314 61.3062 55.0552 61.4437 55.1169 61.559C55.2179 61.7476 55.2442 61.7535 55.38 61.6176C55.4631 61.5347 55.5043 61.3971 55.4716 61.3121C55.4057 61.1402 55.1562 61.1043 55.0641 61.2534ZM49.8547 62.1771C49.6416 62.3902 49.5212 62.6052 49.5212 62.7729C49.5212 63.1192 50.0095 63.6086 50.3549 63.6086C50.7268 63.6086 51.1886 63.1197 51.1886 62.7262C51.1886 62.3586 50.7295 61.8437 50.4017 61.8437C50.2843 61.8437 50.0381 61.9937 49.8547 62.1771ZM50.1751 62.5955C50.1391 62.6314 50.1097 62.7448 50.1097 62.8474C50.1097 62.9848 50.1679 63.0257 50.3304 63.0027C50.6187 62.9617 50.707 62.5301 50.4271 62.5301C50.3245 62.5301 50.211 62.5595 50.1751 62.5955Z" fill="#572A01"></path>
  <path fill-rule="evenodd" clip-rule="evenodd" d="M20.8973 68.9039C19.7996 69.1663 19.029 70.696 19.2882 72.0984C19.5933 73.7496 21.0931 75.1365 22.8755 75.4156C23.1521 75.4589 23.112 75.4259 22.5459 75.143C20.7923 74.2668 19.9073 72.4452 20.5393 71.0131C20.7433 70.5509 21.1079 70.1527 21.5353 69.9256C21.9121 69.7252 21.9826 69.5399 21.807 69.2112C21.7389 69.0836 21.2592 68.8032 21.1667 68.8368C21.1545 68.8413 21.0333 68.8715 20.8973 68.9039ZM79.4235 69.0675C79.3293 69.1554 79.2283 69.3226 79.1992 69.439C79.1539 69.6197 79.1904 69.6857 79.4489 69.8903C80.3811 70.6283 80.7074 71.253 80.6448 72.1802C80.5975 72.8824 80.3639 73.4933 79.9511 73.994C79.5475 74.4837 78.8586 75.0075 78.3877 75.1829C77.6711 75.4498 77.8343 75.5468 78.6442 75.3354C80.0185 74.9766 81.1854 73.913 81.6201 72.623C81.7504 72.2359 81.7776 71.9927 81.7551 71.4103C81.7232 70.5851 81.522 70.0385 81.0526 69.5027C80.5692 68.9509 79.7754 68.7388 79.4235 69.0675ZM23.6945 70.2872C23.2625 70.4261 22.6698 70.9273 22.4912 71.3049C21.8911 72.5723 22.448 74.2273 23.6846 74.8516C24.4837 75.255 25.9394 75.3465 26.8875 75.053C27.1775 74.9632 27.4294 74.9043 27.4471 74.922C27.523 74.9982 26.1996 75.5412 25.5507 75.7002C24.3366 75.9977 22.7456 75.94 21.7807 75.5636C21.6792 75.524 21.6477 75.5333 21.684 75.5923C21.7907 75.7652 22.5839 76.1617 23.0787 76.2894C23.6836 76.4454 24.8185 76.4618 25.4665 76.3237C26.4689 76.1102 28.2145 75.2549 28.9741 74.6051C29.1389 74.4641 29.2928 74.3488 29.3162 74.3488C29.3395 74.3488 29.3073 74.4719 29.2446 74.6223C29.1819 74.7727 29.1306 75.0607 29.1306 75.2625C29.1306 75.5832 29.1689 75.6674 29.4361 75.9353C29.6864 76.1861 29.797 76.2414 30.048 76.2414C30.4147 76.2414 30.6607 76.086 30.764 75.7888C30.9233 75.3308 30.5477 74.9365 30.1812 75.1772C29.9337 75.3398 29.7601 75.2793 29.7601 75.0305C29.7601 74.7708 30.3293 73.9357 30.7315 73.6053C31.2615 73.17 32.1127 72.7047 32.7893 72.4803C33.3135 72.3064 33.5601 72.2715 34.2646 72.2718C34.8676 72.2721 35.1104 72.2451 35.1104 72.178C35.1104 72.0252 34.2457 71.6105 33.7084 71.5056C32.3954 71.249 30.1696 71.7492 28.5655 72.6615C28.2091 72.8642 27.7921 73.0835 27.6388 73.1487C27.4857 73.214 27.4044 73.2829 27.4584 73.302C27.5764 73.3437 28.119 73.1704 29.1512 72.7612C30.1735 72.356 31.7066 71.9056 32.2188 71.86C32.6059 71.8256 32.5898 71.8354 31.9631 72.0142C31.0998 72.2607 29.9026 72.7176 28.1977 73.4514C26.6157 74.1323 26.119 74.2672 25.1894 74.2688C23.7545 74.2713 22.968 73.7541 22.8571 72.7354C22.8381 72.5601 22.8629 72.3117 22.9124 72.1832L23.0023 71.9495L23.2985 72.4986C23.5175 72.9045 23.6753 73.0935 23.9039 73.2238C24.9477 73.8184 26.3369 72.846 26.1987 71.6174C26.1773 71.4266 26.0688 71.1327 25.9576 70.9642C25.5609 70.3634 24.4712 70.0375 23.6945 70.2872ZM75.749 70.3934C75.3226 70.5983 75.0903 70.8361 74.904 71.2583C74.4827 72.2129 75.2593 73.3958 76.3232 73.4201C76.9844 73.4352 77.4228 73.1096 77.9518 72.2107L78.109 71.9436L78.1333 72.3221C78.1467 72.5302 78.1014 72.8946 78.0326 73.1317C77.932 73.4788 77.8436 73.6094 77.5808 73.8003C76.8918 74.3005 75.7085 74.431 74.6081 74.1282C74.2836 74.0388 73.5046 73.7461 72.8771 73.4776C71.5449 72.9075 69.2612 72.0006 68.8644 71.884C68.713 71.8395 68.6332 71.7874 68.6872 71.7683C68.8 71.7283 71.0202 72.4529 72.5167 73.0182C73.0757 73.2294 73.5487 73.3866 73.5678 73.3675C73.6293 73.3058 72.7128 72.7586 71.8817 72.3607C70.6676 71.7794 69.4666 71.4889 68.235 71.4787C67.2863 71.4708 67.2329 71.4793 66.727 71.7195C66.4385 71.8565 66.1605 72.0473 66.1091 72.1435L66.0157 72.3185L66.5952 72.2641C67.6165 72.1682 68.7171 72.501 69.7833 73.2282C70.6262 73.8033 71.3035 74.6622 71.3035 75.1562C71.3035 75.2882 71.2687 75.3049 71.0872 75.2601C70.4989 75.1149 70.413 75.1149 70.3072 75.2599C70.0457 75.6184 70.2626 76.1036 70.7498 76.2499C71.5193 76.4809 72.1771 75.5548 71.8521 74.6978C71.7392 74.4002 71.8183 74.3648 72.0714 74.5998C72.7188 75.2006 74.2079 75.9715 75.3162 76.2797C75.9872 76.4662 77.2207 76.4724 77.9127 76.2928C78.5021 76.1397 79.4076 75.7183 79.4076 75.5971C79.4076 75.5489 79.3508 75.5392 79.27 75.5738C77.9627 76.1335 75.5137 75.9485 73.9393 75.171C73.6364 75.0214 73.4594 74.9197 73.5459 74.945C74.2878 75.1618 74.6668 75.2162 75.4311 75.2153C76.7536 75.2139 77.4504 74.9741 78.0609 74.3102C78.5219 73.809 78.7188 73.3319 78.7609 72.6139C78.8216 71.5777 78.5152 70.9456 77.7502 70.5287C77.187 70.2218 76.2391 70.1576 75.749 70.3934Z" fill="#572A01"></path>
  <path d="M39.1645 75.5317V75.2323C39.6303 75.2323 39.8632 75.0874 39.8632 74.7974V73.3574C39.8157 73.3336 39.7491 73.3146 39.6636 73.3003C39.5828 73.2813 39.4853 73.2718 39.3713 73.2718H38.5158C38.3399 73.2718 38.1855 73.3003 38.0524 73.3574V74.7974C38.0524 75.0874 38.2663 75.2323 38.694 75.2323V75.5317H36.1632V75.2323C36.6432 75.2323 36.8832 75.0874 36.8832 74.7974V71.6821C36.8832 71.3066 36.6432 71.1189 36.1632 71.1189V70.8052H38.694V71.1189C38.2663 71.1189 38.0524 71.3066 38.0524 71.6821V72.8441C38.1237 72.8679 38.195 72.8845 38.2663 72.894C38.3376 72.9035 38.4207 72.9083 38.5158 72.9083H39.3713C39.6184 72.9083 39.7824 72.8892 39.8632 72.8512V71.6821C39.8632 71.3066 39.6303 71.1189 39.1645 71.1189V70.8052H41.6811V71.1189C41.2486 71.1189 41.0323 71.3066 41.0323 71.6821V74.7974C41.0323 75.0874 41.2486 75.2323 41.6811 75.2323V75.5317H39.1645ZM44.7618 75.5317V75.2394C44.8284 75.2299 44.8973 75.2204 44.9686 75.2109C45.0446 75.2014 45.1112 75.1919 45.1682 75.1824C45.23 75.1682 45.2799 75.1539 45.3179 75.1396C45.3559 75.1206 45.3749 75.1016 45.3749 75.0826C45.3749 75.0588 45.3678 75.0327 45.3536 75.0042C45.344 74.9709 45.3322 74.9353 45.3179 74.8973L45.0042 74.0275C44.9852 73.9752 44.9377 73.9396 44.8616 73.9206C44.7856 73.8968 44.7072 73.8849 44.6264 73.8849H43.5855C43.4335 73.8849 43.3408 73.9325 43.3075 74.0275L43.0794 74.7547C43.0699 74.7784 43.0628 74.8046 43.058 74.8331C43.0532 74.8616 43.0509 74.8925 43.0509 74.9258C43.0509 75.1111 43.2529 75.2038 43.6568 75.2038V75.5317H41.9958V75.2038C42.2619 75.1848 42.4592 75.0232 42.5875 74.719L44.2771 70.6911L44.9401 70.7838L46.6011 74.9614C46.6201 75.0137 46.651 75.0565 46.6938 75.0897C46.7366 75.123 46.7841 75.1491 46.8364 75.1682C46.8934 75.1872 46.9505 75.2038 47.0075 75.2181C47.0645 75.2276 47.1192 75.2347 47.1715 75.2394V75.5317H44.7618ZM44.1915 71.8603L43.6283 73.2219C43.576 73.336 43.5499 73.4073 43.5499 73.4358C43.5499 73.4738 43.6236 73.4928 43.7709 73.4928H44.6478C44.7618 73.4928 44.8189 73.4833 44.8189 73.4643C44.8189 73.4406 44.7737 73.3122 44.6834 73.0793L44.1915 71.8603ZM47.5548 75.5317V75.2323C47.9635 75.2323 48.1679 75.123 48.1679 74.9044V71.6036C48.1679 71.2805 47.9374 71.1189 47.4764 71.1189V70.8052H49.9787V71.1189C49.5509 71.1189 49.3371 71.2805 49.3371 71.6036V74.9044C49.3371 75.0612 49.4749 75.1396 49.7506 75.1396H49.8717C50.0809 75.1396 50.2591 75.1349 50.4064 75.1254C50.5538 75.1111 50.6821 75.0684 50.7914 74.9971C50.9007 74.921 50.9981 74.8046 51.0837 74.6477C51.174 74.4861 51.2643 74.2604 51.3546 73.9705L51.7681 74.0133L51.5399 75.5317H47.5548ZM55.353 75.5674L54.2908 72.6302L53.3426 75.6458L52.6938 75.5674L51.2181 71.5395C51.1659 71.3921 51.0898 71.2852 50.99 71.2187C50.895 71.1521 50.7928 71.1189 50.6835 71.1189V70.8052H52.8507V71.1189C52.6273 71.1189 52.4824 71.1402 52.4158 71.183C52.3493 71.2258 52.316 71.2805 52.316 71.347C52.316 71.366 52.3208 71.3874 52.3303 71.4112C52.3445 71.4349 52.3564 71.4658 52.3659 71.5038L53.3355 74.3554L54.1125 72.0171L53.8488 71.3185C53.825 71.2519 53.7656 71.202 53.6705 71.1688C53.5755 71.1355 53.4662 71.1189 53.3426 71.1189V70.8052H55.4884V71.1189C55.1415 71.1189 54.968 71.1949 54.968 71.347C54.968 71.3993 54.9846 71.4587 55.0179 71.5252L55.9447 74.3483L56.7431 71.7747C56.7574 71.7129 56.7693 71.6559 56.7788 71.6036C56.793 71.5466 56.8002 71.4919 56.8002 71.4397C56.8002 71.2258 56.6053 71.1189 56.2156 71.1189V70.8052H57.8268V71.1189C57.5416 71.1189 57.3277 71.3375 57.1851 71.7747L55.9304 75.6458L55.353 75.5674ZM59.5908 75.5317V75.2394C59.6573 75.2299 59.7263 75.2204 59.7975 75.2109C59.8736 75.2014 59.9401 75.1919 59.9972 75.1824C60.0589 75.1682 60.1088 75.1539 60.1469 75.1396C60.1849 75.1206 60.2039 75.1016 60.2039 75.0826C60.2039 75.0588 60.1968 75.0327 60.1825 75.0042C60.173 74.9709 60.1611 74.9353 60.1469 74.8973L59.8332 74.0275C59.8142 73.9752 59.7667 73.9396 59.6906 73.9206C59.6146 73.8968 59.5361 73.8849 59.4554 73.8849H58.4145C58.2624 73.8849 58.1697 73.9325 58.1365 74.0275L57.9083 74.7547C57.8988 74.7784 57.8917 74.8046 57.887 74.8331C57.8822 74.8616 57.8798 74.8925 57.8798 74.9258C57.8798 75.1111 58.0818 75.2038 58.4858 75.2038V75.5317H56.8247V75.2038C57.0909 75.1848 57.2881 75.0232 57.4164 74.719L59.106 70.6911L59.769 70.7838L61.4301 74.9614C61.4491 75.0137 61.48 75.0565 61.5228 75.0897C61.5655 75.123 61.6131 75.1491 61.6654 75.1682C61.7224 75.1872 61.7794 75.2038 61.8365 75.2181C61.8935 75.2276 61.9481 75.2347 62.0004 75.2394V75.5317H59.5908ZM59.0205 71.8603L58.4573 73.2219C58.405 73.336 58.3789 73.4073 58.3789 73.4358C58.3789 73.4738 58.4525 73.4928 58.5999 73.4928H59.4767C59.5908 73.4928 59.6478 73.4833 59.6478 73.4643C59.6478 73.4406 59.6027 73.3122 59.5124 73.0793L59.0205 71.8603ZM62.3339 75.5317V75.2323C62.7759 75.2323 62.9969 75.0874 62.9969 74.7974V71.6821C62.9969 71.3066 62.7664 71.1189 62.3054 71.1189V70.8052H64.8076V71.1189C64.3847 71.1189 64.1732 71.3066 64.1732 71.6821V74.7974C64.1732 75.0874 64.3965 75.2323 64.8433 75.2323V75.5317H62.3339Z" fill="#572A01"></path>
  <defs>
    <linearGradient id="paint0_linear_528_3954" x1="51" y1="6" x2="51" y2="96" gradientUnits="userSpaceOnUse">
      <stop stop-color="#376890"></stop>
      <stop offset="1" stop-color="#3A7BA3"></stop>
    </linearGradient>
  </defs>
</svg>
